<?xml version="1.0" standalone="no"?>
<!DOCTYPE svg PUBLIC "-//W3C//DTD SVG 1.1//EN" "http://www.w3.org/Graphics/SVG/1.1/DTD/svg11.dtd" >
<svg xmlns="http://www.w3.org/2000/svg" xmlns:xlink="http://www.w3.org/1999/xlink" version="1.1">
<metadata>
Created by FontForge 20170731 at Tue Oct 25 15:14:44 2022
 By Aleksey,,,
Copyright (c) 2014 by Olivier Nineuil. All rights reserved.
</metadata>
<defs>
<font id="HappinessV-Light" horiz-adv-x="1478" >
  <font-face 
    font-family="HappinessV1"
    font-weight="300"
    font-stretch="normal"
    units-per-em="2048"
    panose-1="2 0 5 3 4 0 0 2 0 4"
    ascent="1638"
    descent="-410"
    x-height="1030"
    cap-height="1374"
    bbox="-104 -422 2531 1948"
    underline-thickness="102"
    underline-position="-307"
    unicode-range="U+0020-FB04"
  />
<missing-glyph horiz-adv-x="847" 
d="M-14 14v1286h921v-1286h-921zM500 657l323 -487v971zM70 1141v-969q55 81 161 242.5t162 242.5zM446 737l324 484h-645q58 -89 166.5 -251.5t154.5 -232.5zM125 94h645l-324 484q-53 -82 -160.5 -242t-160.5 -242z" />
    <glyph glyph-name="f_f" unicode="ff" horiz-adv-x="1310" 
d="M977 0h-162v901h-436v-901h-162v901h-190v129h190v53q0 128 78.5 209.5t208.5 81.5h237v-129h-209q-77 0 -115 -39.5t-38 -113.5v-62h436v53q0 128 78.5 209.5t208.5 81.5h237v-129h-209q-77 0 -115 -39.5t-38 -113.5v-62h340v-129h-340v-901z" />
    <glyph glyph-name="fi" unicode="fi" horiz-adv-x="1243" 
d="M379 1092v-62h715v-1030h-162v901h-553v-901h-162v901h-190v129h190v53q0 128 78.5 209.5t208.5 81.5h237v-129h-209q-77 0 -115 -39.5t-38 -113.5zM920 1192v182h180v-182h-180z" />
    <glyph glyph-name="fl" unicode="fl" horiz-adv-x="1345" 
d="M379 0h-162v901h-190v129h190v53q0 128 78.5 209.5t208.5 81.5h237v-129h-209q-77 0 -115 -39.5t-38 -113.5v-62h364v-129h-364v-901zM1022 1374v-1089q0 -81 44 -117.5t114 -36.5h155v-131h-174q-139 0 -220 75t-81 224v1075h162z" />
    <glyph glyph-name="f_f_i" unicode="ffi" horiz-adv-x="1873" 
d="M1032 1092v-62h680v-1030h-162v901h-518v-901h-162v901h-491v-901h-162v901h-190v129h190v53q0 128 78.5 209.5t208.5 81.5h237v-129h-209q-77 0 -115 -39.5t-38 -113.5v-62h491v53q0 128 78.5 209.5t208.5 81.5h238v-129h-209q-77 0 -115.5 -40t-38.5 -113zM1538 1192
v182h180v-182h-180z" />
    <glyph glyph-name="f_f_l" unicode="ffl" horiz-adv-x="2035" 
d="M1032 0h-162v901h-491v-901h-162v901h-190v129h190v53q0 128 78.5 209.5t208.5 81.5h237v-129h-209q-77 0 -115 -39.5t-38 -113.5v-62h491v53q0 128 78.5 209.5t208.5 81.5h238v-129h-209q-77 0 -115.5 -40t-38.5 -113v-62h363v-129h-363v-901zM1712 1374v-1089
q0 -81 44 -117.5t114 -36.5h155v-131h-174q-139 0 -220 75t-81 224v1075h162z" />
    <glyph glyph-name=".notdef" horiz-adv-x="847" 
d="M-14 14v1286h921v-1286h-921zM500 657l323 -487v971zM70 1141v-969q55 81 161 242.5t162 242.5zM446 737l324 484h-645q58 -89 166.5 -251.5t154.5 -232.5zM125 94h645l-324 484q-53 -82 -160.5 -242t-160.5 -242z" />
    <glyph glyph-name=".null" horiz-adv-x="0" 
 />
    <glyph glyph-name="nonmarkingreturn" horiz-adv-x="682" 
 />
    <glyph glyph-name="space" unicode=" " horiz-adv-x="526" 
 />
    <glyph glyph-name="exclam" unicode="!" horiz-adv-x="602" 
d="M383 440h-141l-13 934h166zM221 182v-182h180v182h-180z" />
    <glyph glyph-name="quotedbl" unicode="&#x22;" horiz-adv-x="1048" 
d="M129 809l264 567h187l-279 -567h-172zM575 809l265 567h186l-278 -567h-173z" />
    <glyph glyph-name="numbersign" unicode="#" horiz-adv-x="1740" 
d="M356 0l82 383h-266v162h301l70 315h-299v162h334l77 352h158l-76 -352h453l78 352h157l-75 -352h264v-162h-299l-68 -315h289v-162h-324l-82 -383h-161l82 383h-451l-82 -383h-162zM702 860l-67 -315h450l70 315h-453z" />
    <glyph glyph-name="dollar" unicode="$" horiz-adv-x="1378" 
d="M813 1540v-145q230 -22 422 -172l-113 -101q-126 114 -309 142v-502l105 -17q168 -27 271 -122.5t103 -237.5q0 -161 -129 -271t-350 -132v-205h-166v205q-154 12 -291 72t-227 147l111 106q72 -75 181.5 -128t225.5 -66v532l-82 14q-78 12 -145 38t-123.5 68
t-88.5 105.5t-32 141.5q0 163 124.5 267.5t346.5 119.5v141h166zM864 610l-51 8v-503q146 17 229.5 86t83.5 174q0 94 -71 155t-191 80zM633 791l14 -3v480q-145 -13 -225 -79.5t-80 -164.5q0 -190 291 -233z" />
    <glyph glyph-name="percent" unicode="%" horiz-adv-x="1878" 
d="M1753 309q0 -140 -101 -236t-245 -96q-141 0 -242.5 96t-101.5 236q0 136 101.5 231t242.5 95q143 0 244.5 -95t101.5 -231zM1602 311q0 81 -56.5 136t-138.5 55q-78 0 -134 -56t-56 -135q0 -85 55.5 -142.5t134.5 -57.5q83 0 139 56t56 144zM346 2l1038 1374h185
l-1034 -1374h-189zM881 1075q0 -140 -101 -236t-245 -96q-141 0 -243 96.5t-102 235.5q0 135 102 230.5t243 95.5q143 0 244.5 -95t101.5 -231zM729 1077q0 81 -56 136t-138 55q-78 0 -134.5 -56t-56.5 -135q0 -85 56 -142.5t135 -57.5q83 0 138.5 56t55.5 144z" />
    <glyph glyph-name="ampersand" unicode="&#x26;" horiz-adv-x="1638" 
d="M195 305q0 46 16.5 87t41 72.5t71.5 68t87 62.5t109 67l41 24q-127 107 -189.5 194t-62.5 185q0 140 113 237t311 97q216 0 325 -92t109 -228q0 -172 -209 -303l-153 -96l428 -356q108 118 131 294h154q-19 -111 -59.5 -202.5t-121.5 -179.5l285 -236h-231l-164 135
q-211 -160 -496 -160q-268 0 -402 87.5t-134 242.5zM731 104q113 0 202 28.5t183 92.5l-444 371l-45 -29q-150 -92 -190 -126q-76 -67 -77 -140q0 -95 95.5 -146t275.5 -51zM672 791l26 -23l125 74q92 56 135 111.5t43 119.5q0 91 -72 147t-196 56q-116 0 -188 -57.5
t-72 -153.5q0 -32 12 -64t26.5 -54.5t47 -54.5t51.5 -49t62 -52z" />
    <glyph glyph-name="quotesingle" unicode="'" horiz-adv-x="544" 
d="M115 807l264 567h186l-278 -567h-172z" />
    <glyph glyph-name="parenleft" unicode="(" horiz-adv-x="727" 
d="M629 -172h-174q-242 379 -242 813q0 417 223 758h174q-241 -377 -241 -762q0 -398 260 -809z" />
    <glyph glyph-name="parenright" unicode=")" horiz-adv-x="733" 
d="M354 -170h-174q260 411 260 809q0 385 -241 762h174q223 -341 223 -758q0 -434 -242 -813z" />
    <glyph glyph-name="asterisk" unicode="*" horiz-adv-x="839" 
d="M166 1249l211 -75l-2 225h129l-2 -228l215 82l45 -114l-227 -88l139 -183l-103 -71l-133 198l-137 -190l-100 72l143 174l-223 90z" />
    <glyph glyph-name="plus" unicode="+" horiz-adv-x="1269" 
d="M1145 416h-404v-416h-161v416h-408v162h408v385h161v-385h404v-162z" />
    <glyph glyph-name="comma" unicode="," horiz-adv-x="528" 
d="M49 -309l264 567h187l-279 -567h-172z" />
    <glyph glyph-name="hyphen" unicode="-" horiz-adv-x="1042" 
d="M889 444h-686v148h686v-148z" />
    <glyph glyph-name="period" unicode="." horiz-adv-x="552" 
d="M209 0v190h188v-190h-188z" />
    <glyph glyph-name="slash" unicode="/" horiz-adv-x="1456" 
d="M156 -133l1032 1579h180l-1028 -1579h-184z" />
    <glyph glyph-name="zero" unicode="0" horiz-adv-x="1382" 
d="M696 1399q141 0 252.5 -47.5t181.5 -130.5t107 -192t37 -236v-203q0 -282 -149 -448.5t-429 -166.5q-277 0 -427 168t-150 447v203q0 127 37 236t108 192t182 130.5t250 47.5zM698 106q406 0 406 502v166q0 236 -101.5 365t-304.5 129q-198 0 -303.5 -130.5
t-105.5 -363.5v-166q0 -502 409 -502z" />
    <glyph glyph-name="one" unicode="1" horiz-adv-x="1013" 
d="M772 1374v-1374h-166v1186l-444 -373l-101 113l537 448h174z" />
    <glyph glyph-name="two" unicode="2" horiz-adv-x="1210" 
d="M862 584l-489 -445h757v-139h-978v129l600 545q104 96 152 174t48 168q0 108 -86 183t-219 75q-157 0 -250 -88.5t-102 -224.5h-168q21 193 160.5 315.5t359.5 122.5q214 0 342.5 -109.5t128.5 -273.5q0 -115 -67.5 -219t-188.5 -213z" />
    <glyph glyph-name="three" unicode="3" horiz-adv-x="1220" 
d="M1122 1020q0 -106 -65 -181.5t-164 -121.5q117 -37 191.5 -121t74.5 -197q0 -186 -139.5 -305t-388.5 -119q-93 0 -179.5 25t-158 73t-120.5 124.5t-62 171.5h163q23 -118 120.5 -190.5t234.5 -72.5q164 0 263 76.5t99 214.5q0 62 -29 110t-80 76.5t-114.5 43
t-136.5 14.5h-148v133h123q168 0 258 66.5t90 179.5q0 114 -86.5 184t-244.5 70q-118 0 -216 -76t-116 -197h-166q27 178 166.5 288t329.5 110q247 0 374 -103t127 -276z" />
    <glyph glyph-name="four" unicode="4" horiz-adv-x="1325" 
d="M782 469v362h162v-362h293v-137h-293v-332h-162v332h-680v133l557 909h168l-540 -905h495z" />
    <glyph glyph-name="five" unicode="5" horiz-adv-x="1251" 
d="M1053 1264h-629l-90 -412q48 31 127.5 52.5t154.5 21.5q155 0 274.5 -51.5t192 -160t72.5 -261.5q0 -202 -152.5 -337.5t-384.5 -135.5q-72 0 -142 16t-133 49t-112 79t-81 111t-39 140h161q25 -124 118.5 -196.5t230.5 -72.5q157 0 260.5 94.5t103.5 252.5
q0 161 -103.5 252.5t-281.5 91.5q-105 0 -188 -40.5t-136 -99.5l-139 60l154 682h762v-135z" />
    <glyph glyph-name="six" unicode="6" horiz-adv-x="1236" 
d="M229 811l394 563h190l-381 -518q71 35 184 35q148 0 265 -51.5t187.5 -157t70.5 -250.5q0 -197 -146.5 -327t-376.5 -130q-142 0 -260 56.5t-188 161.5t-70 237q0 106 30.5 194t100.5 187zM979 432q0 154 -97 243t-266 89q-157 0 -255.5 -89t-98.5 -241t101.5 -240
t252.5 -88q154 0 258.5 87.5t104.5 238.5z" />
    <glyph glyph-name="seven" unicode="7" horiz-adv-x="1146" 
d="M1085 1249l-657 -1249h-172l659 1241h-806v133h976v-125z" />
    <glyph glyph-name="eight" unicode="8" horiz-adv-x="1257" 
d="M627 1399q227 0 361 -102.5t134 -278.5q0 -190 -213 -301q113 -44 184.5 -130t71.5 -198q0 -128 -70 -223t-191.5 -143t-278.5 -48q-147 0 -266.5 47.5t-193 143t-73.5 223.5q0 110 75.5 198.5t184.5 129.5q-95 42 -157 119t-62 182q0 176 133.5 278.5t360.5 102.5z
M627 106q170 0 272 73t102 198q0 128 -100.5 202t-273.5 74q-174 0 -271.5 -75.5t-97.5 -200.5t101 -198t268 -73zM627 772q154 0 244 70.5t90 187.5q0 110 -89.5 178t-244.5 68q-152 0 -245 -68.5t-93 -177.5q0 -117 90.5 -187.5t247.5 -70.5z" />
    <glyph glyph-name="nine" unicode="9" horiz-adv-x="1232" 
d="M1006 563l-394 -563h-190l381 518q-71 -35 -185 -35q-148 0 -264.5 51.5t-187 157t-70.5 250.5q0 197 146 327t376 130q142 0 260 -56.5t188.5 -161.5t70.5 -237q0 -106 -30.5 -194t-100.5 -187zM256 942q0 -154 97 -243t265 -89q157 0 256 89t99 241q0 151 -102 239.5
t-253 88.5q-154 0 -258 -87.5t-104 -238.5z" />
    <glyph glyph-name="colon" unicode=":" horiz-adv-x="563" 
d="M209 0v190h188v-190h-188zM209 754v190h188v-190h-188z" />
    <glyph glyph-name="semicolon" unicode=";" horiz-adv-x="575" 
d="M293 778v191h188v-191h-188zM25 -309l264 567h186l-278 -567h-172z" />
    <glyph glyph-name="less" unicode="&#x3c;" horiz-adv-x="1212" 
d="M811 1223h256l-739 -609l739 -614h-256l-641 537v157z" />
    <glyph glyph-name="equal" unicode="=" horiz-adv-x="1214" 
d="M1087 662h-915v161h915v-161zM1087 154h-915v161h915v-161z" />
    <glyph glyph-name="greater" unicode="&#x3e;" horiz-adv-x="1142" 
d="M186 1225h256l641 -529v-157l-641 -537h-256l740 614z" />
    <glyph glyph-name="question" unicode="?" horiz-adv-x="1191" 
d="M608 1399q217 0 337 -95t120 -243q0 -29 -8.5 -59t-16 -49.5t-31.5 -54t-32 -45t-42 -50.5t-38 -45l-143 -176q-45 -55 -45 -119v-78h-166v80q0 63 19.5 106t60.5 91l129 151q7 8 19 22q48 56 69.5 83t40 65.5t18.5 73.5q0 97 -73 156t-218 59q-135 0 -223.5 -84.5
t-89.5 -224.5h-162q2 187 130 311.5t345 124.5zM535 182v-182h180v182h-180z" />
    <glyph glyph-name="at" unicode="@" horiz-adv-x="2369" 
d="M1192 68q-214 0 -337.5 93.5t-123.5 227.5t114.5 217.5t305.5 83.5h350v107q0 100 -80.5 156.5t-222.5 56.5q-185 0 -326 -121l-108 90q80 71 199.5 115.5t238.5 44.5q223 0 342 -91t119 -251v-406q0 -40 14 -69t38 -44.5t50 -22.5t54 -7q33 0 64 12t62.5 42t54.5 76
t37.5 120.5t14.5 169.5q0 157 -61.5 296.5t-170.5 241.5t-270 161.5t-350 59.5q-181 0 -339.5 -64.5t-272 -178t-179 -275.5t-65.5 -350q0 -193 74.5 -352t203 -263.5t300.5 -161t368 -56.5q345 0 594 172l66 -136q-121 -84 -298.5 -134t-363.5 -50q-225 0 -425.5 68
t-352.5 192t-241 310.5t-89 410.5q0 215 79 404t215 322.5t325 210.5t403 77q216 0 405.5 -71.5t322.5 -193.5t209.5 -289.5t76.5 -354.5q0 -150 -35 -264.5t-93.5 -180.5t-127.5 -98.5t-145 -32.5q-75 0 -137.5 28t-102.5 79q-160 -127 -383 -127zM1501 569h-342
q-130 0 -199 -48.5t-69 -127.5q0 -89 76.5 -143.5t249.5 -54.5q137 0 247 75q37 25 37 70v229z" />
    <glyph glyph-name="A" unicode="A" horiz-adv-x="1574" 
d="M682 1374h176l696 -1374h-182l-186 379h-813l-178 -379h-175zM770 1223l-336 -711h686z" />
    <glyph glyph-name="B" unicode="B" horiz-adv-x="1294" 
d="M778 0h-618v1374h594q232 0 348.5 -97t116.5 -271q0 -96 -58.5 -173t-154.5 -120q113 -39 176 -123t63 -191q0 -173 -133.5 -286t-333.5 -113zM1077 393q0 107 -76.5 178.5t-234.5 71.5h-442v-510h432q81 0 144.5 23t101 60.5t56.5 82.5t19 94zM1051 1008
q0 104 -80.5 168.5t-233.5 64.5h-413v-465h421q143 0 224.5 63t81.5 169z" />
    <glyph glyph-name="C" unicode="C" horiz-adv-x="1421" 
d="M741 -25q-296 0 -462 161.5t-166 441.5v200q0 295 161.5 458t464.5 163q273 0 426.5 -118.5t184.5 -319.5h-179q-36 146 -145.5 227.5t-284.5 81.5q-222 0 -340 -130t-118 -374v-176q0 -233 119 -359.5t341 -126.5q185 0 292 83.5t136 230.5h179q-40 -210 -189.5 -326.5
t-419.5 -116.5z" />
    <glyph glyph-name="D" unicode="D" horiz-adv-x="1437" 
d="M158 1374h497q346 0 528.5 -158.5t182.5 -457.5v-133q0 -136 -47 -250.5t-135 -198t-224 -130t-305 -46.5h-497v1374zM322 1241v-1108h342q242 0 387 125.5t145 366.5v143q0 228 -145.5 350.5t-386.5 122.5h-342z" />
    <glyph glyph-name="E" unicode="E" horiz-adv-x="1200" 
d="M322 133h827v-133h-991v1374h991v-133h-827v-465h772v-133h-772v-510z" />
    <glyph glyph-name="F" unicode="F" horiz-adv-x="1118" 
d="M322 569v-569h-164v1374h940v-133h-776v-539h731v-133h-731z" />
    <glyph glyph-name="G" unicode="G" horiz-adv-x="1466" 
d="M750 690h639v-160q0 -255 -168.5 -405t-454.5 -150q-296 0 -465.5 164t-169.5 445v200q0 288 162.5 451.5t464.5 163.5q244 0 403 -111.5t201 -286.5h-191q-45 129 -149 199t-262 70q-222 0 -340.5 -130t-118.5 -368v-176q0 -235 122 -363.5t343 -128.5q209 0 326.5 112
t117.5 306v35h-460v133z" />
    <glyph glyph-name="H" unicode="H" horiz-adv-x="1533" 
d="M1376 1374v-1374h-164v629h-890v-629h-164v1374h164v-612h890v612h164z" />
    <glyph glyph-name="I" unicode="I" horiz-adv-x="534" 
d="M350 1374v-1374h-166v1374h166z" />
    <glyph glyph-name="J" unicode="J" horiz-adv-x="1134" 
d="M987 1374v-993q0 -181 -126.5 -293.5t-340.5 -112.5q-137 0 -261 52t-210 139l107 100q65 -70 162 -113.5t198 -43.5q135 0 220 76t85 196v993h166z" />
    <glyph glyph-name="K" unicode="K" horiz-adv-x="1392" 
d="M682 782l700 -782h-208l-601 684l-251 -229v-455h-164v1374h164v-723l798 723h211z" />
    <glyph glyph-name="L" unicode="L" horiz-adv-x="1157" 
d="M322 1374v-1241h798v-133h-962v1374h164z" />
    <glyph glyph-name="M" unicode="M" horiz-adv-x="1824" 
d="M1663 1374v-1374h-166v1145l-526 -1108h-123l-516 1087v-1124h-160v1374h213l528 -1110l531 1110h219z" />
    <glyph glyph-name="N" unicode="N" horiz-adv-x="1527" 
d="M1370 1374v-1374h-156l-897 1130v-1130h-159v1374h164l888 -1116v1116h160z" />
    <glyph glyph-name="O" unicode="O" horiz-adv-x="1445" 
d="M723 1399q159 0 282.5 -47.5t198 -131.5t112.5 -192t38 -235v-199q0 -138 -39 -250.5t-115.5 -195.5t-198 -128t-278.5 -45q-303 0 -467 169t-164 450v199q0 101 23 190.5t72.5 166t122 131.5t178.5 86.5t235 31.5zM725 106q459 0 459 506v162q0 114 -26 203t-80 155
t-143 101t-210 35q-233 0 -348 -131.5t-115 -362.5v-162q0 -506 463 -506z" />
    <glyph glyph-name="P" unicode="P" horiz-adv-x="1271" 
d="M158 1374h514q245 0 385.5 -118t140.5 -343q0 -201 -142.5 -317.5t-383.5 -116.5h-350v-479h-164v1374zM1030 913q0 146 -91.5 237t-262.5 91h-354v-629h354q171 0 262.5 84t91.5 217z" />
    <glyph glyph-name="Q" unicode="Q" horiz-adv-x="1445" 
d="M723 1399q159 0 282.5 -47.5t198 -131.5t112.5 -192t38 -235v-199q0 -288 -162 -453l281 -274l-144 -70l-262 252q-145 -74 -344 -74q-303 0 -467 169t-164 450v199q0 101 23 190.5t72.5 166t122 131.5t178.5 86.5t235 31.5zM725 106q459 0 459 506v162q0 114 -26 203
t-80 155t-143 101t-210 35q-233 0 -348 -131.5t-115 -362.5v-162q0 -506 463 -506z" />
    <glyph glyph-name="R" unicode="R" horiz-adv-x="1337" 
d="M158 1374h569q233 0 372.5 -108t139.5 -318q0 -147 -90.5 -250.5t-245.5 -142.5l422 -555h-197l-393 535h-8h-405v-535h-164v1374zM1071 948q0 133 -91.5 213t-254.5 80h-403v-573h403q162 0 254 78.5t92 201.5z" />
    <glyph glyph-name="S" unicode="S" horiz-adv-x="1333" 
d="M586 788l284 -45q168 -27 271.5 -122.5t103.5 -237.5q0 -178 -157 -293t-418 -115q-172 0 -329.5 63.5t-258.5 160.5l111 106q84 -87 214.5 -143t262.5 -56q186 0 297.5 73t111.5 194q0 94 -71 155t-191 80l-299 49q-78 12 -145 38t-123.5 68t-88.5 105.5t-32 141.5
q0 176 143.5 282.5t393.5 106.5q298 0 522 -178l-113 -101q-77 71 -184 110.5t-221 39.5q-175 0 -275 -69.5t-100 -178.5q0 -191 291 -234z" />
    <glyph glyph-name="T" unicode="T" horiz-adv-x="1265" 
d="M1221 1374v-133h-506v-1241h-164v1241h-506v133h1176z" />
    <glyph glyph-name="U" unicode="U" horiz-adv-x="1445" 
d="M1153 498v876h162v-882q0 -237 -157 -377t-425 -140q-269 0 -426 140t-157 377v882h161v-876q0 -129 58.5 -219.5t152 -131.5t211.5 -41q84 0 158.5 24t133.5 71t93.5 123.5t34.5 173.5z" />
    <glyph glyph-name="V" unicode="V" horiz-adv-x="1421" 
d="M805 0h-182l-603 1374h183l512 -1202l512 1202h174z" />
    <glyph glyph-name="W" unicode="W" horiz-adv-x="2082" 
d="M1593 0h-190l-363 1120l-389 -1120h-194l-437 1374h179l358 -1192l410 1192h155l385 -1194l381 1194h174z" />
    <glyph glyph-name="X" unicode="X" horiz-adv-x="1431" 
d="M616 719l-522 655h199l424 -547l446 547h193l-535 -651l590 -723h-207l-491 616l-494 -616h-199z" />
    <glyph glyph-name="Y" unicode="Y" horiz-adv-x="1351" 
d="M758 520v-520h-166v520l-572 854h181l475 -715l481 715h174z" />
    <glyph glyph-name="Z" unicode="Z" horiz-adv-x="1257" 
d="M1198 1249l-903 -1116h889v-133h-1096v129l918 1112h-897v133h1089v-125z" />
    <glyph glyph-name="bracketleft" unicode="[" horiz-adv-x="778" 
d="M252 1399h477v-133h-311v-1305h311v-133h-477v1571z" />
    <glyph glyph-name="backslash" unicode="\" horiz-adv-x="1456" 
d="M346 1448l1032 -1579h-184l-1028 1579h180z" />
    <glyph glyph-name="bracketright" unicode="]" horiz-adv-x="770" 
d="M612 -156h-477v133h311v1305h-311v133h477v-1571z" />
    <glyph glyph-name="asciicircum" unicode="^" horiz-adv-x="1040" 
d="M967 690h-183l-235 522l-236 -522h-174l281 658h258z" />
    <glyph glyph-name="underscore" unicode="_" horiz-adv-x="1095" 
d="M1065 -240h-1006v148h1006v-148z" />
    <glyph glyph-name="grave" unicode="`" 
d="M786 1151l-215 223h201l191 -223h-177z" />
    <glyph glyph-name="a" unicode="a" horiz-adv-x="1128" 
d="M598 -20q-237 0 -370.5 94t-133.5 227q0 134 114.5 217.5t305.5 83.5h350v107q0 100 -80.5 156.5t-222.5 56.5q-184 0 -325 -121l-109 90q80 71 199.5 115.5t238.5 44.5q223 0 342 -91t119 -251v-611q0 -22 -25 -35q-176 -83 -403 -83zM864 481h-342q-130 0 -199 -48.5
t-69 -127.5q0 -87 83.5 -143t258.5 -56q154 0 268 54v321z" />
    <glyph glyph-name="b" unicode="b" horiz-adv-x="1216" 
d="M623 -20q-234 0 -370 110t-136 305v979h162v-428q56 47 151 76t207 29q141 0 252 -48t177.5 -145t66.5 -229v-219q0 -203 -139.5 -316.5t-370.5 -113.5zM623 926q-153 0 -248.5 -75.5t-95.5 -199.5v-250q0 -141 94 -218t250 -77t250 77t94 218v228q0 146 -93 221.5
t-251 75.5z" />
    <glyph glyph-name="c" unicode="c" horiz-adv-x="1148" 
d="M610 1051q115 0 207.5 -32t148.5 -83.5t87.5 -108t38.5 -112.5h-164q-25 89 -102.5 150t-211.5 61q-157 0 -255.5 -82t-98.5 -242v-180q0 -153 99.5 -234.5t261.5 -81.5q134 0 215 73.5t98 172.5h170q-11 -75 -44.5 -139t-90.5 -117.5t-148 -84.5t-205 -31
q-148 0 -266 52.5t-188 156t-70 241.5v168q0 209 143 331t375 122z" />
    <glyph glyph-name="d" unicode="d" horiz-adv-x="1226" 
d="M610 -20q-231 0 -370.5 113.5t-139.5 316.5v219q0 132 66.5 229t177.5 145t252 48q112 0 207 -29t151 -76v428h162v-979q0 -195 -136 -305t-370 -110zM610 926q-158 0 -251 -75.5t-93 -221.5v-228q0 -141 94 -218t250 -77t250 77t94 218v250q0 124 -95.5 199.5
t-248.5 75.5z" />
    <glyph glyph-name="e" unicode="e" horiz-adv-x="1187" 
d="M623 -20q-240 0 -390.5 134t-150.5 361v68q0 223 141 365.5t367 142.5q238 0 372 -132.5t134 -361.5v-92h-846v-21q0 -151 104.5 -244.5t268.5 -93.5q111 0 200.5 42.5t149.5 111.5l108 -94q-83 -87 -200 -136.5t-258 -49.5zM590 926q-147 0 -243.5 -93.5t-96.5 -232.5
v-8h680v12q0 139 -91.5 230.5t-248.5 91.5z" />
    <glyph glyph-name="f" unicode="f" horiz-adv-x="696" 
d="M362 0h-161v901h-191v129h191v53q0 128 78 209.5t208 81.5h238v-129h-209q-77 0 -115.5 -40t-38.5 -113v-62h340v-129h-340v-901z" />
    <glyph glyph-name="g" unicode="g" horiz-adv-x="1200" 
d="M88 481v125q0 204 139 324.5t371 120.5q238 0 372 -113.5t134 -329.5v-600q0 -195 -136 -312.5t-380 -117.5q-146 0 -268 48.5t-203 127.5h2l102 94q67 -67 162.5 -105t204.5 -38q159 0 256.5 74.5t97.5 212.5v149q-130 -108 -348 -108q-221 0 -363.5 118t-142.5 330z
M942 481v133q0 153 -96.5 232.5t-247.5 79.5t-246.5 -81t-95.5 -237v-129q0 -160 93.5 -238.5t252.5 -78.5t249.5 80.5t90.5 238.5z" />
    <glyph glyph-name="h" unicode="h" horiz-adv-x="1224" 
d="M1112 0h-162v616q0 141 -86.5 225.5t-234.5 84.5q-136 0 -233 -81t-101 -206v-639h-162v1374h162v-446q156 123 354 123q219 0 341 -116t122 -314v-621z" />
    <glyph glyph-name="i" unicode="i" horiz-adv-x="501" 
d="M170 0v1030h162v-1030h-162zM160 1192v182h180v-182h-180z" />
    <glyph glyph-name="j" unicode="j" horiz-adv-x="501" 
d="M170 -129v1159h162v-1171q0 -121 -86 -190.5t-221 -69.5h-129v131h102q78 0 125 35.5t47 105.5zM162 1192v182h180v-182h-180z" />
    <glyph glyph-name="k" unicode="k" horiz-adv-x="1118" 
d="M578 598l530 -598h-209l-428 500l-176 -164v-336h-162v1374h162v-839l543 495h211z" />
    <glyph glyph-name="l" unicode="l" horiz-adv-x="618" 
d="M295 1374v-1089q0 -81 44 -117.5t114 -36.5h155v-131h-174q-139 0 -220 75t-81 224v1075h162z" />
    <glyph glyph-name="m" unicode="m" horiz-adv-x="1964" 
d="M1851 0h-161v618q0 81 -27.5 142t-74 95.5t-100 51.5t-112.5 17q-122 0 -214.5 -87t-92.5 -208v-629h-162v621q0 77 -26.5 137t-70 95t-95 53t-107.5 18q-131 0 -222 -85.5t-91 -217.5v-621h-162v1030h131l23 -117q74 68 168 103t182 35q248 0 371 -185q60 77 155 131
t219 54q72 0 138 -14.5t127 -47t105.5 -81t71.5 -122t27 -163.5v-623z" />
    <glyph glyph-name="n" unicode="n" horiz-adv-x="1224" 
d="M1112 0h-162v616q0 141 -86.5 225.5t-234.5 84.5q-139 0 -236.5 -84.5t-97.5 -214.5v-627h-162v1030h131l21 -110q157 131 364 131q219 0 341 -116t122 -314v-621z" />
    <glyph glyph-name="o" unicode="o" horiz-adv-x="1200" 
d="M600 -20q-151 0 -264 48t-178.5 149t-65.5 245v201q0 92 32 166.5t84 122t120 80t135.5 46t136.5 13.5q75 0 144.5 -13.5t136.5 -45.5t117 -80t80 -122.5t30 -166.5v-205q0 -214 -135.5 -326t-372.5 -112zM600 926q-150 0 -245 -76t-95 -213v-234q0 -141 94 -219t246 -78
q148 0 244 78.5t96 218.5v234q0 140 -96 214.5t-244 74.5z" />
    <glyph glyph-name="p" unicode="p" horiz-adv-x="1216" 
d="M623 1051q231 0 370.5 -113.5t139.5 -316.5v-220q0 -132 -66.5 -229t-177.5 -144.5t-252 -47.5q-113 0 -207.5 28.5t-150.5 75.5v-485h-162v1036q0 195 136 305.5t370 110.5zM623 104q158 0 251 75.5t93 221.5v228q0 141 -94 218t-250 77t-250 -77t-94 -218v-250
q0 -124 95.5 -199.5t248.5 -75.5z" />
    <glyph glyph-name="q" unicode="q" horiz-adv-x="1216" 
d="M594 1051q234 0 370 -110.5t136 -305.5v-1036h-162v485q-56 -47 -150.5 -75.5t-207.5 -28.5q-141 0 -252 47.5t-177.5 144.5t-66.5 229v220q0 203 139.5 316.5t370.5 113.5zM594 104q153 0 248.5 75.5t95.5 199.5v250q0 141 -94 218t-250 77t-250 -77t-94 -218v-228
q0 -146 93 -221.5t251 -75.5z" />
    <glyph glyph-name="r" unicode="r" horiz-adv-x="720" 
d="M295 0h-162v700q0 144 94.5 237t245.5 93h221v-129h-190q-100 0 -154.5 -53t-54.5 -152v-696z" />
    <glyph glyph-name="s" unicode="s" horiz-adv-x="1036" 
d="M528 -20q-129 0 -256 46.5t-213 125.5l105 98q147 -144 371 -144q129 0 203.5 51t74.5 124q0 138 -182 163l-219 29q-138 18 -227 92t-89 197q0 132 123.5 210.5t306.5 78.5q240 0 416 -152l-102 -88q-62 53 -144.5 85t-167.5 32q-130 0 -199 -46t-69 -114t49 -109.5
t158 -56.5l217 -31q293 -44 293 -290q0 -132 -124 -216.5t-325 -84.5z" />
    <glyph glyph-name="t" unicode="t" horiz-adv-x="813" 
d="M227 1374h162v-344h381v-129h-381v-610q0 -160 166 -160h215v-131h-254q-131 0 -210 74t-79 213v614h-202v129h202v344z" />
    <glyph glyph-name="u" unicode="u" horiz-adv-x="1173" 
d="M596 -20q-224 0 -344.5 113t-120.5 321v616h162v-622q0 -141 78 -221.5t225 -80.5q146 0 225.5 81t79.5 221v622h162v-616q0 -209 -119.5 -321.5t-347.5 -112.5z" />
    <glyph glyph-name="v" unicode="v" horiz-adv-x="1159" 
d="M668 0h-170l-478 1030h173l391 -880l391 880h164z" />
    <glyph glyph-name="w" unicode="w" horiz-adv-x="1742" 
d="M1352 0h-183l-292 842l-312 -842h-178l-367 1030h173l286 -872l316 872h163l-2 -6l310 -866l293 872h163z" />
    <glyph glyph-name="x" unicode="x" horiz-adv-x="1116" 
d="M459 524l-406 506h199l309 -397l328 397h192l-415 -502l430 -528h-207l-334 420l-336 -420h-199z" />
    <glyph glyph-name="y" unicode="y" horiz-adv-x="1161" 
d="M414 -121l92 189l-486 962h173l393 -799l387 799h168l-574 -1186q-68 -139 -154.5 -192t-246.5 -53h-98v131h108q85 0 141 32t97 117z" />
    <glyph glyph-name="z" unicode="z" horiz-adv-x="1038" 
d="M981 922l-690 -789h690v-133h-909v109l708 792h-671v129h872v-108z" />
    <glyph glyph-name="braceleft" unicode="{" horiz-adv-x="839" 
d="M197 545h-58v129h58q129 0 129 131v270q0 151 82.5 237.5t242.5 86.5h76v-129h-80q-155 0 -155 -185v-260q0 -77 -37.5 -133t-116.5 -80q75 -19 114.5 -75t39.5 -129v-258q0 -105 35.5 -150t119.5 -45h80v-129h-76q-162 0 -243.5 85t-81.5 247v264q0 54 -36 88.5
t-93 34.5z" />
    <glyph glyph-name="bar" unicode="|" horiz-adv-x="546" 
d="M381 1374v-1632h-166v1632h166z" />
    <glyph glyph-name="braceright" unicode="}" horiz-adv-x="815" 
d="M655 709h58v-129h-58q-129 0 -129 -131v-271q0 -151 -82.5 -237t-242.5 -86h-76v129h80q155 0 155 184v260q0 77 37.5 133t116.5 80q-75 19 -114.5 75.5t-39.5 129.5v258q0 105 -35.5 149.5t-119.5 44.5h-80v129h76q162 0 243.5 -84.5t81.5 -246.5v-265q0 -54 36 -88
t93 -34z" />
    <glyph glyph-name="asciitilde" unicode="~" horiz-adv-x="1277" 
d="M1036 719h140v-86q0 -126 -62.5 -198.5t-163.5 -72.5q-36 0 -74.5 12t-60 23t-65.5 38.5t-58 35.5q-17 9 -59 35.5t-67 40t-65 26.5t-77 13q-68 0 -109 -44t-41 -118v-62h-131v74q0 93 42.5 159t104.5 95t134 29q69 0 135.5 -27.5t145.5 -75.5q12 -7 43 -27.5t44 -28
t38 -22t39.5 -20.5t33 -11t33.5 -5q100 0 100 160v57z" />
    <glyph glyph-name="uni00A0" unicode="&#xa0;" horiz-adv-x="335" 
 />
    <glyph glyph-name="exclamdown" unicode="&#xa1;" horiz-adv-x="602" 
d="M373 590h-142l-12 -934h166zM211 848v182h180v-182h-180z" />
    <glyph glyph-name="cent" unicode="&#xa2;" horiz-adv-x="1247" 
d="M780 1208v-159q95 -10 172 -45t124.5 -84t74.5 -100.5t33 -102.5h-164q-21 74 -81 130.5t-159 74.5v-807q104 19 167.5 87t78.5 152h170q-22 -145 -125.5 -247.5t-290.5 -120.5v-209h-166v211q-191 24 -310.5 142t-119.5 302v168q0 188 117 306.5t313 140.5v161h166z
M352 424q0 -128 70.5 -206t191.5 -101v803q-120 -23 -191 -102.5t-71 -213.5v-180z" />
    <glyph glyph-name="sterling" unicode="&#xa3;" horiz-adv-x="1234" 
d="M1130 0h-978v133h69q55 0 92 30t37 87v409h-198v134h198v206q0 187 118.5 293.5t344.5 106.5q75 0 163.5 -14t147.5 -37v-121q-55 23 -150 38t-165 15q-139 0 -217 -74.5t-78 -208.5v-204h541v-134h-541v-399q0 -89 -43 -127h659v-133z" />
    <glyph glyph-name="currency" unicode="&#xa4;" horiz-adv-x="1476" 
d="M311 987l-135 143l105 101l137 -141q152 114 342 114q205 0 362 -131l144 139l100 -98l-141 -151q94 -137 94 -299q0 -188 -117 -330l152 -168l-101 -94l-161 155q-147 -106 -332 -106q-178 0 -324 100l-149 -162l-107 99l150 159q-129 152 -129 347q0 182 110 323z
M1153 662q0 161 -114.5 277t-278.5 116q-163 0 -279 -116t-116 -277q0 -162 116 -279t279 -117q164 0 278.5 116.5t114.5 279.5z" />
    <glyph glyph-name="yen" unicode="&#xa5;" horiz-adv-x="1351" 
d="M758 399v-397h-166v397h-512v133h504l-105 156h-399v133h311l-371 555h181l475 -714l481 714h174l-373 -555h275v-133h-365l-104 -156h469v-133h-475z" />
    <glyph glyph-name="brokenbar" unicode="&#xa6;" horiz-adv-x="546" 
d="M381 1374v-649h-166v649h166zM381 391v-649h-166v649h166z" />
    <glyph glyph-name="section" unicode="&#xa7;" horiz-adv-x="1353" 
d="M752 299q54 0 111 12.5t111.5 37.5t89 69.5t34.5 101.5q0 72 -62.5 126t-167 81.5t-233.5 26.5q-113 -2 -196 -59.5t-83 -149.5q0 -73 57 -130.5t146.5 -86.5t192.5 -29zM1260 553q0 -117 -82 -207.5t-226 -126.5q63 -19 111.5 -40t93 -50.5t68.5 -69.5t24 -88
q0 -78 -43.5 -142.5t-117 -106.5t-167.5 -64.5t-198 -22.5q-137 0 -253 39.5t-192 122.5t-81 195h161q10 -79 63.5 -133t128.5 -77.5t167 -23.5q94 0 174.5 21.5t131 64t50.5 97.5q0 60 -51 102.5t-178 73.5l-297 67q-180 44 -276.5 128.5t-96.5 224.5q0 107 80 183t215 122
q-260 59 -260 245q0 59 33 113.5t94 99t158 71t215 26.5q247 0 371.5 -91.5t140.5 -246.5h-170q-8 84 -101 150.5t-237 66.5q-160 0 -245 -51t-85 -123q0 -66 65.5 -115t186.5 -74l313 -63q134 -27 223 -102.5t89 -194.5z" />
    <glyph glyph-name="dieresis" unicode="&#xa8;" 
d="M467 1186v188h190v-188h-190zM874 1186v188h191v-188h-191z" />
    <glyph glyph-name="copyright" unicode="&#xa9;" horiz-adv-x="1566" 
d="M979 547l100 -86q-97 -144 -272 -144q-146 0 -244 90t-98 228q0 132 97.5 221.5t236.5 89.5q80 0 149.5 -35.5t118.5 -95.5l-102 -98q-31 44 -69 65t-95 21q-70 0 -126.5 -48.5t-56.5 -119.5q0 -76 56 -127t127 -51q63 0 103 20t75 70zM799 1274q141 0 267.5 -51
t216.5 -137.5t143 -206t53 -252.5q0 -180 -89.5 -329.5t-246 -236t-344.5 -86.5q-191 0 -350.5 86.5t-251 236t-91.5 329.5q0 177 91.5 326t251 235t350.5 86zM797 1133q-231 0 -387 -144.5t-156 -367.5q0 -142 71.5 -258t195.5 -181t276 -65q147 0 268.5 64.5t192.5 182
t71 263.5q0 216 -153 361t-379 145z" />
    <glyph glyph-name="ordfeminine" unicode="&#xaa;" horiz-adv-x="1030" 
d="M901 412h-702v137h702v-137zM575 686q-170 0 -265 67t-95 162t82 154t217 59h236v76q0 67 -54.5 101t-138.5 34q-128 0 -233 -88l-84 82q57 51 142 83t169 32q161 0 249.5 -65t88.5 -179v-434q0 -16 -17 -25q-125 -59 -297 -59zM750 1036h-222q-89 0 -133.5 -31.5
t-44.5 -86.5q0 -59 52.5 -95.5t168.5 -36.5q104 0 179 35v215z" />
    <glyph glyph-name="guillemotleft" unicode="&#xab;" horiz-adv-x="1101" 
d="M375 948h182l-256 -418l256 -411h-182l-264 411zM848 948h182l-256 -418l256 -411h-182l-264 411z" />
    <glyph glyph-name="logicalnot" unicode="&#xac;" horiz-adv-x="1189" 
d="M901 172v328h-729v147h891v-475h-162z" />
    <glyph glyph-name="registered" unicode="&#xae;" horiz-adv-x="1185" 
d="M1092 948q0 -203 -136 -332t-338 -129q-129 0 -238.5 58.5t-175 165t-65.5 237.5q0 124 65 228t174.5 162.5t239.5 58.5q202 0 338 -129t136 -320zM618 588q162 0 262.5 100t100.5 256q0 151 -101.5 250.5t-261.5 99.5q-152 0 -259 -99t-107 -247q0 -154 105.5 -257
t260.5 -103zM799 1034q0 -40 -22.5 -74t-61.5 -51l141 -172h-125l-121 154h-57v-154h-104v439h176q81 0 127.5 -39t46.5 -103zM623 1087h-70v-110h70q29 0 47 15.5t18 39.5t-17.5 39.5t-47.5 15.5z" />
    <glyph glyph-name="macron" unicode="&#xaf;" 
d="M1108 1231h-705v131h705v-131z" />
    <glyph glyph-name="degree" unicode="&#xb0;" horiz-adv-x="970" 
d="M848 1073q0 -140 -101 -236t-245 -96q-141 0 -242.5 96t-101.5 236q0 136 101.5 231t242.5 95q143 0 244.5 -95t101.5 -231zM696 1075q0 81 -56 136t-138 55q-78 0 -134.5 -56t-56.5 -135q0 -85 56 -143t135 -58q83 0 138.5 56.5t55.5 144.5z" />
    <glyph glyph-name="plusminus" unicode="&#xb1;" horiz-adv-x="1144" 
d="M1018 651h-342v-336h-162v336h-342v162h342v320h162v-320h342v-162zM1018 0h-846v162h846v-162z" />
    <glyph glyph-name="acute" unicode="&#xb4;" 
d="M1030 1374l-215 -223h-176l190 223h201z" />
    <glyph glyph-name="mu" unicode="&#xb5;" horiz-adv-x="1226" 
d="M621 -18q-191 0 -304 79v-405h-161v1376h161v-622q0 -140 78.5 -220.5t225.5 -80.5q146 0 225.5 80.5t79.5 220.5v622h161v-616q0 -209 -119 -321.5t-347 -112.5z" />
    <glyph glyph-name="mu" unicode="&#x3bc;" horiz-adv-x="1226" 
d="M621 -18q-191 0 -304 79v-405h-161v1376h161v-622q0 -140 78.5 -220.5t225.5 -80.5q146 0 225.5 80.5t79.5 220.5v622h161v-616q0 -209 -119 -321.5t-347 -112.5z" />
    <glyph glyph-name="paragraph" unicode="&#xb6;" horiz-adv-x="1357" 
d="M686 528h-49q-223 0 -363.5 119t-140.5 311q0 189 139 302.5t365 113.5h215v-1593h-166v747zM1036 -219v1593h168v-1593h-168z" />
    <glyph glyph-name="periodcentered" unicode="&#xb7;" 
d="M670 543v172h190v-172h-190z" />
    <glyph glyph-name="cedilla" unicode="&#xb8;" 
d="M696 -76h174l-184 -268h-192z" />
    <glyph glyph-name="ordmasculine" unicode="&#xba;" horiz-adv-x="911" 
d="M901 412h-702v137h702v-137zM551 686q-163 0 -257.5 80t-94.5 233v144q0 81 32.5 142.5t85.5 95.5t112.5 50.5t121.5 16.5q67 0 126.5 -16.5t111 -50.5t82 -95t30.5 -143v-146q0 -153 -91.5 -232t-258.5 -79zM551 1329q-96 0 -153.5 -49t-57.5 -137v-152q0 -89 58 -140.5
t153 -51.5q93 0 152 51.5t59 140.5v152q0 89 -58.5 137.5t-152.5 48.5z" />
    <glyph glyph-name="guillemotright" unicode="&#xbb;" horiz-adv-x="1083" 
d="M145 948h183l264 -418l-264 -411h-183l256 411zM608 948h183l264 -418l-264 -411h-183l256 411z" />
    <glyph glyph-name="questiondown" unicode="&#xbf;" horiz-adv-x="1191" 
d="M600 -369q217 0 337 95t120 243q0 29 -8.5 59t-16 49.5t-31.5 54t-32 45t-42 50.5t-38 45l-144 177q-45 55 -45 118v78h-165v-80q0 -63 19 -105.5t60 -90.5l129 -152q7 -8 24.5 -28.5t24 -28t21 -25t20 -25l16.5 -22.5t15 -23.5t11 -22t9.5 -23.5t4.5 -22t2 -24
q0 -97 -73 -156t-218 -59q-134 0 -223 85t-90 225h-162q1 -122 57 -220.5t165 -157.5t253 -59zM526 848v182h181v-182h-181z" />
    <glyph glyph-name="Agrave" unicode="&#xc0;" horiz-adv-x="1574" 
d="M858 1374h-176l-662 -1374h175l178 379h813l186 -379h182zM434 512l336 711l350 -711h-686zM678 1464l-182 185h200l158 -185h-176z" />
    <glyph glyph-name="Aacute" unicode="&#xc1;" horiz-adv-x="1574" 
d="M858 1374h-176l-662 -1374h175l178 379h813l186 -379h182zM434 512l336 711l350 -711h-686zM1053 1649l-183 -185h-176l158 185h201z" />
    <glyph glyph-name="Acircumflex" unicode="&#xc2;" horiz-adv-x="1574" 
d="M858 1374h-176l-662 -1374h175l178 379h813l186 -379h182zM434 512l336 711l350 -711h-686zM877 1456l-107 109l-104 -109h-177l162 193h240l162 -193h-176z" />
    <glyph glyph-name="Atilde" unicode="&#xc3;" horiz-adv-x="1574" 
d="M858 1374h-176l-662 -1374h175l178 379h813l186 -379h182zM434 512l336 711l350 -711h-686zM999 1653h134v-35q0 -84 -41 -129t-109 -45q-72 0 -205 65q-63 31 -97.5 42.5t-66.5 11.5q-36 0 -56.5 -21.5t-20.5 -56.5v-27h-127v29q0 83 57.5 131.5t142.5 48.5
q36 0 70.5 -8.5t55 -17.5t61.5 -29q108 -51 145 -51q57 0 57 61v31z" />
    <glyph glyph-name="Adieresis" unicode="&#xc4;" horiz-adv-x="1574" 
d="M682 1374h176l696 -1374h-182l-186 379h-813l-178 -379h-175zM770 1223l-336 -711h686zM471 1475v174h191v-174h-191zM879 1475v174h190v-174h-190z" />
    <glyph glyph-name="Aring" unicode="&#xc5;" horiz-adv-x="1574" 
d="M932 1509q0 -93 -74 -137l696 -1372h-182l-186 379h-813l-178 -379h-175l662 1374h2q-34 19 -54 54.5t-20 80.5q0 66 47.5 111t116.5 45q66 0 112 -45t46 -111zM770 1223l-336 -711h686zM846 1509q0 32 -20.5 52t-51.5 20q-33 0 -54.5 -19.5t-21.5 -52.5
q0 -34 21.5 -53.5t54.5 -19.5q31 0 51.5 20t20.5 53z" />
    <glyph glyph-name="AE" unicode="&#xc6;" horiz-adv-x="2107" 
d="M979 1374h1077v-133h-827v-465h772v-133h-772v-510h827v-133h-991v379h-592l-260 -379h-193zM1047 1212l-484 -700h502v725z" />
    <glyph glyph-name="Ccedilla" unicode="&#xc7;" horiz-adv-x="1411" 
d="M741 -25q-296 0 -462 161.5t-166 441.5v200q0 295 161.5 458t464.5 163q273 0 426.5 -118.5t184.5 -319.5h-179q-36 146 -145.5 227.5t-284.5 81.5q-222 0 -340 -130t-118 -374v-176q0 -233 119 -359.5t341 -126.5q185 0 292 83.5t136 230.5h179q-40 -210 -189.5 -326.5
t-419.5 -116.5zM655 -74h174l-184 -268h-192z" />
    <glyph glyph-name="Egrave" unicode="&#xc8;" horiz-adv-x="1200" 
d="M1149 133h-827v510h772v133h-772v465h827v133h-991v-1374h991v133zM586 1464l-183 185h201l158 -185h-176z" />
    <glyph glyph-name="Eacute" unicode="&#xc9;" horiz-adv-x="1200" 
d="M1149 133h-827v510h772v133h-772v465h827v133h-991v-1374h991v133zM913 1649l-182 -185h-176l158 185h200z" />
    <glyph glyph-name="Ecircumflex" unicode="&#xca;" horiz-adv-x="1200" 
d="M1149 133h-827v510h772v133h-772v465h827v133h-991v-1374h991v133zM764 1456l-107 109l-104 -109h-176l162 193h239l162 -193h-176z" />
    <glyph glyph-name="Edieresis" unicode="&#xcb;" horiz-adv-x="1200" 
d="M322 133h827v-133h-991v1374h991v-133h-827v-465h772v-133h-772v-510zM362 1475v174h191v-174h-191zM770 1475v174h191v-174h-191z" />
    <glyph glyph-name="Igrave" unicode="&#xcc;" horiz-adv-x="534" 
d="M350 0v1374h-166v-1374h166zM170 1464l-182 185h200l158 -185h-176z" />
    <glyph glyph-name="Iacute" unicode="&#xcd;" horiz-adv-x="534" 
d="M350 0v1374h-166v-1374h166zM545 1649l-183 -185h-176l158 185h201z" />
    <glyph glyph-name="Icircumflex" unicode="&#xce;" horiz-adv-x="534" 
d="M350 0v1374h-166v-1374h166zM373 1456l-107 109l-104 -109h-176l161 193h240l162 -193h-176z" />
    <glyph glyph-name="Idieresis" unicode="&#xcf;" horiz-adv-x="534" 
d="M350 1374v-1374h-166v1374h166zM-33 1475v174h191v-174h-191zM375 1475v174h190v-174h-190z" />
    <glyph glyph-name="Eth" unicode="&#xd0;" horiz-adv-x="1640" 
d="M362 1374h498q346 0 528.5 -158.5t182.5 -457.5v-133q0 -136 -47 -250.5t-135 -198t-224 -130t-305 -46.5h-498v643h-253v131h253v600zM813 643h-287v-510h342q242 0 387.5 125.5t145.5 366.5v143q0 228 -146 350.5t-387 122.5h-342v-467h287v-131z" />
    <glyph glyph-name="Ntilde" unicode="&#xd1;" horiz-adv-x="1546" 
d="M1384 0v1374h-159v-1116l-889 1116h-164v-1374h160v1130l897 -1130h155zM1016 1653h133v-35q0 -84 -41 -129t-109 -45q-71 0 -204 65q-63 31 -97.5 42.5t-66.5 11.5q-36 0 -57 -22t-21 -56v-27h-127v29q0 83 58 131.5t143 48.5q36 0 70.5 -8.5t54 -17t61.5 -29.5
q108 -51 145 -51q58 0 58 61v31z" />
    <glyph glyph-name="Ograve" unicode="&#xd2;" horiz-adv-x="1445" 
d="M627 1464l-183 185h201l158 -185h-176zM723 1399q-129 0 -235 -31.5t-178.5 -86.5t-122 -131.5t-72.5 -166t-23 -190.5v-199q0 -281 164 -450t467 -169q157 0 278.5 45t198 128t115.5 195.5t39 250.5v199q0 127 -38 235t-112.5 192t-198 131.5t-282.5 47.5zM725 106
q-463 0 -463 506v162q0 231 115 362.5t348 131.5q121 0 210 -35t143 -101t80 -155t26 -203v-162q0 -506 -459 -506z" />
    <glyph glyph-name="Oacute" unicode="&#xd3;" horiz-adv-x="1445" 
d="M985 1649l-182 -185h-176l157 185h201zM723 1399q-129 0 -235 -31.5t-178.5 -86.5t-122 -131.5t-72.5 -166t-23 -190.5v-199q0 -281 164 -450t467 -169q157 0 278.5 45t198 128t115.5 195.5t39 250.5v199q0 127 -38 235t-112.5 192t-198 131.5t-282.5 47.5zM725 106
q-463 0 -463 506v162q0 231 115 362.5t348 131.5q121 0 210 -35t143 -101t80 -155t26 -203v-162q0 -506 -459 -506z" />
    <glyph glyph-name="Ocircumflex" unicode="&#xd4;" horiz-adv-x="1445" 
d="M723 1399q-129 0 -235 -31.5t-178.5 -86.5t-122 -131.5t-72.5 -166t-23 -190.5v-199q0 -281 164 -450t467 -169q157 0 278.5 45t198 128t115.5 195.5t39 250.5v199q0 127 -38 235t-112.5 192t-198 131.5t-282.5 47.5zM725 106q-463 0 -463 506v162q0 231 115 362.5
t348 131.5q121 0 210 -35t143 -101t80 -155t26 -203v-162q0 -506 -459 -506zM844 1649l162 -193h-177l-106 109l-105 -109h-176l162 193h240z" />
    <glyph glyph-name="Otilde" unicode="&#xd5;" horiz-adv-x="1445" 
d="M723 1399q-129 0 -235 -31.5t-178.5 -86.5t-122 -131.5t-72.5 -166t-23 -190.5v-199q0 -281 164 -450t467 -169q157 0 278.5 45t198 128t115.5 195.5t39 250.5v199q0 127 -38 235t-112.5 192t-198 131.5t-282.5 47.5zM725 106q-463 0 -463 506v162q0 231 115 362.5
t348 131.5q121 0 210 -35t143 -101t80 -155t26 -203v-162q0 -506 -459 -506zM948 1653h133v-35q0 -84 -40.5 -129t-108.5 -45q-72 0 -205 65q-63 31 -97.5 42.5t-66.5 11.5q-36 0 -57 -22t-21 -56v-27h-127v29q0 83 58 131.5t143 48.5q36 0 70.5 -8.5t54 -17t61.5 -29.5
q108 -51 146 -51q57 0 57 61v31z" />
    <glyph glyph-name="Odieresis" unicode="&#xd6;" horiz-adv-x="1445" 
d="M723 1399q159 0 282.5 -47.5t198 -131.5t112.5 -192t38 -235v-199q0 -138 -39 -250.5t-115.5 -195.5t-198 -128t-278.5 -45q-303 0 -467 169t-164 450v199q0 101 23 190.5t72.5 166t122 131.5t178.5 86.5t235 31.5zM725 106q459 0 459 506v162q0 114 -26 203t-80 155
t-143 101t-210 35q-233 0 -348 -131.5t-115 -362.5v-162q0 -506 463 -506zM422 1475v174h190v-174h-190zM829 1475v174h191v-174h-191z" />
    <glyph glyph-name="multiply" unicode="&#xd7;" horiz-adv-x="1116" 
d="M279 891l319 -322l320 322l116 -113l-323 -321l340 -340l-115 -111l-338 336l-338 -336l-115 111l338 340l-321 321z" />
    <glyph glyph-name="Oslash" unicode="&#xd8;" horiz-adv-x="1445" 
d="M1036 1337l72 111h180l-125 -191q191 -165 191 -464v-199q0 -138 -39 -250.5t-115.5 -195.5t-198 -128t-278.5 -45q-200 0 -344 78l-119 -184h-184l180 274q-164 167 -164 451v199q0 101 23 190.5t72.5 166t122 131.5t178.5 86.5t235 31.5q176 0 313 -62zM725 106
q459 0 459 506v162q0 229 -105 354l-624 -958q104 -64 270 -64zM725 1268q-233 0 -348 -131.5t-115 -362.5v-162q0 -214 80 -336l616 945q-96 47 -233 47z" />
    <glyph glyph-name="Ugrave" unicode="&#xd9;" horiz-adv-x="1445" 
d="M643 1464l-182 185h201l157 -185h-176zM1153 1374v-876q0 -97 -34.5 -173.5t-93.5 -123.5t-133.5 -71t-158.5 -24q-118 0 -211.5 41t-152 131.5t-58.5 219.5v876h-161v-882q0 -237 157 -377t426 -140q268 0 425 140t157 377v882h-162z" />
    <glyph glyph-name="Uacute" unicode="&#xda;" horiz-adv-x="1445" 
d="M1153 1374v-876q0 -97 -34.5 -173.5t-93.5 -123.5t-133.5 -71t-158.5 -24q-118 0 -211.5 41t-152 131.5t-58.5 219.5v876h-161v-882q0 -237 157 -377t426 -140q268 0 425 140t157 377v882h-162zM993 1649l-182 -185h-176l158 185h200z" />
    <glyph glyph-name="Ucircumflex" unicode="&#xdb;" horiz-adv-x="1445" 
d="M1153 1374v-876q0 -97 -34.5 -173.5t-93.5 -123.5t-133.5 -71t-158.5 -24q-118 0 -211.5 41t-152 131.5t-58.5 219.5v876h-161v-882q0 -237 157 -377t426 -140q268 0 425 140t157 377v882h-162zM854 1649l162 -193h-176l-107 109l-104 -109h-176l161 193h240z" />
    <glyph glyph-name="Udieresis" unicode="&#xdc;" horiz-adv-x="1445" 
d="M1153 498v876h162v-882q0 -237 -157 -377t-425 -140q-269 0 -426 140t-157 377v882h161v-876q0 -129 58.5 -219.5t152 -131.5t211.5 -41q84 0 158.5 24t133.5 71t93.5 123.5t34.5 173.5zM434 1475v174h191v-174h-191zM842 1475v174h190v-174h-190z" />
    <glyph glyph-name="Yacute" unicode="&#xdd;" horiz-adv-x="1351" 
d="M758 0v520l573 854h-174l-481 -715l-475 715h-181l572 -854v-520h166zM948 1649l-182 -185h-176l158 185h200z" />
    <glyph glyph-name="Thorn" unicode="&#xde;" horiz-adv-x="1296" 
d="M346 1374h350q245 0 386 -118t141 -343q0 -201 -143 -317.5t-384 -116.5h-350v-479h-164v1649h164v-275zM1055 913q0 146 -92 237t-263 91h-354v-629h354q171 0 263 84t92 217z" />
    <glyph glyph-name="germandbls" unicode="&#xdf;" horiz-adv-x="1388" 
d="M1059 520q136 -19 213.5 -85t77.5 -173q0 -90 -57.5 -156t-151 -98.5t-209.5 -32.5q-107 0 -216 39t-190 115l107 104q131 -131 309 -131q103 0 172.5 40.5t69.5 111.5q0 46 -43.5 86.5t-134.5 52.5l-187 29q-116 18 -188 79.5t-72 157.5q0 87 52 150t145 96l159 58
q84 30 133 66.5t48 90.5q-1 73 -92 115.5t-240 42.5q-205 0 -321.5 -112.5t-116.5 -319.5v-846h-166v840q0 266 157 412.5t449 146.5q118 0 216 -26t158 -68t93 -91t33 -98q0 -95 -48 -150.5t-153 -93.5l-176 -63q-78 -27 -121 -58t-43 -77t40.5 -81.5t113.5 -45.5z" />
    <glyph glyph-name="agrave" unicode="&#xe0;" horiz-adv-x="1128" 
d="M504 1151l-215 223h200l191 -223h-176zM598 -20q227 0 403 83q25 13 25 35v611q0 160 -119 251t-342 91q-119 0 -238.5 -44.5t-199.5 -115.5l109 -90q141 121 325 121q142 0 222.5 -56.5t80.5 -156.5v-107h-350q-191 0 -305.5 -83.5t-114.5 -217.5q0 -133 133.5 -227
t370.5 -94zM522 481h342v-321q-114 -54 -268 -54q-175 0 -258.5 56t-83.5 143q0 79 69 127.5t199 48.5z" />
    <glyph glyph-name="aacute" unicode="&#xe1;" horiz-adv-x="1128" 
d="M598 -20q227 0 403 83q25 13 25 35v611q0 160 -119 251t-342 91q-119 0 -238.5 -44.5t-199.5 -115.5l109 -90q141 121 325 121q142 0 222.5 -56.5t80.5 -156.5v-107h-350q-191 0 -305.5 -83.5t-114.5 -217.5q0 -133 133.5 -227t370.5 -94zM522 481h342v-321
q-114 -54 -268 -54q-175 0 -258.5 56t-83.5 143q0 79 69 127.5t199 48.5zM918 1374l-216 -223h-176l191 223h201z" />
    <glyph glyph-name="acircumflex" unicode="&#xe2;" horiz-adv-x="1128" 
d="M598 -20q227 0 403 83q25 13 25 35v611q0 160 -119 251t-342 91q-119 0 -238.5 -44.5t-199.5 -115.5l109 -90q141 121 325 121q142 0 222.5 -56.5t80.5 -156.5v-107h-350q-191 0 -305.5 -83.5t-114.5 -217.5q0 -133 133.5 -227t370.5 -94zM522 481h342v-321
q-114 -54 -268 -54q-175 0 -258.5 56t-83.5 143q0 79 69 127.5t199 48.5zM743 1137l-143 147l-141 -147h-176l204 237h228l205 -237h-177z" />
    <glyph glyph-name="atilde" unicode="&#xe3;" horiz-adv-x="1128" 
d="M598 -20q227 0 403 83q25 13 25 35v611q0 160 -119 251t-342 91q-119 0 -238.5 -44.5t-199.5 -115.5l109 -90q141 121 325 121q142 0 222.5 -56.5t80.5 -156.5v-107h-350q-191 0 -305.5 -83.5t-114.5 -217.5q0 -133 133.5 -227t370.5 -94zM522 481h342v-321
q-114 -54 -268 -54q-175 0 -258.5 56t-83.5 143q0 79 69 127.5t199 48.5zM817 1374h125v-53q0 -90 -38 -138t-103 -48q-39 0 -82 15.5t-113 53.5q-9 5 -29 16t-26 14t-19.5 10t-19.5 8.5t-16.5 5t-19.5 4t-19 0.5q-39 0 -59.5 -23t-20.5 -61v-43h-121v45q0 89 56 141.5
t137 52.5q26 0 47 -3.5t47.5 -15t36 -16t45.5 -24.5q10 -5 27.5 -14.5t25 -13.5t20 -10t19 -9t15 -6t15 -4t13.5 -1q57 0 57 68v49z" />
    <glyph glyph-name="adieresis" unicode="&#xe4;" horiz-adv-x="1128" 
d="M598 -20q-237 0 -370.5 94t-133.5 227q0 134 114.5 217.5t305.5 83.5h350v107q0 100 -80.5 156.5t-222.5 56.5q-184 0 -325 -121l-109 90q80 71 199.5 115.5t238.5 44.5q223 0 342 -91t119 -251v-611q0 -22 -25 -35q-176 -83 -403 -83zM864 481h-342q-130 0 -199 -48.5
t-69 -127.5q0 -87 83.5 -143t258.5 -56q154 0 268 54v321zM299 1186v188h190v-188h-190zM707 1186v188h190v-188h-190z" />
    <glyph glyph-name="aring" unicode="&#xe5;" horiz-adv-x="1128" 
d="M598 -20q-237 0 -370.5 94t-133.5 227q0 134 114.5 217.5t305.5 83.5h350v107q0 100 -80.5 156.5t-222.5 56.5q-184 0 -325 -121l-109 90q80 71 199.5 115.5t238.5 44.5q223 0 342 -91t119 -251v-611q0 -22 -25 -35q-176 -83 -403 -83zM864 481h-342q-130 0 -199 -48.5
t-69 -127.5q0 -87 83.5 -143t258.5 -56q154 0 268 54v321zM748 1264q0 -71 -45.5 -114.5t-112.5 -43.5q-70 0 -117 43.5t-47 114.5q0 66 47.5 110.5t116.5 44.5q66 0 112 -44.5t46 -110.5zM662 1264q0 32 -20.5 51.5t-51.5 19.5q-33 0 -54.5 -19t-21.5 -52q0 -34 21.5 -54
t54.5 -20q31 0 51.5 20.5t20.5 53.5z" />
    <glyph glyph-name="ae" unicode="&#xe6;" horiz-adv-x="1970" 
d="M1405 -20q-138 0 -250 46t-184 134q-148 -168 -373 -180q-229 -11 -366.5 87.5t-137.5 233.5q0 134 114.5 217.5t305.5 83.5h350v107q0 100 -80.5 156.5t-222.5 56.5q-184 0 -325 -121l-109 90q80 71 199.5 115.5t238.5 44.5q153 0 258.5 -44.5t155.5 -125.5
q69 81 169.5 125.5t223.5 44.5q238 0 372 -132.5t134 -361.5v-92h-846v-21q0 -151 104.5 -244.5t268.5 -93.5q111 0 200.5 42.5t149.5 111.5l109 -94q-83 -87 -200.5 -136.5t-258.5 -49.5zM864 481h-342q-130 0 -199 -48.5t-69 -127.5q0 -87 89.5 -147t246.5 -47
q147 12 239 100q20 20 27.5 35.5t7.5 40.5v194zM1372 926q-147 0 -243.5 -93.5t-96.5 -232.5v-8h680v12q0 139 -91.5 230.5t-248.5 91.5z" />
    <glyph glyph-name="ccedilla" unicode="&#xe7;" horiz-adv-x="1136" 
d="M621 1051q93 0 171.5 -21.5t132 -56t92.5 -79.5t59 -90t26 -89h-164q-25 89 -102 150t-211 61q-157 0 -256 -82t-99 -242v-180q0 -153 99.5 -234.5t261.5 -81.5q134 0 215 73.5t98 172.5h170q-11 -75 -44.5 -139t-90.5 -117.5t-147.5 -84.5t-204.5 -31
q-148 0 -266.5 52.5t-188.5 156t-70 241.5v168q0 209 143.5 331t375.5 122zM539 -74h174l-185 -268h-192z" />
    <glyph glyph-name="egrave" unicode="&#xe8;" horiz-adv-x="1187" 
d="M623 -20q141 0 258 49.5t200 136.5l-108 94q-60 -69 -149.5 -111.5t-200.5 -42.5q-164 0 -268.5 93.5t-104.5 244.5v21h846v92q0 229 -134 361.5t-372 132.5q-226 0 -367 -142.5t-141 -365.5v-68q0 -227 150.5 -361t390.5 -134zM590 926q157 0 248.5 -91.5t91.5 -230.5
v-12h-680v8q0 139 96.5 232.5t243.5 93.5zM514 1151l-215 223h201l190 -223h-176z" />
    <glyph glyph-name="eacute" unicode="&#xe9;" horiz-adv-x="1187" 
d="M623 -20q141 0 258 49.5t200 136.5l-108 94q-60 -69 -149.5 -111.5t-200.5 -42.5q-164 0 -268.5 93.5t-104.5 244.5v21h846v92q0 229 -134 361.5t-372 132.5q-226 0 -367 -142.5t-141 -365.5v-68q0 -227 150.5 -361t390.5 -134zM590 926q157 0 248.5 -91.5t91.5 -230.5
v-12h-680v8q0 139 96.5 232.5t243.5 93.5zM909 1374l-215 -223h-176l191 223h200z" />
    <glyph glyph-name="ecircumflex" unicode="&#xea;" horiz-adv-x="1187" 
d="M623 -20q141 0 258 49.5t200 136.5l-108 94q-60 -69 -149.5 -111.5t-200.5 -42.5q-164 0 -268.5 93.5t-104.5 244.5v21h846v92q0 229 -134 361.5t-372 132.5q-226 0 -367 -142.5t-141 -365.5v-68q0 -227 150.5 -361t390.5 -134zM590 926q157 0 248.5 -91.5t91.5 -230.5
v-12h-680v8q0 139 96.5 232.5t243.5 93.5zM715 1374l205 -237h-177l-143 147l-141 -147h-176l204 237h228z" />
    <glyph glyph-name="edieresis" unicode="&#xeb;" horiz-adv-x="1187" 
d="M623 -20q-240 0 -390.5 134t-150.5 361v68q0 223 141 365.5t367 142.5q238 0 372 -132.5t134 -361.5v-92h-846v-21q0 -151 104.5 -244.5t268.5 -93.5q111 0 200.5 42.5t149.5 111.5l108 -94q-83 -87 -200 -136.5t-258 -49.5zM590 926q-147 0 -243.5 -93.5t-96.5 -232.5
v-8h680v12q0 139 -91.5 230.5t-248.5 91.5zM301 1186v188h191v-188h-191zM709 1186v188h190v-188h-190z" />
    <glyph glyph-name="igrave" unicode="&#xec;" horiz-adv-x="501" 
d="M170 1030v-1030h162v1030h-162zM160 1151l-215 223h200l191 -223h-176z" />
    <glyph glyph-name="iacute" unicode="&#xed;" horiz-adv-x="501" 
d="M170 1030v-1030h162v1030h-162zM555 1374l-215 -223h-176l190 223h201z" />
    <glyph glyph-name="icircumflex" unicode="&#xee;" horiz-adv-x="501" 
d="M170 1030v-1030h162v1030h-162zM362 1374l205 -237h-176l-143 147l-142 -147h-176l205 237h227z" />
    <glyph glyph-name="idieresis" unicode="&#xef;" horiz-adv-x="501" 
d="M170 0v1030h162v-1030h-162zM-47 1186v188h190v-188h-190zM360 1186v188h191v-188h-191z" />
    <glyph glyph-name="eth" unicode="&#xf0;" horiz-adv-x="1255" 
d="M637 1374l61 -90l146 64l55 -123l-121 -54l252 -360q70 -99 100.5 -187t30.5 -194q0 -132 -70 -237t-188 -161.5t-260 -56.5q-230 0 -376 130t-146 327q0 145 70.5 250.5t187 157t264.5 51.5q113 0 184 -35l-188 254l-285 -123l-57 123l260 113l-111 151h191zM281 432
q0 -151 104 -238.5t258 -87.5q151 0 252.5 88t101.5 240t-98.5 241t-255.5 89q-168 0 -265 -89t-97 -243z" />
    <glyph glyph-name="ntilde" unicode="&#xf1;" horiz-adv-x="1224" 
d="M950 0h162v621q0 198 -122 314t-341 116q-207 0 -364 -131l-21 110h-131v-1030h162v627q0 130 97.5 214.5t236.5 84.5q148 0 234.5 -84.5t86.5 -225.5v-616zM842 1374h125v-53q0 -90 -38.5 -138t-103.5 -48q-39 0 -81 15.5t-113 53.5q-8 4 -25.5 14t-23.5 13t-18.5 9.5
t-18 8.5t-15 5.5t-16.5 4.5t-15.5 2t-17.5 1q-39 0 -59.5 -23t-20.5 -61v-43h-120v45q0 89 55.5 141.5t136.5 52.5q26 0 47 -3.5t47.5 -15t36 -16t45.5 -24.5q10 -5 27.5 -14.5t25 -13.5t20 -10t19 -9t15 -6t15 -4t13.5 -1q58 0 58 68v49z" />
    <glyph glyph-name="ograve" unicode="&#xf2;" horiz-adv-x="1200" 
d="M520 1151l-215 223h201l190 -223h-176zM600 -20q237 0 372.5 112t135.5 326v205q0 92 -30 166.5t-80 122.5t-117 80t-136.5 45.5t-144.5 13.5q-69 0 -136.5 -13.5t-135.5 -46t-120 -80t-84 -122t-32 -166.5v-201q0 -144 65.5 -245t178.5 -149t264 -48zM600 926
q148 0 244 -74.5t96 -214.5v-234q0 -140 -96 -218.5t-244 -78.5q-152 0 -246 78t-94 219v234q0 137 95 213t245 76z" />
    <glyph glyph-name="oacute" unicode="&#xf3;" horiz-adv-x="1200" 
d="M600 -20q237 0 372.5 112t135.5 326v205q0 92 -30 166.5t-80 122.5t-117 80t-136.5 45.5t-144.5 13.5q-69 0 -136.5 -13.5t-135.5 -46t-120 -80t-84 -122t-32 -166.5v-201q0 -144 65.5 -245t178.5 -149t264 -48zM600 926q148 0 244 -74.5t96 -214.5v-234
q0 -140 -96 -218.5t-244 -78.5q-152 0 -246 78t-94 219v234q0 137 95 213t245 76zM915 1374l-215 -223h-176l191 223h200z" />
    <glyph glyph-name="ocircumflex" unicode="&#xf4;" horiz-adv-x="1200" 
d="M600 -20q237 0 372.5 112t135.5 326v205q0 92 -30 166.5t-80 122.5t-117 80t-136.5 45.5t-144.5 13.5q-69 0 -136.5 -13.5t-135.5 -46t-120 -80t-84 -122t-32 -166.5v-201q0 -144 65.5 -245t178.5 -149t264 -48zM600 926q148 0 244 -74.5t96 -214.5v-234
q0 -140 -96 -218.5t-244 -78.5q-152 0 -246 78t-94 219v234q0 137 95 213t245 76zM727 1374l205 -237h-176l-144 147l-141 -147h-176l205 237h227z" />
    <glyph glyph-name="otilde" unicode="&#xf5;" horiz-adv-x="1200" 
d="M829 1374h125v-53q0 -90 -38 -138t-103 -48q-39 0 -82 15.5t-113 53.5q-9 5 -29 16t-26 14t-19.5 10t-19.5 8.5t-16.5 5t-19.5 4t-19 0.5q-39 0 -59.5 -23t-20.5 -61v-43h-121v45q0 89 56 141.5t137 52.5q26 0 47 -3.5t47.5 -15t36 -16t45.5 -24.5q10 -5 27.5 -14.5
t25 -13.5t20 -10t19 -9t15 -6t15 -4t13.5 -1q57 0 57 68v49zM600 -20q237 0 372.5 112t135.5 326v205q0 92 -30 166.5t-80 122.5t-117 80t-136.5 45.5t-144.5 13.5q-69 0 -136.5 -13.5t-135.5 -46t-120 -80t-84 -122t-32 -166.5v-201q0 -144 65.5 -245t178.5 -149t264 -48z
M600 926q148 0 244 -74.5t96 -214.5v-234q0 -140 -96 -218.5t-244 -78.5q-152 0 -246 78t-94 219v234q0 137 95 213t245 76z" />
    <glyph glyph-name="odieresis" unicode="&#xf6;" horiz-adv-x="1200" 
d="M600 -20q-151 0 -264 48t-178.5 149t-65.5 245v201q0 92 32 166.5t84 122t120 80t135.5 46t136.5 13.5q75 0 144.5 -13.5t136.5 -45.5t117 -80t80 -122.5t30 -166.5v-205q0 -214 -135.5 -326t-372.5 -112zM600 926q-150 0 -245 -76t-95 -213v-234q0 -141 94 -219t246 -78
q148 0 244 78.5t96 218.5v234q0 140 -96 214.5t-244 74.5zM311 1186v188h191v-188h-191zM719 1186v188h190v-188h-190z" />
    <glyph glyph-name="divide" unicode="&#xf7;" horiz-adv-x="1171" 
d="M518 821v183h180v-183h-180zM518 43v182h180v-182h-180zM1044 444h-872v162h872v-162z" />
    <glyph glyph-name="oslash" unicode="&#xf8;" horiz-adv-x="1200" 
d="M600 -20q-133 0 -231 36l-93 -141h-184l141 215q-141 116 -141 332v201q0 92 32 166.5t84 122t120 80t135.5 46t136.5 13.5q126 0 236 -39l63 96h180l-112 -170q141 -114 141 -315v-205q0 -214 -135.5 -326t-372.5 -112zM600 926q-150 0 -245 -76t-95 -213v-234
q0 -110 57 -182l445 676q-79 29 -162 29zM600 106q148 0 244 78.5t96 218.5v234q0 104 -55 172l-441 -676q68 -27 156 -27z" />
    <glyph glyph-name="ugrave" unicode="&#xf9;" horiz-adv-x="1173" 
d="M514 1151l-215 223h201l190 -223h-176zM596 -20q228 0 347.5 112.5t119.5 321.5v616h-162v-622q0 -140 -79.5 -221t-225.5 -81q-147 0 -225 80.5t-78 221.5v622h-162v-616q0 -208 120.5 -321t344.5 -113z" />
    <glyph glyph-name="uacute" unicode="&#xfa;" horiz-adv-x="1173" 
d="M901 1374l-215 -223h-176l190 223h201zM596 -20q228 0 347.5 112.5t119.5 321.5v616h-162v-622q0 -140 -79.5 -221t-225.5 -81q-147 0 -225 80.5t-78 221.5v622h-162v-616q0 -208 120.5 -321t344.5 -113z" />
    <glyph glyph-name="ucircumflex" unicode="&#xfb;" horiz-adv-x="1173" 
d="M596 -20q228 0 347.5 112.5t119.5 321.5v616h-162v-622q0 -140 -79.5 -221t-225.5 -81q-147 0 -225 80.5t-78 221.5v622h-162v-616q0 -208 120.5 -321t344.5 -113zM743 1137l-143 147l-141 -147h-176l204 237h228l205 -237h-177z" />
    <glyph glyph-name="udieresis" unicode="&#xfc;" horiz-adv-x="1173" 
d="M299 1186v188h190v-188h-190zM707 1186v188h190v-188h-190zM596 -20q-224 0 -344.5 113t-120.5 321v616h162v-622q0 -141 78 -221.5t225 -80.5q146 0 225.5 81t79.5 221v622h162v-616q0 -209 -119.5 -321.5t-347.5 -112.5z" />
    <glyph glyph-name="yacute" unicode="&#xfd;" horiz-adv-x="1161" 
d="M414 -121l92 189l-486 962h173l393 -799l387 799h168l-574 -1186q-68 -139 -154.5 -192t-246.5 -53h-98v131h108q85 0 141 32t97 117zM897 1374l-215 -223h-176l190 223h201z" />
    <glyph glyph-name="thorn" unicode="&#xfe;" horiz-adv-x="1228" 
d="M336 -340h-162v1714h162v-428q56 47 151 76t207 29q141 0 252 -48t177.5 -145t66.5 -229v-219q0 -203 -139.5 -316.5t-370.5 -113.5q-213 0 -344 90v-410zM680 926q-153 0 -248.5 -75.5t-95.5 -199.5v-250q0 -141 94 -218t250 -77t250 77t94 218v228q0 146 -93 221.5
t-251 75.5z" />
    <glyph glyph-name="ydieresis" unicode="&#xff;" horiz-adv-x="1161" 
d="M414 -121l92 189l-486 962h173l393 -799l387 799h168l-574 -1186q-68 -139 -154.5 -192t-246.5 -53h-98v131h108q85 0 141 32t97 117zM678 1186v188h190v-188h-190zM270 1186v188h191v-188h-191z" />
    <glyph glyph-name="Amacron" unicode="&#x100;" horiz-adv-x="1574" 
d="M858 1374h-176l-662 -1374h175l178 379h813l186 -379h182zM434 512l336 711l350 -711h-686zM1124 1518h-704v131h704v-131z" />
    <glyph glyph-name="amacron" unicode="&#x101;" horiz-adv-x="1128" 
d="M598 -20q227 0 403 83q25 13 25 35v611q0 160 -119 251t-342 91q-119 0 -238.5 -44.5t-199.5 -115.5l109 -90q141 121 325 121q142 0 222.5 -56.5t80.5 -156.5v-107h-350q-191 0 -305.5 -83.5t-114.5 -217.5q0 -133 133.5 -227t370.5 -94zM522 481h342v-321
q-114 -54 -268 -54q-175 0 -258.5 56t-83.5 143q0 79 69 127.5t199 48.5zM950 1231h-704v131h704v-131z" />
    <glyph glyph-name="Abreve" unicode="&#x102;" horiz-adv-x="1574" 
d="M858 1374h-176l-662 -1374h175l178 379h813l186 -379h182zM434 512l336 711l350 -711h-686zM774 1448q-138 0 -214.5 56t-86.5 145h141q13 -101 160 -101q141 0 156 101h139q-6 -89 -81 -145t-214 -56z" />
    <glyph glyph-name="abreve" unicode="&#x103;" horiz-adv-x="1128" 
d="M598 -20q227 0 403 83q25 13 25 35v611q0 160 -119 251t-342 91q-119 0 -238.5 -44.5t-199.5 -115.5l109 -90q141 121 325 121q142 0 222.5 -56.5t80.5 -156.5v-107h-350q-191 0 -305.5 -83.5t-114.5 -217.5q0 -133 133.5 -227t370.5 -94zM522 481h342v-321
q-114 -54 -268 -54q-175 0 -258.5 56t-83.5 143q0 79 69 127.5t199 48.5zM598 1128q-144 0 -217.5 69.5t-83.5 176.5h137q9 -139 164 -139q66 0 110 36.5t50 102.5h135q-7 -107 -78.5 -176.5t-216.5 -69.5z" />
    <glyph glyph-name="Aogonek" unicode="&#x104;" horiz-adv-x="1607" 
d="M1737 -342h-164q-107 0 -168.5 49.5t-61.5 132.5q0 85 52 162l-185 377h-813l-178 -379h-174l662 1374h176l696 -1374h-51q-39 -52 -39 -123q0 -47 27 -71.5t71 -24.5h150v-123zM795 1223l-336 -711h686z" />
    <glyph glyph-name="aogonek" unicode="&#x105;" horiz-adv-x="1128" 
d="M1077 -344h-164q-107 0 -168 49.5t-61 132.5q0 82 45 150q-86 -8 -131 -8q-237 0 -370.5 94t-133.5 227q0 134 114.5 217.5t305.5 83.5h350v107q0 100 -80.5 156.5t-222.5 56.5q-184 0 -325 -121l-109 90q80 71 199.5 115.5t238.5 44.5q223 0 342 -91t119 -251v-611
q0 -22 -25 -35q-62 -28 -112 -43q-60 -60 -60 -145q0 -47 27.5 -71.5t71.5 -24.5h149v-123zM864 481h-342q-130 0 -199 -48.5t-69 -127.5q0 -87 83.5 -143t258.5 -56q154 0 268 54v321z" />
    <glyph glyph-name="Cacute" unicode="&#x106;" horiz-adv-x="1411" 
d="M1008 1649l-183 -185h-176l158 185h201zM741 -25q270 0 419.5 116.5t189.5 326.5h-179q-29 -147 -136 -230.5t-292 -83.5q-222 0 -341 126.5t-119 359.5v176q0 244 118 374t340 130q175 0 284.5 -81.5t145.5 -227.5h179q-31 201 -184.5 319.5t-426.5 118.5
q-303 0 -464.5 -163t-161.5 -458v-200q0 -280 166 -441.5t462 -161.5z" />
    <glyph glyph-name="cacute" unicode="&#x107;" horiz-adv-x="1148" 
d="M621 1051q93 0 171.5 -21.5t132 -56t92.5 -79.5t59 -90t26 -89h-164q-25 89 -102 150t-211 61q-157 0 -256 -82t-99 -242v-180q0 -153 99.5 -234.5t261.5 -81.5q134 0 215 73.5t98 172.5h170q-11 -75 -44.5 -139t-90.5 -117.5t-147.5 -84.5t-204.5 -31
q-148 0 -266.5 52.5t-188.5 156t-70 241.5v168q0 209 143.5 331t375.5 122zM930 1374l-215 -223h-176l190 223h201z" />
    <glyph glyph-name="Ccircumflex" unicode="&#x108;" horiz-adv-x="1411" 
d="M741 -25q270 0 419.5 116.5t189.5 326.5h-179q-29 -147 -136 -230.5t-292 -83.5q-222 0 -341 126.5t-119 359.5v176q0 244 118 374t340 130q175 0 284.5 -81.5t145.5 -227.5h179q-31 201 -184.5 319.5t-426.5 118.5q-303 0 -464.5 -163t-161.5 -458v-200
q0 -280 166 -441.5t462 -161.5zM864 1649l162 -193h-176l-107 109l-104 -109h-176l162 193h239z" />
    <glyph glyph-name="ccircumflex" unicode="&#x109;" horiz-adv-x="1142" 
d="M621 1051q93 0 171.5 -21.5t132 -56t92.5 -79.5t59 -90t26 -89h-164q-25 89 -102 150t-211 61q-157 0 -256 -82t-99 -242v-180q0 -153 99.5 -234.5t261.5 -81.5q134 0 215 73.5t98 172.5h170q-11 -75 -44.5 -139t-90.5 -117.5t-147.5 -84.5t-204.5 -31
q-148 0 -266.5 52.5t-188.5 156t-70 241.5v168q0 209 143.5 331t375.5 122zM735 1374l205 -237h-176l-143 147l-142 -147h-176l205 237h227z" />
    <glyph glyph-name="Cdotaccent" unicode="&#x10a;" horiz-adv-x="1411" 
d="M741 -25q-296 0 -462 161.5t-166 441.5v200q0 295 161.5 458t464.5 163q273 0 426.5 -118.5t184.5 -319.5h-179q-36 146 -145.5 227.5t-284.5 81.5q-222 0 -340 -130t-118 -374v-176q0 -233 119 -359.5t341 -126.5q185 0 292 83.5t136 230.5h179q-40 -210 -189.5 -326.5
t-419.5 -116.5zM647 1475v174h191v-174h-191z" />
    <glyph glyph-name="cdotaccent" unicode="&#x10b;" horiz-adv-x="1087" 
d="M621 1051q93 0 171.5 -21.5t132 -56t92.5 -79.5t59 -90t26 -89h-164q-25 89 -102 150t-211 61q-157 0 -256 -82t-99 -242v-180q0 -153 99.5 -234.5t261.5 -81.5q134 0 215 73.5t98 172.5h170q-11 -75 -44.5 -139t-90.5 -117.5t-147.5 -84.5t-204.5 -31
q-148 0 -266.5 52.5t-188.5 156t-70 241.5v168q0 209 143.5 331t375.5 122zM528 1192v182h181v-182h-181z" />
    <glyph glyph-name="Ccaron" unicode="&#x10c;" horiz-adv-x="1411" 
d="M741 -25q270 0 419.5 116.5t189.5 326.5h-179q-29 -147 -136 -230.5t-292 -83.5q-222 0 -341 126.5t-119 359.5v176q0 244 118 374t340 130q175 0 284.5 -81.5t145.5 -227.5h179q-31 201 -184.5 319.5t-426.5 118.5q-303 0 -464.5 -163t-161.5 -458v-200
q0 -280 166 -441.5t462 -161.5zM639 1649l102 -107l105 107h176l-162 -193h-235l-162 193h176z" />
    <glyph glyph-name="ccaron" unicode="&#x10d;" horiz-adv-x="1087" 
d="M621 1051q93 0 171.5 -21.5t132 -56t92.5 -79.5t59 -90t26 -89h-164q-25 89 -102 150t-211 61q-157 0 -256 -82t-99 -242v-180q0 -153 99.5 -234.5t261.5 -81.5q134 0 215 73.5t98 172.5h170q-11 -75 -44.5 -139t-90.5 -117.5t-147.5 -84.5t-204.5 -31
q-148 0 -266.5 52.5t-188.5 156t-70 241.5v168q0 209 143.5 331t375.5 122zM479 1374l142 -147l143 147h176l-205 -237h-227l-205 237h176z" />
    <glyph glyph-name="Dcaron" unicode="&#x10e;" horiz-adv-x="1439" 
d="M160 1374h497q346 0 528.5 -158.5t182.5 -457.5v-133q0 -136 -47 -250.5t-135 -198t-224 -130t-305 -46.5h-497v1374zM324 1241v-1108h342q242 0 387 125.5t145 366.5v143q0 228 -145.5 350.5t-386.5 122.5h-342zM567 1649l103 -107l104 107h176l-162 -193h-235l-162 193
h176z" />
    <glyph glyph-name="dcaron" unicode="&#x10f;" horiz-adv-x="1343" 
d="M1288 938h-133l121 436h145zM610 -20q-231 0 -370.5 113.5t-139.5 316.5v219q0 132 66.5 229t177.5 145t252 48q112 0 207 -29t151 -76v428h162v-979q0 -195 -136 -305t-370 -110zM610 926q-158 0 -251 -75.5t-93 -221.5v-228q0 -141 94 -218t250 -77t250 77t94 218v250
q0 124 -95.5 199.5t-248.5 75.5z" />
    <glyph glyph-name="Dcroat" unicode="&#x110;" horiz-adv-x="1617" 
d="M317 1376h498q346 0 528.5 -158.5t182.5 -457.5v-133q0 -136 -47 -250.5t-135 -198t-224 -130t-305 -46.5h-498v641h-254v131h254v602zM481 1243v-469h287v-131h-287v-508h342q242 0 387.5 125.5t145.5 366.5v143q0 228 -146 350.5t-387 122.5h-342z" />
    <glyph glyph-name="dcroat" unicode="&#x111;" horiz-adv-x="1226" 
d="M1278 1155h-162v-760q0 -195 -136 -305t-370 -110q-231 0 -370.5 113.5t-139.5 316.5v219q0 132 66.5 229t177.5 145t252 48q112 0 207 -29t151 -76v209h-342v117h342v102h162v-102h162v-117zM610 926q-158 0 -251 -75.5t-93 -221.5v-228q0 -141 94 -218t250 -77t250 77
t94 218v250q0 124 -95.5 199.5t-248.5 75.5z" />
    <glyph glyph-name="Emacron" unicode="&#x112;" horiz-adv-x="1200" 
d="M1149 133h-827v510h772v133h-772v465h827v133h-991v-1374h991v133zM1006 1518h-705v131h705v-131z" />
    <glyph glyph-name="emacron" unicode="&#x113;" horiz-adv-x="1187" 
d="M623 -20q141 0 258 49.5t200 136.5l-108 94q-60 -69 -149.5 -111.5t-200.5 -42.5q-164 0 -268.5 93.5t-104.5 244.5v21h846v92q0 229 -134 361.5t-372 132.5q-226 0 -367 -142.5t-141 -365.5v-68q0 -227 150.5 -361t390.5 -134zM590 926q157 0 248.5 -91.5t91.5 -230.5
v-12h-680v8q0 139 96.5 232.5t243.5 93.5zM956 1231h-704v131h704v-131z" />
    <glyph glyph-name="Ebreve" unicode="&#x114;" horiz-adv-x="1200" 
d="M1149 133h-827v510h772v133h-772v465h827v133h-991v-1374h991v133zM657 1448q-138 0 -214.5 56t-86.5 145h142q13 -101 159 -101q141 0 156 101h139q-6 -89 -81 -145t-214 -56z" />
    <glyph glyph-name="ebreve" unicode="&#x115;" horiz-adv-x="1187" 
d="M623 -20q141 0 258 49.5t200 136.5l-108 94q-60 -69 -149.5 -111.5t-200.5 -42.5q-164 0 -268.5 93.5t-104.5 244.5v21h846v92q0 229 -134 361.5t-372 132.5q-226 0 -367 -142.5t-141 -365.5v-68q0 -227 150.5 -361t390.5 -134zM590 926q157 0 248.5 -91.5t91.5 -230.5
v-12h-680v8q0 139 96.5 232.5t243.5 93.5zM602 1128q-144 0 -217.5 69.5t-83.5 176.5h137q9 -139 164 -139q66 0 110 36.5t50 102.5h135q-7 -107 -78.5 -176.5t-216.5 -69.5z" />
    <glyph glyph-name="Edotaccent" unicode="&#x116;" horiz-adv-x="1200" 
d="M322 133h827v-133h-991v1374h991v-133h-827v-465h772v-133h-772v-510zM565 1475v174h191v-174h-191z" />
    <glyph glyph-name="edotaccent" unicode="&#x117;" horiz-adv-x="1187" 
d="M623 -20q-240 0 -390.5 134t-150.5 361v68q0 223 141 365.5t367 142.5q238 0 372 -132.5t134 -361.5v-92h-846v-21q0 -151 104.5 -244.5t268.5 -93.5q111 0 200.5 42.5t149.5 111.5l108 -94q-83 -87 -200 -136.5t-258 -49.5zM590 926q-147 0 -243.5 -93.5t-96.5 -232.5
v-8h680v12q0 139 -91.5 230.5t-248.5 91.5zM508 1192v182h180v-182h-180z" />
    <glyph glyph-name="Eogonek" unicode="&#x118;" horiz-adv-x="1200" 
d="M322 133h827v-133h-141q-39 -52 -39 -123q0 -47 27 -71.5t71 -24.5h150v-123h-164q-107 0 -168.5 49.5t-61.5 132.5q0 84 51 160h-716v1374h991v-133h-827v-465h772v-133h-772v-510z" />
    <glyph glyph-name="eogonek" unicode="&#x119;" horiz-adv-x="1187" 
d="M1057 -342h-164q-107 0 -168 49.5t-61 132.5q0 80 41 146q-41 -6 -82 -6q-240 0 -390.5 134t-150.5 361v68q0 223 141 365.5t367 142.5q238 0 372 -132.5t134 -361.5v-92h-846v-21q0 -151 104.5 -244.5t268.5 -93.5q111 0 200.5 42.5t149.5 111.5l108 -94
q-89 -92 -213 -141h2q-61 -61 -61 -148q0 -47 27 -71.5t71 -24.5h150v-123zM590 926q-147 0 -243.5 -93.5t-96.5 -232.5v-8h680v12q0 139 -91.5 230.5t-248.5 91.5z" />
    <glyph glyph-name="Ecaron" unicode="&#x11a;" horiz-adv-x="1200" 
d="M1149 133h-827v510h772v133h-772v465h827v133h-991v-1374h991v133zM549 1649l102 -107l105 107h176l-162 -193h-235l-162 193h176z" />
    <glyph glyph-name="ecaron" unicode="&#x11b;" horiz-adv-x="1187" 
d="M623 -20q141 0 258 49.5t200 136.5l-108 94q-60 -69 -149.5 -111.5t-200.5 -42.5q-164 0 -268.5 93.5t-104.5 244.5v21h846v92q0 229 -134 361.5t-372 132.5q-226 0 -367 -142.5t-141 -365.5v-68q0 -227 150.5 -361t390.5 -134zM590 926q157 0 248.5 -91.5t91.5 -230.5
v-12h-680v8q0 139 96.5 232.5t243.5 93.5zM457 1374l141 -147l143 147h177l-205 -237h-228l-204 237h176z" />
    <glyph glyph-name="Gcircumflex" unicode="&#x11c;" horiz-adv-x="1456" 
d="M1389 690h-639v-133h460v-35q0 -194 -117.5 -306t-326.5 -112q-221 0 -343 128.5t-122 363.5v176q0 238 118.5 368t340.5 130q158 0 262 -70t149 -199h191q-42 175 -201 286.5t-403 111.5q-302 0 -464.5 -163.5t-162.5 -451.5v-200q0 -281 169.5 -445t465.5 -164
q286 0 454.5 150t168.5 405v160zM872 1649l162 -193h-176l-106 109l-105 -109h-176l162 193h239z" />
    <glyph glyph-name="gcircumflex" unicode="&#x11d;" horiz-adv-x="1200" 
d="M88 606v-125q0 -212 142.5 -330t363.5 -118q218 0 348 108v-149q0 -138 -97.5 -212.5t-256.5 -74.5q-109 0 -204.5 38t-162.5 105l-102 -94h-2q81 -79 203 -127.5t268 -48.5q244 0 380 117.5t136 312.5v600q0 216 -134 329.5t-372 113.5q-232 0 -371 -120.5t-139 -324.5z
M942 614v-133q0 -158 -90.5 -238.5t-249.5 -80.5t-252.5 78.5t-93.5 238.5v129q0 156 95.5 237t246.5 81t247.5 -79.5t96.5 -232.5zM737 1374l205 -237h-176l-143 147l-142 -147h-176l205 237h227z" />
    <glyph glyph-name="Gbreve" unicode="&#x11e;" horiz-adv-x="1456" 
d="M1389 690h-639v-133h460v-35q0 -194 -117.5 -306t-326.5 -112q-221 0 -343 128.5t-122 363.5v176q0 238 118.5 368t340.5 130q158 0 262 -70t149 -199h191q-42 175 -201 286.5t-403 111.5q-302 0 -464.5 -163.5t-162.5 -451.5v-200q0 -281 169.5 -445t465.5 -164
q286 0 454.5 150t168.5 405v160zM754 1448q-138 0 -214.5 56t-86.5 145h141q13 -101 160 -101q140 0 155 101h140q-6 -89 -81 -145t-214 -56z" />
    <glyph glyph-name="gbreve" unicode="&#x11f;" horiz-adv-x="1200" 
d="M88 606v-125q0 -212 142.5 -330t363.5 -118q218 0 348 108v-149q0 -138 -97.5 -212.5t-256.5 -74.5q-109 0 -204.5 38t-162.5 105l-102 -94h-2q81 -79 203 -127.5t268 -48.5q244 0 380 117.5t136 312.5v600q0 216 -134 329.5t-372 113.5q-232 0 -371 -120.5t-139 -324.5z
M942 614v-133q0 -158 -90.5 -238.5t-249.5 -80.5t-252.5 78.5t-93.5 238.5v129q0 156 95.5 237t246.5 81t247.5 -79.5t96.5 -232.5zM627 1128q-144 0 -217.5 69.5t-83.5 176.5h137q9 -139 164 -139q66 0 109.5 36.5t49.5 102.5h136q-7 -107 -78.5 -176.5t-216.5 -69.5z" />
    <glyph glyph-name="Gdotaccent" unicode="&#x120;" horiz-adv-x="1456" 
d="M750 690h639v-160q0 -255 -168.5 -405t-454.5 -150q-296 0 -465.5 164t-169.5 445v200q0 288 162.5 451.5t464.5 163.5q244 0 403 -111.5t201 -286.5h-191q-45 129 -149 199t-262 70q-222 0 -340.5 -130t-118.5 -368v-176q0 -235 122 -363.5t343 -128.5q209 0 326.5 112
t117.5 306v35h-460v133zM657 1475v174h191v-174h-191z" />
    <glyph glyph-name="gdotaccent" unicode="&#x121;" horiz-adv-x="1200" 
d="M88 481v125q0 204 139 324.5t371 120.5q238 0 372 -113.5t134 -329.5v-600q0 -195 -136 -312.5t-380 -117.5q-146 0 -268 48.5t-203 127.5h2l102 94q67 -67 162.5 -105t204.5 -38q159 0 256.5 74.5t97.5 212.5v149q-130 -108 -348 -108q-221 0 -363.5 118t-142.5 330z
M942 481v133q0 153 -96.5 232.5t-247.5 79.5t-246.5 -81t-95.5 -237v-129q0 -160 93.5 -238.5t252.5 -78.5t249.5 80.5t90.5 238.5zM532 1192v182h181v-182h-181z" />
    <glyph glyph-name="Gcommaaccent" unicode="&#x122;" horiz-adv-x="1441" 
d="M764 690h639v-160q0 -255 -168.5 -405t-454.5 -150q-296 0 -465.5 164t-169.5 445v200q0 288 162.5 451.5t464.5 163.5q244 0 403 -111.5t201 -286.5h-190q-45 129 -149.5 199t-262.5 70q-222 0 -340.5 -130t-118.5 -368v-176q0 -235 122 -363.5t343 -128.5
q209 0 327 112.5t118 305.5v35h-461v133zM659 -344h-174l201 264h197z" />
    <glyph glyph-name="gcommaaccent" unicode="&#x123;" horiz-adv-x="1200" 
d="M88 606v-125q0 -212 142.5 -330t363.5 -118q218 0 348 108v-149q0 -138 -97.5 -212.5t-256.5 -74.5q-109 0 -204.5 38t-162.5 105l-102 -94h-2q81 -79 203 -127.5t268 -48.5q244 0 380 117.5t136 312.5v600q0 216 -134 329.5t-372 113.5q-232 0 -371 -120.5t-139 -324.5z
M942 614v-133q0 -158 -90.5 -238.5t-249.5 -80.5t-252.5 78.5t-93.5 238.5v129q0 156 95.5 237t246.5 81t247.5 -79.5t96.5 -232.5zM700 1374h164l-153 -221h-168z" />
    <glyph glyph-name="Hcircumflex" unicode="&#x124;" horiz-adv-x="1552" 
d="M1391 1374v-1374h-164v629h-891v-629h-164v1374h164v-612h891v612h164zM885 1456l-107 109l-104 -109h-176l161 193h240l162 -193h-176z" />
    <glyph glyph-name="hcircumflex" unicode="&#x125;" horiz-adv-x="1224" 
d="M1112 0h-162v616q0 141 -86.5 225.5t-234.5 84.5q-136 0 -233 -81t-101 -206v-639h-162v1374h162v-446q156 123 354 123q219 0 341 -116t122 -314v-621zM719 1649l162 -193h-176l-107 109l-104 -109h-177l162 193h240z" />
    <glyph glyph-name="Hbar" unicode="&#x126;" horiz-adv-x="1843" 
d="M1788 1018h-254v-1018h-164v629h-891v-629h-164v1018h-258v131h258v225h164v-225h891v225h164v-225h254v-131zM1370 1018h-891v-256h891v256z" />
    <glyph glyph-name="hbar" unicode="&#x127;" horiz-adv-x="1224" 
d="M295 1374v-104h295v-117h-295v-225q156 123 354 123q219 0 341 -116t122 -314v-621h-162v616q0 141 -86.5 225.5t-234.5 84.5q-136 0 -233 -81t-101 -206v-639h-162v1153h-209v117h209v104h162z" />
    <glyph glyph-name="Itilde" unicode="&#x128;" horiz-adv-x="534" 
d="M350 0v1374h-166v-1374h166zM496 1653h133v-35q0 -84 -41 -129t-109 -45q-72 0 -205 65q-63 31 -97 42.5t-66 11.5q-36 0 -57 -22t-21 -56v-27h-127v29q0 83 57.5 131.5t142.5 48.5q36 0 70.5 -8.5t55 -17.5t61.5 -29q108 -51 145 -51q58 0 58 61v31z" />
    <glyph glyph-name="itilde" unicode="&#x129;" horiz-adv-x="501" 
d="M170 1030v-1030h162v1030h-162zM467 1374h125v-53q0 -90 -38 -138t-103 -48q-39 0 -82 15.5t-113 53.5q-8 4 -25.5 14t-23.5 13t-18.5 9.5t-18 8.5t-15 5.5t-16.5 4.5t-15.5 2t-17.5 1q-39 0 -59 -23t-20 -61v-43h-121v45q0 89 55.5 141.5t136.5 52.5q26 0 47 -3.5
t47.5 -15t36 -16t45.5 -24.5q9 -5 24.5 -13t22 -11.5t18.5 -10t18 -9t14.5 -6t14 -5t12 -2.5t12.5 -1q57 0 57 68v49z" />
    <glyph glyph-name="Imacron" unicode="&#x12a;" horiz-adv-x="534" 
d="M350 0v1374h-166v-1374h166zM618 1518h-704v131h704v-131z" />
    <glyph glyph-name="imacron" unicode="&#x12b;" horiz-adv-x="501" 
d="M170 1030v-1030h162v1030h-162zM602 1231h-704v131h704v-131z" />
    <glyph glyph-name="Ibreve" unicode="&#x12c;" horiz-adv-x="534" 
d="M350 0v1374h-166v-1374h166zM270 1448q-138 0 -214.5 56t-86.5 145h142q13 -101 159 -101q141 0 156 101h139q-6 -89 -81 -145t-214 -56z" />
    <glyph glyph-name="ibreve" unicode="&#x12d;" horiz-adv-x="501" 
d="M170 1030v-1030h162v1030h-162zM254 1128q-144 0 -217.5 69.5t-83.5 176.5h137q9 -139 164 -139q66 0 110 36.5t50 102.5h135q-7 -107 -78.5 -176.5t-216.5 -69.5z" />
    <glyph glyph-name="Iogonek" unicode="&#x12e;" horiz-adv-x="534" 
d="M526 -342h-164q-107 0 -168 49.5t-61 132.5q0 84 51 160v1374h166v-1374h-33q-38 -51 -38 -123q0 -47 27 -71.5t71 -24.5h149v-123z" />
    <glyph glyph-name="iogonek" unicode="&#x12f;" horiz-adv-x="501" 
d="M512 -342h-164q-107 0 -168 49.5t-61 132.5q0 84 51 160v1030h162v-1030h-29q-39 -52 -39 -123q0 -47 27 -71.5t71 -24.5h150v-123zM162 1192v182h180v-182h-180z" />
    <glyph glyph-name="Idotaccent" unicode="&#x130;" horiz-adv-x="581" 
d="M383 1374v-1374h-166v1374h166zM205 1475v174h190v-174h-190z" />
    <glyph glyph-name="dotlessi" unicode="&#x131;" horiz-adv-x="501" 
d="M170 0v1030h162v-1030h-162z" />
    <glyph glyph-name="IJ" unicode="&#x132;" horiz-adv-x="1593" 
d="M385 1376v-1374h-166v1374h166zM1456 1376v-993q0 -181 -126.5 -293.5t-340.5 -112.5q-137 0 -261 52t-210 139l107 100q65 -70 162 -113.5t198 -43.5q135 0 220 76t85 196v993h166z" />
    <glyph glyph-name="ij" unicode="&#x133;" horiz-adv-x="1067" 
d="M236 0v1030h161v-1030h-161zM225 1192v182h181v-182h-181zM750 -113v1160h161v-1172q0 -121 -86 -190.5t-221 -69.5h-129v131h103q78 0 125 35.5t47 105.5zM739 1192v182h181v-182h-181z" />
    <glyph glyph-name="Jcircumflex" unicode="&#x134;" horiz-adv-x="1128" 
d="M987 1374v-993q0 -181 -126.5 -293.5t-340.5 -112.5q-137 0 -261 52t-210 139l107 100q65 -70 162 -113.5t198 -43.5q135 0 220 76t85 196v993h166zM991 1649l162 -193h-176l-107 109l-104 -109h-176l162 193h239z" />
    <glyph glyph-name="jcircumflex" unicode="&#x135;" horiz-adv-x="501" 
d="M170 1030v-1159q0 -70 -47 -105.5t-125 -35.5h-102v-131h129q135 0 221 69.5t86 190.5v1171h-162zM387 1137l-143 147l-142 -147h-176l205 237h227l205 -237h-176z" />
    <glyph glyph-name="Kcommaaccent" unicode="&#x136;" horiz-adv-x="1394" 
d="M684 782l700 -782h-208l-601 684l-251 -229v-455h-164v1374h164v-723l798 723h211zM627 -344h-174l200 264h197z" />
    <glyph glyph-name="kcommaaccent" unicode="&#x137;" horiz-adv-x="1118" 
d="M578 598l530 -598h-209l-428 500l-176 -164v-336h-162v1374h162v-839l543 495h211zM477 -344h-174l201 264h196z" />
    <glyph glyph-name="kgreenlandic" unicode="&#x138;" horiz-adv-x="1179" 
d="M604 598l531 -598h-209l-428 500l-176 -164v-336h-162v1051h162v-516l542 495h211z" />
    <glyph glyph-name="Lacute" unicode="&#x139;" horiz-adv-x="1159" 
d="M324 1374v-1241h798v-133h-962v1374h164zM862 1649l-182 -185h-176l158 185h200z" />
    <glyph glyph-name="lacute" unicode="&#x13a;" horiz-adv-x="622" 
d="M299 1374v-1089q0 -81 44 -117.5t114 -36.5h155v-131h-174q-139 0 -220 75t-81 224v1075h162zM492 1649l-183 -185h-176l158 185h201z" />
    <glyph glyph-name="Lcommaaccent" unicode="&#x13b;" horiz-adv-x="1159" 
d="M324 1374v-1241h798v-133h-962v1374h164zM526 -344h-174l201 264h197z" />
    <glyph glyph-name="lcommaaccent" unicode="&#x13c;" horiz-adv-x="661" 
d="M338 1374v-1089q0 -81 44 -117.5t114 -36.5h155v-131h-174q-139 0 -220 75t-81 224v1075h162zM307 -344h-174l201 264h196z" />
    <glyph glyph-name="Lcaron" unicode="&#x13d;" horiz-adv-x="1159" 
d="M324 1374v-1241h798v-133h-962v1374h164zM686 938h-133l121 436h145z" />
    <glyph glyph-name="lcaron" unicode="&#x13e;" horiz-adv-x="677" 
d="M295 1374v-1089q0 -81 44 -117.5t114 -36.5h155v-131h-174q-139 0 -220 75t-81 224v1075h162zM535 938h-134l121 436h146z" />
    <glyph glyph-name="Ldot" unicode="&#x13f;" horiz-adv-x="1159" 
d="M324 1374v-1241h798v-133h-962v1374h164zM612 715v-172h191v172h-191z" />
    <glyph glyph-name="ldot" unicode="&#x140;" horiz-adv-x="854" 
d="M395 1374v-1374h-166v1374h166zM600 543v172h191v-172h-191z" />
    <glyph glyph-name="Lslash" unicode="&#x141;" horiz-adv-x="1234" 
d="M428 1374v-520l246 109l55 -123l-301 -133v-574h799v-133h-963v635l-158 -70l-57 123l215 94v592h164z" />
    <glyph glyph-name="lslash" unicode="&#x142;" horiz-adv-x="761" 
d="M438 1374v-506l215 95l56 -123l-271 -119v-436q0 -81 44 -117.5t114 -36.5h156v-131h-174q-139 0 -220.5 75t-81.5 224v350l-190 -84l-57 123l247 109v577h162z" />
    <glyph glyph-name="Nacute" unicode="&#x143;" horiz-adv-x="1546" 
d="M1384 0v1374h-159v-1116l-889 1116h-164v-1374h160v1130l897 -1130h155zM1008 1649l-183 -185h-176l158 185h201z" />
    <glyph glyph-name="nacute" unicode="&#x144;" horiz-adv-x="1224" 
d="M950 0h162v621q0 198 -122 314t-341 116q-207 0 -364 -131l-21 110h-131v-1030h162v627q0 130 97.5 214.5t236.5 84.5q148 0 234.5 -84.5t86.5 -225.5v-616zM948 1374l-215 -223h-176l191 223h200z" />
    <glyph glyph-name="Ncommaaccent" unicode="&#x145;" horiz-adv-x="1546" 
d="M1384 1374v-1374h-155l-897 1130v-1130h-160v1374h164l889 -1116v1116h159zM666 -344h-174l200 264h197z" />
    <glyph glyph-name="ncommaaccent" unicode="&#x146;" horiz-adv-x="1224" 
d="M1112 0h-162v616q0 141 -86.5 225.5t-234.5 84.5q-139 0 -236.5 -84.5t-97.5 -214.5v-627h-162v1030h131l21 -110q157 131 364 131q219 0 341 -116t122 -314v-621zM518 -344h-174l201 264h196z" />
    <glyph glyph-name="Ncaron" unicode="&#x147;" horiz-adv-x="1546" 
d="M1384 0v1374h-159v-1116l-889 1116h-164v-1374h160v1130l897 -1130h155zM664 1649l102 -107l104 107h177l-162 -193h-236l-162 193h177z" />
    <glyph glyph-name="ncaron" unicode="&#x148;" horiz-adv-x="1224" 
d="M950 0h162v621q0 198 -122 314t-341 116q-207 0 -364 -131l-21 110h-131v-1030h162v627q0 130 97.5 214.5t236.5 84.5q148 0 234.5 -84.5t86.5 -225.5v-616zM487 1374l142 -147l143 147h176l-205 -237h-227l-205 237h176z" />
    <glyph glyph-name="Eng" unicode="&#x14a;" horiz-adv-x="1505" 
d="M1217 258v1116h159v-1403q0 -184 -110 -287.5t-289 -103.5q-76 0 -160.5 23t-150.5 61l57 127q112 -76 248 -76q104 0 175 68.5t71 206.5v14l-893 1126v-1130h-160v1374h164z" />
    <glyph glyph-name="eng" unicode="&#x14b;" horiz-adv-x="1210" 
d="M950 -10v626q0 141 -86.5 225.5t-234.5 84.5q-139 0 -236.5 -84.5t-97.5 -214.5v-627h-162v1030h131l21 -110q157 131 364 131q219 0 341 -116t122 -314v-650q0 -184 -110 -287.5t-289 -103.5q-77 0 -161.5 23.5t-150.5 60.5l58 127q112 -76 248 -76q103 0 173 68.5
t70 206.5z" />
    <glyph glyph-name="Omacron" unicode="&#x14c;" horiz-adv-x="1445" 
d="M723 1399q-129 0 -235 -31.5t-178.5 -86.5t-122 -131.5t-72.5 -166t-23 -190.5v-199q0 -281 164 -450t467 -169q157 0 278.5 45t198 128t115.5 195.5t39 250.5v199q0 127 -38 235t-112.5 192t-198 131.5t-282.5 47.5zM725 106q-463 0 -463 506v162q0 231 115 362.5
t348 131.5q121 0 210 -35t143 -101t80 -155t26 -203v-162q0 -506 -459 -506zM1073 1518h-704v131h704v-131z" />
    <glyph glyph-name="omacron" unicode="&#x14d;" horiz-adv-x="1200" 
d="M963 1231h-705v131h705v-131zM600 -20q237 0 372.5 112t135.5 326v205q0 92 -30 166.5t-80 122.5t-117 80t-136.5 45.5t-144.5 13.5q-69 0 -136.5 -13.5t-135.5 -46t-120 -80t-84 -122t-32 -166.5v-201q0 -144 65.5 -245t178.5 -149t264 -48zM600 926q148 0 244 -74.5
t96 -214.5v-234q0 -140 -96 -218.5t-244 -78.5q-152 0 -246 78t-94 219v234q0 137 95 213t245 76z" />
    <glyph glyph-name="Obreve" unicode="&#x14e;" horiz-adv-x="1445" 
d="M723 1399q-129 0 -235 -31.5t-178.5 -86.5t-122 -131.5t-72.5 -166t-23 -190.5v-199q0 -281 164 -450t467 -169q157 0 278.5 45t198 128t115.5 195.5t39 250.5v199q0 127 -38 235t-112.5 192t-198 131.5t-282.5 47.5zM725 106q-463 0 -463 506v162q0 231 115 362.5
t348 131.5q121 0 210 -35t143 -101t80 -155t26 -203v-162q0 -506 -459 -506zM727 1448q-138 0 -214.5 56t-86.5 145h141q13 -101 160 -101q141 0 156 101h139q-6 -89 -81 -145t-214 -56z" />
    <glyph glyph-name="obreve" unicode="&#x14f;" horiz-adv-x="1200" 
d="M600 -20q237 0 372.5 112t135.5 326v205q0 92 -30 166.5t-80 122.5t-117 80t-136.5 45.5t-144.5 13.5q-69 0 -136.5 -13.5t-135.5 -46t-120 -80t-84 -122t-32 -166.5v-201q0 -144 65.5 -245t178.5 -149t264 -48zM600 926q148 0 244 -74.5t96 -214.5v-234
q0 -140 -96 -218.5t-244 -78.5q-152 0 -246 78t-94 219v234q0 137 95 213t245 76zM614 1128q-144 0 -217.5 69.5t-83.5 176.5h138q9 -139 163 -139q66 0 110 36.5t50 102.5h135q-7 -107 -78.5 -176.5t-216.5 -69.5z" />
    <glyph glyph-name="Ohungarumlaut" unicode="&#x150;" horiz-adv-x="1445" 
d="M723 1399q-129 0 -235 -31.5t-178.5 -86.5t-122 -131.5t-72.5 -166t-23 -190.5v-199q0 -281 164 -450t467 -169q157 0 278.5 45t198 128t115.5 195.5t39 250.5v199q0 127 -38 235t-112.5 192t-198 131.5t-282.5 47.5zM725 106q-463 0 -463 506v162q0 231 115 362.5
t348 131.5q121 0 210 -35t143 -101t80 -155t26 -203v-162q0 -506 -459 -506zM969 1458h-164l153 191h168zM618 1458h-163l153 191h168z" />
    <glyph glyph-name="ohungarumlaut" unicode="&#x151;" horiz-adv-x="1200" 
d="M600 -20q237 0 372.5 112t135.5 326v205q0 92 -30 166.5t-80 122.5t-117 80t-136.5 45.5t-144.5 13.5q-69 0 -136.5 -13.5t-135.5 -46t-120 -80t-84 -122t-32 -166.5v-201q0 -144 65.5 -245t178.5 -149t264 -48zM600 926q148 0 244 -74.5t96 -214.5v-234
q0 -140 -96 -218.5t-244 -78.5q-152 0 -246 78t-94 219v234q0 137 95 213t245 76zM850 1118h-164l203 256h168zM506 1118h-164l203 256h168z" />
    <glyph glyph-name="OE" unicode="&#x152;" horiz-adv-x="2232" 
d="M1190 1374h991v-133h-827v-424v-24v-17h772v-133h-772v-510h827v-133h-991v139q-164 -164 -467 -164t-467 169t-164 450v199q0 101 23 190.5t72.5 166t122 131.5t178.5 86.5t235 31.5q298 0 467 -166v141zM725 106q459 0 459 506v162q0 114 -26 203t-80 155t-143 101
t-210 35q-233 0 -348 -131.5t-115 -362.5v-162q0 -506 463 -506z" />
    <glyph glyph-name="oe" unicode="&#x153;" horiz-adv-x="2037" 
d="M1473 -20q-141 0 -255 47.5t-184 136.5q-126 -184 -438 -184q-151 0 -264 48t-178.5 149t-65.5 245v201q0 92 32 166.5t84 122t120 80t135.5 46t136.5 13.5q133 0 251.5 -46t186.5 -141q67 88 172.5 137.5t233.5 49.5q238 0 372 -132.5t134 -361.5v-92h-842v-47v-29
q19 -129 120 -206t249 -77q111 0 200.5 42.5t149.5 111.5l108 -94q-83 -87 -200 -136.5t-258 -49.5zM596 926q-150 0 -245 -76t-95 -213v-234q0 -141 94 -219t246 -78q148 0 244 78.5t96 218.5v5q-4 40 -4 67v68q0 46 4 71v23q0 140 -96 214.5t-244 74.5zM1440 926
q-132 0 -225.5 -77.5t-110.5 -197.5v-28v-31h676v12q0 139 -91.5 230.5t-248.5 91.5z" />
    <glyph glyph-name="Racute" unicode="&#x154;" horiz-adv-x="1337" 
d="M727 1374h-569v-1374h164v535h405h8l393 -535h197l-422 555q155 39 245.5 142.5t90.5 250.5q0 210 -139.5 318t-372.5 108zM1071 948q0 -123 -92 -201.5t-254 -78.5h-403v573h403q163 0 254.5 -80t91.5 -213zM913 1649l-182 -185h-176l158 185h200z" />
    <glyph glyph-name="racute" unicode="&#x155;" horiz-adv-x="714" 
d="M133 0h162v696q0 99 54.5 152t154.5 53h190v129h-221q-151 0 -245.5 -93t-94.5 -237v-700zM723 1374l-215 -223h-176l190 223h201z" />
    <glyph glyph-name="Rcommaaccent" unicode="&#x156;" horiz-adv-x="1337" 
d="M158 1374h569q233 0 372.5 -108t139.5 -318q0 -147 -90.5 -250.5t-245.5 -142.5l422 -555h-197l-393 535h-8h-405v-535h-164v1374zM1071 948q0 133 -91.5 213t-254.5 80h-403v-573h403q162 0 254 78.5t92 201.5zM608 -344h-174l201 264h196z" />
    <glyph glyph-name="rcommaaccent" unicode="&#x157;" horiz-adv-x="714" 
d="M295 0h-162v700q0 144 94.5 237t245.5 93h221v-129h-190q-100 0 -154.5 -53t-54.5 -152v-696zM270 -344h-174l201 264h197z" />
    <glyph glyph-name="Rcaron" unicode="&#x158;" horiz-adv-x="1337" 
d="M727 1374h-569v-1374h164v535h405h8l393 -535h197l-422 555q155 39 245.5 142.5t90.5 250.5q0 210 -139.5 318t-372.5 108zM1071 948q0 -123 -92 -201.5t-254 -78.5h-403v573h403q163 0 254.5 -80t91.5 -213zM563 1649l103 -107l104 107h176l-162 -193h-235l-162 193h176
z" />
    <glyph glyph-name="rcaron" unicode="&#x159;" horiz-adv-x="714" 
d="M133 0h162v696q0 99 54.5 152t154.5 53h190v129h-221q-151 0 -245.5 -93t-94.5 -237v-700zM268 1374l142 -147l143 147h176l-205 -237h-227l-205 237h176z" />
    <glyph glyph-name="Sacute" unicode="&#x15a;" horiz-adv-x="1339" 
d="M942 1649l-182 -185h-176l157 185h201zM592 788l285 -45q168 -27 271 -122.5t103 -237.5q0 -178 -157 -293t-418 -115q-172 0 -329.5 63.5t-258.5 160.5l111 106q84 -87 214.5 -143t262.5 -56q186 0 297.5 73t111.5 194q0 94 -71 155t-191 80l-299 49q-78 12 -145 38
t-123.5 68t-88.5 105.5t-32 141.5q0 176 143.5 282.5t393.5 106.5q298 0 522 -178l-113 -101q-77 71 -184 110.5t-221 39.5q-175 0 -275 -69.5t-100 -178.5q0 -191 291 -234z" />
    <glyph glyph-name="sacute" unicode="&#x15b;" horiz-adv-x="1036" 
d="M528 -20q201 0 325 84.5t124 216.5q0 246 -293 290l-217 31q-109 15 -158 56.5t-49 109.5t69 114t199 46q85 0 167.5 -32t144.5 -85l102 88q-176 152 -416 152q-183 0 -306.5 -78.5t-123.5 -210.5q0 -123 89 -197t227 -92l219 -29q182 -25 182 -163q0 -73 -74.5 -124
t-203.5 -51q-224 0 -371 144l-105 -98q86 -79 213 -125.5t256 -46.5zM838 1374l-215 -223h-177l191 223h201z" />
    <glyph glyph-name="Scircumflex" unicode="&#x15c;" horiz-adv-x="1339" 
d="M592 788l285 -45q168 -27 271 -122.5t103 -237.5q0 -178 -157 -293t-418 -115q-172 0 -329.5 63.5t-258.5 160.5l111 106q84 -87 214.5 -143t262.5 -56q186 0 297.5 73t111.5 194q0 94 -71 155t-191 80l-299 49q-78 12 -145 38t-123.5 68t-88.5 105.5t-32 141.5
q0 176 143.5 282.5t393.5 106.5q298 0 522 -178l-113 -101q-77 71 -184 110.5t-221 39.5q-175 0 -275 -69.5t-100 -178.5q0 -191 291 -234zM799 1649l162 -193h-177l-106 109l-105 -109h-176l162 193h240z" />
    <glyph glyph-name="scircumflex" unicode="&#x15d;" horiz-adv-x="1036" 
d="M528 -20q201 0 325 84.5t124 216.5q0 246 -293 290l-217 31q-109 15 -158 56.5t-49 109.5t69 114t199 46q85 0 167.5 -32t144.5 -85l102 88q-176 152 -416 152q-183 0 -306.5 -78.5t-123.5 -210.5q0 -123 89 -197t227 -92l219 -29q182 -25 182 -163q0 -73 -74.5 -124
t-203.5 -51q-224 0 -371 144l-105 -98q86 -79 213 -125.5t256 -46.5zM657 1374l205 -237h-176l-143 147l-142 -147h-176l205 237h227z" />
    <glyph glyph-name="Scedilla" unicode="&#x15e;" horiz-adv-x="1339" 
d="M592 788l285 -45q168 -27 271 -122.5t103 -237.5q0 -178 -157 -293t-418 -115q-172 0 -329.5 63.5t-258.5 160.5l111 106q84 -87 214.5 -143t262.5 -56q186 0 297.5 73t111.5 194q0 94 -71 155t-191 80l-299 49q-78 12 -145 38t-123.5 68t-88.5 105.5t-32 141.5
q0 176 143.5 282.5t393.5 106.5q298 0 522 -178l-113 -101q-77 71 -184 110.5t-221 39.5q-175 0 -275 -69.5t-100 -178.5q0 -191 291 -234zM590 -74h174l-184 -268h-193z" />
    <glyph glyph-name="scedilla" unicode="&#x15f;" horiz-adv-x="1036" 
d="M528 -20q-129 0 -256 46.5t-213 125.5l105 98q147 -144 371 -144q129 0 203.5 51t74.5 124q0 138 -182 163l-219 29q-138 18 -227 92t-89 197q0 132 123.5 210.5t306.5 78.5q240 0 416 -152l-102 -88q-62 53 -144.5 85t-167.5 32q-130 0 -199 -46t-69 -114t49 -109.5
t158 -56.5l217 -31q293 -44 293 -290q0 -132 -124 -216.5t-325 -84.5zM446 -74h175l-185 -268h-192z" />
    <glyph glyph-name="Scaron" unicode="&#x160;" horiz-adv-x="1339" 
d="M592 788l285 -45q168 -27 271 -122.5t103 -237.5q0 -178 -157 -293t-418 -115q-172 0 -329.5 63.5t-258.5 160.5l111 106q84 -87 214.5 -143t262.5 -56q186 0 297.5 73t111.5 194q0 94 -71 155t-191 80l-299 49q-78 12 -145 38t-123.5 68t-88.5 105.5t-32 141.5
q0 176 143.5 282.5t393.5 106.5q298 0 522 -178l-113 -101q-77 71 -184 110.5t-221 39.5q-175 0 -275 -69.5t-100 -178.5q0 -191 291 -234zM575 1649l103 -107l104 107h176l-161 -193h-236l-162 193h176z" />
    <glyph glyph-name="scaron" unicode="&#x161;" horiz-adv-x="1036" 
d="M528 -20q201 0 325 84.5t124 216.5q0 246 -293 290l-217 31q-109 15 -158 56.5t-49 109.5t69 114t199 46q85 0 167.5 -32t144.5 -85l102 88q-176 152 -416 152q-183 0 -306.5 -78.5t-123.5 -210.5q0 -123 89 -197t227 -92l219 -29q182 -25 182 -163q0 -73 -74.5 -124
t-203.5 -51q-224 0 -371 144l-105 -98q86 -79 213 -125.5t256 -46.5zM389 1374l141 -147l144 147h176l-205 -237h-227l-205 237h176z" />
    <glyph glyph-name="Tcommaaccent" unicode="&#x162;" horiz-adv-x="1298" 
d="M1225 1374v-133h-506v-1241h-164v1241h-506v133h1176zM518 -344h-174l201 264h196z" />
    <glyph glyph-name="tcommaaccent" unicode="&#x163;" horiz-adv-x="813" 
d="M227 1374h162v-344h381v-129h-381v-610q0 -160 166 -160h215v-131h-254q-131 0 -210 74t-79 213v614h-202v129h202v344zM403 -344h-174l201 264h197z" />
    <glyph glyph-name="Tcaron" unicode="&#x164;" horiz-adv-x="1306" 
d="M49 1374h1176v-133h-506v-1241h-164v1241h-506v133zM535 1649l102 -107l104 107h177l-162 -193h-236l-162 193h177z" />
    <glyph glyph-name="tcaron" unicode="&#x165;" horiz-adv-x="813" 
d="M227 1374h162v-344h203l96 344h146l-107 -344h43v-129h-381v-610q0 -160 166 -160h215v-131h-254q-131 0 -210 74t-79 213v614h-202v129h202v344z" />
    <glyph glyph-name="Tbar" unicode="&#x166;" horiz-adv-x="1296" 
d="M989 602h-270v-602h-164v602h-270v131h270v508h-506v133h1176v-133h-506v-508h270v-131z" />
    <glyph glyph-name="tbar" unicode="&#x167;" horiz-adv-x="1355" 
d="M932 514h-367v-223q0 -160 166 -160h215v-131h-254q-131 0 -210 74t-79 213v227h-176v131h176v256h-202v129h202v344h162v-344h381v-129h-381v-256h367v-131z" />
    <glyph glyph-name="Utilde" unicode="&#x168;" horiz-adv-x="1445" 
d="M1153 1374v-876q0 -97 -34.5 -173.5t-93.5 -123.5t-133.5 -71t-158.5 -24q-118 0 -211.5 41t-152 131.5t-58.5 219.5v876h-161v-882q0 -237 157 -377t426 -140q268 0 425 140t157 377v882h-162zM961 1653h133v-35q0 -84 -41 -129t-109 -45q-72 0 -205 65
q-63 31 -97.5 42.5t-66.5 11.5q-36 0 -56.5 -21.5t-20.5 -56.5v-27h-127v29q0 83 57.5 131.5t142.5 48.5q36 0 70.5 -8.5t55 -17.5t61.5 -29q108 -51 145 -51q58 0 58 61v31z" />
    <glyph glyph-name="utilde" unicode="&#x169;" horiz-adv-x="1173" 
d="M819 1374h125v-53q0 -90 -38 -138t-103 -48q-39 0 -82 15.5t-113 53.5q-9 5 -29 16t-26 14t-19.5 10t-19.5 8.5t-16.5 5t-19.5 4t-19 0.5q-39 0 -59.5 -23t-20.5 -61v-43h-121v45q0 89 56 141.5t137 52.5q26 0 47 -3.5t47.5 -15t36 -16t45.5 -24.5q10 -5 27.5 -14.5
t25 -13.5t20 -10t19 -9t15 -6t15 -4t13.5 -1q57 0 57 68v49zM596 -20q228 0 347.5 112.5t119.5 321.5v616h-162v-622q0 -140 -79.5 -221t-225.5 -81q-147 0 -225 80.5t-78 221.5v622h-162v-616q0 -208 120.5 -321t344.5 -113z" />
    <glyph glyph-name="Umacron" unicode="&#x16a;" horiz-adv-x="1445" 
d="M1153 1374v-876q0 -97 -34.5 -173.5t-93.5 -123.5t-133.5 -71t-158.5 -24q-118 0 -211.5 41t-152 131.5t-58.5 219.5v876h-161v-882q0 -237 157 -377t426 -140q268 0 425 140t157 377v882h-162zM1087 1518h-704v131h704v-131z" />
    <glyph glyph-name="umacron" unicode="&#x16b;" horiz-adv-x="1173" 
d="M950 1231h-704v131h704v-131zM596 -20q228 0 347.5 112.5t119.5 321.5v616h-162v-622q0 -140 -79.5 -221t-225.5 -81q-147 0 -225 80.5t-78 221.5v622h-162v-616q0 -208 120.5 -321t344.5 -113z" />
    <glyph glyph-name="Ubreve" unicode="&#x16c;" horiz-adv-x="1445" 
d="M1153 1374v-876q0 -97 -34.5 -173.5t-93.5 -123.5t-133.5 -71t-158.5 -24q-118 0 -211.5 41t-152 131.5t-58.5 219.5v876h-161v-882q0 -237 157 -377t426 -140q268 0 425 140t157 377v882h-162zM737 1448q-138 0 -214.5 56t-86.5 145h142q13 -101 159 -101q141 0 156 101
h139q-6 -89 -81 -145t-214 -56z" />
    <glyph glyph-name="ubreve" unicode="&#x16d;" horiz-adv-x="1173" 
d="M606 1128q-144 0 -217.5 69.5t-83.5 176.5h137q9 -139 164 -139q66 0 110 36.5t50 102.5h135q-7 -107 -78.5 -176.5t-216.5 -69.5zM596 -20q228 0 347.5 112.5t119.5 321.5v616h-162v-622q0 -140 -79.5 -221t-225.5 -81q-147 0 -225 80.5t-78 221.5v622h-162v-616
q0 -208 120.5 -321t344.5 -113z" />
    <glyph glyph-name="Uring" unicode="&#x16e;" horiz-adv-x="1445" 
d="M1153 498v876h162v-882q0 -237 -157 -377t-425 -140q-269 0 -426 140t-157 377v882h161v-876q0 -129 58.5 -219.5t152 -131.5t211.5 -41q84 0 158.5 24t133.5 71t93.5 123.5t34.5 173.5zM897 1507q0 -71 -45 -114t-113 -43q-70 0 -117 43t-47 114q0 66 47.5 111t116.5 45
q66 0 112 -45t46 -111zM811 1507q0 32 -20.5 52t-51.5 20q-33 0 -54 -19.5t-21 -52.5q0 -34 21 -53.5t54 -19.5q31 0 51.5 20t20.5 53z" />
    <glyph glyph-name="uring" unicode="&#x16f;" horiz-adv-x="1173" 
d="M764 1264q0 -71 -45.5 -114.5t-112.5 -43.5q-70 0 -117 43.5t-47 114.5q0 66 47.5 110.5t116.5 44.5q66 0 112 -44.5t46 -110.5zM678 1264q0 32 -20.5 51.5t-51.5 19.5q-33 0 -54.5 -19t-21.5 -52q0 -34 21.5 -54t54.5 -20q31 0 51.5 20.5t20.5 53.5zM596 -20
q-224 0 -344.5 113t-120.5 321v616h162v-622q0 -141 78 -221.5t225 -80.5q146 0 225.5 81t79.5 221v622h162v-616q0 -209 -119.5 -321.5t-347.5 -112.5z" />
    <glyph glyph-name="Uhungarumlaut" unicode="&#x170;" horiz-adv-x="1445" 
d="M1153 1374v-876q0 -97 -34.5 -173.5t-93.5 -123.5t-133.5 -71t-158.5 -24q-118 0 -211.5 41t-152 131.5t-58.5 219.5v876h-161v-882q0 -237 157 -377t426 -140q268 0 425 140t157 377v882h-162zM987 1458h-164l154 191h168zM637 1458h-164l154 191h168z" />
    <glyph glyph-name="uhungarumlaut" unicode="&#x171;" horiz-adv-x="1173" 
d="M846 1118h-164l203 256h168zM502 1118h-164l203 256h168zM596 -20q228 0 347.5 112.5t119.5 321.5v616h-162v-622q0 -140 -79.5 -221t-225.5 -81q-147 0 -225 80.5t-78 221.5v622h-162v-616q0 -208 120.5 -321t344.5 -113z" />
    <glyph glyph-name="Uogonek" unicode="&#x172;" horiz-adv-x="1445" 
d="M1028 -342h-164q-107 0 -168 49.5t-61 132.5q0 73 37 137q-244 17 -383 154.5t-139 360.5v882h161v-876q0 -129 58.5 -219.5t152 -131.5t211.5 -41q84 0 158.5 24t133.5 71t93.5 123.5t34.5 173.5v876h162v-882q0 -219 -136.5 -356t-371.5 -156q-27 -49 -27 -103
q0 -47 27.5 -71.5t71.5 -24.5h149v-123z" />
    <glyph glyph-name="uogonek" unicode="&#x173;" horiz-adv-x="1173" 
d="M596 -20q-224 0 -344.5 113t-120.5 321v616h162v-622q0 -141 78 -221.5t225 -80.5q146 0 225.5 81t79.5 221v622h162v-616q0 -301 -236 -396q-55 -58 -55 -141q0 -47 27 -71.5t71 -24.5h150v-123h-164q-107 0 -168 49.5t-61 132.5q0 76 41 144q-46 -4 -72 -4z" />
    <glyph glyph-name="Wcircumflex" unicode="&#x174;" horiz-adv-x="2082" 
d="M1403 0h190l469 1374h-174l-381 -1194l-385 1194h-155l-410 -1192l-358 1192h-179l437 -1374h194l389 1120zM1159 1649l162 -193h-176l-107 109l-104 -109h-176l162 193h239z" />
    <glyph glyph-name="wcircumflex" unicode="&#x175;" horiz-adv-x="1742" 
d="M1169 0h183l370 1030h-163l-293 -872l-310 866l2 6h-163l-316 -872l-286 872h-173l367 -1030h178l312 842zM989 1374l205 -237h-176l-144 147l-141 -147h-176l205 237h227z" />
    <glyph glyph-name="Ycircumflex" unicode="&#x176;" horiz-adv-x="1351" 
d="M758 0v520l573 854h-174l-481 -715l-475 715h-181l572 -854v-520h166zM784 1456l-106 109l-105 -109h-176l162 193h240l162 -193h-177z" />
    <glyph glyph-name="ycircumflex" unicode="&#x177;" horiz-adv-x="1161" 
d="M414 -121l92 189l-486 962h173l393 -799l387 799h168l-574 -1186q-68 -139 -154.5 -192t-246.5 -53h-98v131h108q85 0 141 32t97 117zM717 1137l-144 147l-141 -147h-176l205 237h227l205 -237h-176z" />
    <glyph glyph-name="Ydieresis" unicode="&#x178;" horiz-adv-x="1351" 
d="M758 520v-520h-166v520l-572 854h181l475 -715l481 715h174zM788 1475v174h191v-174h-191zM381 1475v174h190v-174h-190z" />
    <glyph glyph-name="Zacute" unicode="&#x179;" horiz-adv-x="1257" 
d="M1198 1249l-903 -1116h889v-133h-1096v129l918 1112h-897v133h1089v-125zM897 1649l-182 -185h-176l157 185h201z" />
    <glyph glyph-name="zacute" unicode="&#x17a;" horiz-adv-x="1038" 
d="M981 922l-690 -789h690v-133h-909v109l708 792h-671v129h872v-108zM850 1374l-215 -223h-176l190 223h201z" />
    <glyph glyph-name="Zdotaccent" unicode="&#x17b;" horiz-adv-x="1257" 
d="M1198 1249l-903 -1116h889v-133h-1096v129l918 1112h-897v133h1089v-125zM541 1475v174h190v-174h-190z" />
    <glyph glyph-name="zdotaccent" unicode="&#x17c;" horiz-adv-x="1038" 
d="M981 922l-690 -789h690v-133h-909v109l708 792h-671v129h872v-108zM465 1192v182h180v-182h-180z" />
    <glyph glyph-name="Zcaron" unicode="&#x17d;" horiz-adv-x="1257" 
d="M1198 1249l-903 -1116h889v-133h-1096v129l918 1112h-897v133h1089v-125zM549 1649l102 -107l105 107h176l-162 -193h-235l-162 193h176z" />
    <glyph glyph-name="zcaron" unicode="&#x17e;" horiz-adv-x="1038" 
d="M981 922l-690 -789h690v-133h-909v109l708 792h-671v129h872v-108zM406 1374l141 -147l143 147h176l-204 -237h-228l-205 237h177z" />
    <glyph glyph-name="florin" unicode="&#x192;" horiz-adv-x="1122" 
d="M330 51l67 629h-243l18 135h240l12 109q53 475 485 475q84 0 158 -25l-8 -125q-85 25 -185 25q-117 0 -192.5 -82t-89.5 -219l-19 -158h340l-16 -135h-338l-67 -645q-19 -169 -124.5 -263t-289.5 -94q-103 0 -172 27l22 125q57 -29 150 -29q94 0 167 68.5t85 181.5z" />
    <glyph glyph-name="Icaron" unicode="&#x1cf;" horiz-adv-x="741" 
d="M383 1374v-1374h-166v1374h166zM610 938h-133l121 436h145z" />
    <glyph glyph-name="Aringacute" unicode="&#x1fa;" horiz-adv-x="1607" 
d="M956 1509q0 66 -45.5 111t-111.5 45q-69 0 -116.5 -45t-47.5 -111q0 -45 20 -80.5t54 -54.5h-2l-662 -1374h174l178 379h813l187 -379h182l-696 1372q73 44 73 137zM459 512l336 711l350 -711h-686zM1130 1948l-215 -224h-176l191 224h200zM870 1509q0 -33 -20 -53
t-51 -20q-33 0 -54.5 19.5t-21.5 53.5q0 33 21.5 52.5t54.5 19.5q31 0 51 -20t20 -52z" />
    <glyph glyph-name="aringacute" unicode="&#x1fb;" horiz-adv-x="1128" 
d="M754 1180q0 66 -46 110.5t-112 44.5q-69 0 -116.5 -44.5t-47.5 -110.5q0 -89 70 -133q-105 -10 -206 -52.5t-169 -103.5l109 -90q141 121 325 121q142 0 222.5 -56.5t80.5 -156.5v-107h-350q-191 0 -305.5 -83.5t-114.5 -217.5q0 -133 133.5 -227t370.5 -94q227 0 403 83
q25 13 25 35v611q0 137 -89 224.5t-257 108.5q74 44 74 138zM522 481h342v-321q-114 -54 -268 -54q-175 0 -258.5 56t-83.5 143q0 79 69 127.5t199 48.5zM932 1649l-215 -224h-176l190 224h201zM668 1180q0 -33 -20.5 -53.5t-51.5 -20.5q-33 0 -54.5 20t-21.5 54
q0 33 21.5 52t54.5 19q31 0 51.5 -19.5t20.5 -51.5z" />
    <glyph glyph-name="AEacute" unicode="&#x1fc;" horiz-adv-x="2134" 
d="M2052 1374h-1077l-959 -1374h193l260 379h592v-379h991v133h-827v510h772v133h-772v465h827v133zM559 512l483 700l19 25v-725h-502zM1690 1649l-183 -185h-176l158 185h201z" />
    <glyph glyph-name="aeacute" unicode="&#x1fd;" horiz-adv-x="1970" 
d="M1425 -20q141 0 258.5 49.5t200.5 136.5l-108 94q-60 -69 -150 -111.5t-201 -42.5q-164 0 -268 93.5t-104 244.5v21h845v92q0 229 -133.5 361.5t-371.5 132.5q-123 0 -224 -44.5t-170 -125.5q-51 81 -156 125.5t-257 44.5q-119 0 -239 -44.5t-200 -115.5l109 -90
q141 121 326 121q142 0 222.5 -56.5t80.5 -156.5v-107h-350q-191 0 -305.5 -83.5t-114.5 -217.5q0 -135 137 -233.5t366 -87.5q225 12 373 180q72 -88 184 -134t250 -46zM543 481h342v-194q0 -25 -7.5 -40.5t-27.5 -35.5q-92 -88 -240 -100q-157 -13 -246.5 47t-89.5 147
q0 79 69.5 127.5t199.5 48.5zM1393 926q157 0 248.5 -91.5t91.5 -230.5v-12h-680v8q0 139 96.5 232.5t243.5 93.5zM1288 1374l-215 -223h-176l190 223h201z" />
    <glyph glyph-name="Oslashacute" unicode="&#x1fe;" horiz-adv-x="1462" 
d="M1124 1448l-71 -111q-137 62 -314 62q-161 0 -284 -47.5t-197.5 -131.5t-111.5 -191.5t-37 -235.5v-199q0 -285 163 -451l-180 -274h184l119 184q144 -78 344 -78q157 0 278.5 45t198 128t115.5 195.5t39 250.5v199q0 300 -190 464l125 191h-181zM741 106q-166 0 -270 64
l625 958q104 -124 104 -354v-162q0 -506 -459 -506zM741 1268q138 0 234 -47l-617 -945q-79 121 -79 336v162q0 231 114.5 362.5t347.5 131.5zM1020 1649l-182 -185h-176l157 185h201z" />
    <glyph glyph-name="oslashacute" unicode="&#x1ff;" horiz-adv-x="1169" 
d="M584 -20q237 0 372.5 112t135.5 326v205q0 200 -142 315l113 170h-180l-64 -96q-110 39 -235 39q-69 0 -136.5 -13.5t-135.5 -46t-120 -80t-84 -122t-32 -166.5v-201q0 -216 141 -332l-141 -215h184l92 141q98 -36 232 -36zM584 926q82 0 161 -29l-444 -676
q-57 72 -57 182v234q0 137 95 213t245 76zM584 106q-88 0 -156 27l440 676q56 -69 56 -172v-234q0 -140 -96 -218.5t-244 -78.5zM911 1374l-215 -223h-176l191 223h200z" />
    <glyph glyph-name="Scommaaccent" unicode="&#x218;" horiz-adv-x="1339" 
d="M592 788l285 -45q168 -27 271 -122.5t103 -237.5q0 -178 -157 -293t-418 -115q-172 0 -329.5 63.5t-258.5 160.5l111 106q84 -87 214.5 -143t262.5 -56q186 0 297.5 73t111.5 194q0 94 -71 155t-191 80l-299 49q-78 12 -145 38t-123.5 68t-88.5 105.5t-32 141.5
q0 176 143.5 282.5t393.5 106.5q298 0 522 -178l-113 -101q-77 71 -184 110.5t-221 39.5q-175 0 -275 -69.5t-100 -178.5q0 -191 291 -234zM575 -344h-174l201 264h197z" />
    <glyph glyph-name="scommaaccent" unicode="&#x219;" horiz-adv-x="1036" 
d="M528 -20q-129 0 -256 46.5t-213 125.5l105 98q147 -144 371 -144q129 0 203.5 51t74.5 124q0 138 -182 163l-219 29q-138 18 -227 92t-89 197q0 132 123.5 210.5t306.5 78.5q240 0 416 -152l-102 -88q-62 53 -144.5 85t-167.5 32q-130 0 -199 -46t-69 -114t49 -109.5
t158 -56.5l217 -31q293 -44 293 -290q0 -132 -124 -216.5t-325 -84.5zM412 -344h-174l200 264h197z" />
    <glyph glyph-name="dotlessj" unicode="&#x237;" horiz-adv-x="501" 
d="M170 -129v1159h162v-1171q0 -121 -86 -190.5t-221 -69.5h-129v131h102q78 0 125 35.5t47 105.5z" />
    <glyph glyph-name="schwa" unicode="&#x259;" horiz-adv-x="1189" 
d="M569 1051q240 0 390.5 -134.5t150.5 -361.5v-68q0 -223 -141 -365t-367 -142q-238 0 -372 132t-134 361v92h846v21q0 151 -104.5 244.5t-268.5 93.5q-111 0 -200.5 -42.5t-149.5 -111.5l-108 94q83 87 200 137t258 50zM602 104q147 0 243.5 93.5t96.5 232.5v8h-680v-12
q0 -139 91.5 -230.5t248.5 -91.5z" />
    <glyph glyph-name="circumflex" unicode="&#x2c6;" 
d="M879 1374l204 -237h-176l-143 147l-141 -147h-177l205 237h228z" />
    <glyph glyph-name="caron" unicode="&#x2c7;" 
d="M623 1374l141 -147l143 147h176l-204 -237h-228l-205 237h177z" />
    <glyph glyph-name="breve" unicode="&#x2d8;" 
d="M764 1128q-144 0 -217.5 69.5t-83.5 176.5h137q9 -139 164 -139q66 0 110 36.5t50 102.5h135q-7 -107 -78.5 -176.5t-216.5 -69.5z" />
    <glyph glyph-name="dotaccent" unicode="&#x2d9;" 
d="M682 1192v182h180v-182h-180z" />
    <glyph glyph-name="ring" unicode="&#x2da;" 
d="M922 1264q0 -71 -45.5 -114.5t-112.5 -43.5q-70 0 -117 43.5t-47 114.5q0 66 47.5 110.5t116.5 44.5q66 0 112 -44.5t46 -110.5zM836 1264q0 32 -20.5 51.5t-51.5 19.5q-33 0 -54.5 -19t-21.5 -52q0 -34 21.5 -54t54.5 -20q31 0 51.5 20.5t20.5 53.5z" />
    <glyph glyph-name="ogonek" unicode="&#x2db;" 
d="M993 -344h-164q-107 0 -168 49.5t-61 132.5q0 99 70 185h137q-62 -62 -62 -148q0 -47 27.5 -71.5t71.5 -24.5h149v-123z" />
    <glyph glyph-name="tilde" unicode="&#x2dc;" 
d="M975 1374h125v-53q0 -90 -38.5 -138t-103.5 -48q-39 0 -81 15.5t-113 53.5q-8 4 -25.5 14t-23.5 13t-18.5 9.5t-18 8.5t-15 5.5t-16.5 4.5t-15.5 2t-17.5 1q-39 0 -59 -23t-20 -61v-43h-121v45q0 89 55.5 141.5t136.5 52.5q26 0 47 -3.5t47.5 -15t36 -16t45.5 -24.5
q9 -5 24.5 -13t22 -11.5t18.5 -10t18 -9t14.5 -6t14 -5t12 -2.5t12.5 -1q57 0 57 68v49z" />
    <glyph glyph-name="hungarumlaut" unicode="&#x2dd;" 
d="M956 1118h-163l202 256h168zM612 1118h-163l202 256h168z" />
    <glyph glyph-name="uni0326" unicode="&#x326;" 
d="M649 -344h-174l201 264h196z" />
    <glyph glyph-name="Delta" unicode="&#x394;" horiz-adv-x="1650" 
d="M1602 0h-1504l750 1401h22zM858 1108l-506 -963h1000z" />
    <glyph glyph-name="Delta" unicode="&#x2206;" horiz-adv-x="1650" 
d="M1602 0h-1504l750 1401h22zM858 1108l-506 -963h1000z" />
    <glyph glyph-name="Omega" unicode="&#x3a9;" horiz-adv-x="1992" 
d="M1866 162v-162h-770v115q219 32 353 200.5t134 403.5q0 113 -44.5 211t-120 166.5t-178 107.5t-216.5 39q-160 0 -288.5 -66.5t-202.5 -186.5t-74 -271q0 -118 39 -223.5t105 -181.5t152 -128t181 -71v-115h-764v162h352q-111 98 -181.5 241t-70.5 312q0 156 58 285.5
t159 217t238 135.5t295 48q209 0 378 -83t268 -240.5t99 -362.5q0 -355 -237 -553h336z" />
    <glyph glyph-name="Omega" unicode="&#x2126;" horiz-adv-x="1992" 
d="M1866 162v-162h-770v115q219 32 353 200.5t134 403.5q0 113 -44.5 211t-120 166.5t-178 107.5t-216.5 39q-160 0 -288.5 -66.5t-202.5 -186.5t-74 -271q0 -118 39 -223.5t105 -181.5t152 -128t181 -71v-115h-764v162h352q-111 98 -181.5 241t-70.5 312q0 156 58 285.5
t159 217t238 135.5t295 48q209 0 378 -83t268 -240.5t99 -362.5q0 -355 -237 -553h336z" />
    <glyph glyph-name="pi" unicode="&#x3c0;" horiz-adv-x="1464" 
d="M975 0v768h-438v-768h-162v768h-203v133h1165v-133h-200v-768h-162z" />
    <glyph glyph-name="Wgrave" unicode="&#x1e80;" horiz-adv-x="2082" 
d="M1403 0h190l469 1374h-174l-381 -1194l-385 1194h-155l-410 -1192l-358 1192h-179l437 -1374h194l389 1120zM938 1464l-182 185h200l158 -185h-176z" />
    <glyph glyph-name="wgrave" unicode="&#x1e81;" horiz-adv-x="1742" 
d="M782 1151l-215 223h201l190 -223h-176zM1169 0h183l370 1030h-163l-293 -872l-310 866l2 6h-163l-316 -872l-286 872h-173l367 -1030h178l312 842z" />
    <glyph glyph-name="Wacute" unicode="&#x1e82;" horiz-adv-x="2082" 
d="M1403 0h190l469 1374h-174l-381 -1194l-385 1194h-155l-410 -1192l-358 1192h-179l437 -1374h194l389 1120zM1321 1649l-182 -185h-176l157 185h201z" />
    <glyph glyph-name="wacute" unicode="&#x1e83;" horiz-adv-x="1742" 
d="M1169 0h183l370 1030h-163l-293 -872l-310 866l2 6h-163l-316 -872l-286 872h-173l367 -1030h178l312 842zM1196 1374l-215 -223h-176l190 223h201z" />
    <glyph glyph-name="Wdieresis" unicode="&#x1e84;" horiz-adv-x="2082" 
d="M1593 0h-190l-363 1120l-389 -1120h-194l-437 1374h179l358 -1192l410 1192h155l385 -1194l381 1194h174zM737 1475v174h191v-174h-191zM1145 1475v174h190v-174h-190z" />
    <glyph glyph-name="wdieresis" unicode="&#x1e85;" horiz-adv-x="1742" 
d="M578 1186v188h190v-188h-190zM985 1186v188h191v-188h-191zM1352 0h-183l-292 842l-312 -842h-178l-367 1030h173l286 -872l316 872h163l-2 -6l310 -866l293 872h163z" />
    <glyph glyph-name="Ygrave" unicode="&#x1ef2;" horiz-adv-x="1351" 
d="M758 0v520l573 854h-174l-481 -715l-475 715h-181l572 -854v-520h166zM588 1464l-182 185h200l158 -185h-176z" />
    <glyph glyph-name="ygrave" unicode="&#x1ef3;" horiz-adv-x="1161" 
d="M414 -121l92 189l-486 962h173l393 -799l387 799h168l-574 -1186q-68 -139 -154.5 -192t-246.5 -53h-98v131h108q85 0 141 32t97 117zM483 1151l-215 223h201l190 -223h-176z" />
    <glyph glyph-name="enspace" unicode="&#x2002;" horiz-adv-x="997" 
 />
    <glyph glyph-name="emspace" unicode="&#x2003;" horiz-adv-x="2031" 
 />
    <glyph glyph-name="threeperemspace" unicode="&#x2004;" horiz-adv-x="651" 
 />
    <glyph glyph-name="fourperemspace" unicode="&#x2005;" horiz-adv-x="477" 
 />
    <glyph glyph-name="thinspace" unicode="&#x2009;" horiz-adv-x="231" 
 />
    <glyph glyph-name="hairspace" unicode="&#x200a;" horiz-adv-x="118" 
 />
    <glyph glyph-name="endash" unicode="&#x2013;" horiz-adv-x="1013" 
d="M999 444h-933v148h933v-148z" />
    <glyph glyph-name="emdash" unicode="&#x2014;" horiz-adv-x="1753" 
d="M1700 444h-1600v148h1600v-148z" />
    <glyph glyph-name="quoteleft" unicode="&#x2018;" horiz-adv-x="503" 
d="M145 1376l265 -567h-172l-279 567h186z" />
    <glyph glyph-name="quoteright" unicode="&#x2019;" horiz-adv-x="544" 
d="M115 809l264 567h186l-278 -567h-172z" />
    <glyph glyph-name="quotesinglbase" unicode="&#x201a;" horiz-adv-x="552" 
d="M78 -307l264 567h186l-278 -567h-172z" />
    <glyph glyph-name="quotedblleft" unicode="&#x201c;" horiz-adv-x="1095" 
d="M248 1376l264 -567h-172l-279 567h187zM696 1376l265 -567h-173l-278 567h186z" />
    <glyph glyph-name="quotedblright" unicode="&#x201d;" horiz-adv-x="952" 
d="M63 809l265 567h186l-278 -567h-173zM465 809l264 567h186l-278 -567h-172z" />
    <glyph glyph-name="quotedblbase" unicode="&#x201e;" horiz-adv-x="983" 
d="M82 -309l264 567h186l-278 -567h-172zM483 -309l265 567h186l-279 -567h-172z" />
    <glyph glyph-name="dagger" unicode="&#x2020;" horiz-adv-x="1048" 
d="M625 854v-854h-164v854h-348v133h348v354h164v-354h350v-133h-350z" />
    <glyph glyph-name="daggerdbl" unicode="&#x2021;" horiz-adv-x="1040" 
d="M625 530h350v-133h-350v-397h-164v397h-348v133h348v324h-348v133h348v354h164v-354h350v-133h-350v-324z" />
    <glyph glyph-name="bullet" unicode="&#x2022;" horiz-adv-x="987" 
d="M864 543q0 -140 -102 -240t-244 -100q-143 0 -246.5 100t-103.5 240q0 138 103.5 237t246.5 99q141 0 243.5 -99t102.5 -237z" />
    <glyph glyph-name="ellipsis" unicode="&#x2026;" horiz-adv-x="1615" 
d="M1272 0v190h188v-190h-188zM209 0v190h188v-190h-188zM741 0v190h189v-190h-189z" />
    <glyph glyph-name="perthousand" unicode="&#x2030;" horiz-adv-x="2643" 
d="M881 1075q0 -140 -101 -236t-245 -96q-141 0 -243 96.5t-102 235.5q0 135 102 230.5t243 95.5q143 0 244.5 -95t101.5 -231zM729 1077q0 81 -56 136t-138 55q-78 0 -134.5 -56t-56.5 -135q0 -85 56 -142.5t135 -57.5q83 0 138.5 56t55.5 144zM346 2l1038 1374h185
l-1034 -1374h-189zM1753 309q0 -140 -101 -236t-245 -96q-141 0 -242.5 96t-101.5 236q0 136 101.5 231t242.5 95q143 0 244.5 -95t101.5 -231zM1602 311q0 81 -56.5 136t-138.5 55q-78 0 -134 -56t-56 -135q0 -85 55.5 -142.5t134.5 -57.5q83 0 139 56t56 144zM2531 309
q0 -140 -101 -236t-245 -96q-141 0 -242.5 96t-101.5 236q0 136 101.5 231t242.5 95q143 0 244.5 -95t101.5 -231zM2380 311q0 81 -56.5 136t-138.5 55q-78 0 -134 -56t-56 -135q0 -85 55.5 -142.5t134.5 -57.5q83 0 139 56t56 144z" />
    <glyph glyph-name="guilsinglleft" unicode="&#x2039;" horiz-adv-x="714" 
d="M408 946h182l-256 -418l256 -411h-182l-265 411z" />
    <glyph glyph-name="guilsinglright" unicode="&#x203a;" horiz-adv-x="698" 
d="M176 948h182l265 -418l-265 -411h-182l256 411z" />
    <glyph glyph-name="fraction" unicode="&#x2044;" horiz-adv-x="1583" 
d="M217 0l1038 1374h185l-1034 -1374h-189z" />
    <glyph glyph-name="Euro" unicode="&#x20ac;" horiz-adv-x="1548" 
d="M111 604h174q-4 62 -4 96q0 50 6 99h-176v133h208q77 215 280.5 341t457.5 126q115 0 220 -25.5t175 -66.5v-131q-98 52 -191.5 74t-216.5 22q-191 0 -341.5 -87t-215.5 -253h750v-133h-782q-6 -46 -6 -97q0 -36 4 -98h784v-133h-760q38 -130 123 -215t195.5 -121.5
t248.5 -36.5q225 0 408 105v-142q-159 -86 -395 -86q-131 0 -248 29t-217.5 87t-174.5 155.5t-108 224.5h-198v133z" />
    <glyph glyph-name="afii61289" unicode="&#x2113;" horiz-adv-x="1181" 
d="M1004 293l94 -84q-183 -236 -416 -236q-289 0 -326 291l-137 -90l-74 117l199 139v639q0 155 79 242.5t214 87.5q139 0 210 -85.5t71 -240.5q0 -342 -408 -704v-68q0 -93 49 -142.5t133 -49.5q83 0 169 52t143 132zM508 1083v-514q260 260 260 525q0 87 -35 127.5
t-96 40.5q-57 0 -93 -48t-36 -131z" />
    <glyph glyph-name="afii61352" unicode="&#x2116;" horiz-adv-x="2377" 
d="M2263 516h-668v137h668v-137zM2275 1075q0 -140 -101 -236t-245 -96q-141 0 -242.5 96t-101.5 236q0 136 101.5 231t242.5 95q143 0 244.5 -95t101.5 -231zM2124 1077q0 81 -56.5 136t-138.5 55q-78 0 -134 -56t-56 -135q0 -85 55.5 -142.5t134.5 -57.5q83 0 139 56
t56 144zM1409 2v1374h-160v-1116l-889 1116h-163v-1374h159v1131l897 -1131h156z" />
    <glyph glyph-name="published" unicode="&#x2117;" horiz-adv-x="1566" 
d="M834 473h-115v-166h-141v635h256q117 0 191.5 -62t74.5 -173q0 -104 -76 -169t-190 -65zM854 807h-135v-201h133q47 0 74.5 29.5t27.5 75.5q0 44 -26 70t-74 26zM799 1274q141 0 267.5 -51t216.5 -137.5t143 -206t53 -252.5q0 -180 -89.5 -329.5t-246 -236t-344.5 -86.5
q-191 0 -350.5 86.5t-251 236t-91.5 329.5q0 177 91.5 326t251 235t350.5 86zM797 1133q-231 0 -387 -144.5t-156 -367.5q0 -142 71.5 -258t195.5 -181t276 -65q147 0 268.5 64.5t192.5 182t71 263.5q0 216 -153 361t-379 145z" />
    <glyph glyph-name="trademark" unicode="&#x2122;" horiz-adv-x="1611" 
d="M481 741h-131v510h-233v123h600v-123h-236v-510zM1509 743h-145v422l-199 -231l-182 229v-420h-141v631h149l187 -231l190 231h141v-631z" />
    <glyph glyph-name="estimated" unicode="&#x212e;" horiz-adv-x="1615" 
d="M1528 618h-1137v-339q63 -90 184 -145.5t252 -55.5q351 0 525 270l88 -49q-194 -324 -613 -324q-193 0 -355.5 89.5t-257.5 247t-95 347.5q0 145 55.5 273.5t150 218.5t225.5 142.5t277 52.5q200 0 359.5 -92t250.5 -258.5t91 -377.5zM1257 715v346q-65 79 -183 131.5
t-247 52.5q-127 0 -247 -53.5t-189 -136.5v-340h866z" />
    <glyph glyph-name="partialdiff" unicode="&#x2202;" horiz-adv-x="1249" 
d="M633 1376l393 -563q70 -99 100.5 -187t30.5 -194q0 -132 -70 -237t-188 -161.5t-260 -56.5q-230 0 -376 130t-146 327q0 145 70.5 250.5t187 157t264.5 51.5q113 0 184 -35l-381 518h191zM276 434q0 -151 104.5 -238t258.5 -87q151 0 252.5 88t101.5 239q0 152 -98.5 241
t-255.5 89q-169 0 -266 -89t-97 -243z" />
    <glyph glyph-name="product" unicode="&#x220f;" horiz-adv-x="1538" 
d="M1411 1374v-1374h-164v1241h-911v-1241h-164v1374h1239z" />
    <glyph glyph-name="summation" unicode="&#x2211;" horiz-adv-x="1300" 
d="M1219 0h-1072v133l426 569l-387 582v90h1033v-133h-826l369 -536l-440 -572h897v-133z" />
    <glyph glyph-name="minus" unicode="&#x2212;" horiz-adv-x="1171" 
d="M1044 410h-872v161h872v-161z" />
    <glyph glyph-name="radical" unicode="&#x221a;" horiz-adv-x="1462" 
d="M860 0h-170l-358 791h-199v133h311l328 -768l481 1218h166z" />
    <glyph glyph-name="infinity" unicode="&#x221e;" horiz-adv-x="2027" 
d="M1499 47q-131 0 -239 75.5t-205 207.5q-90 -131 -210.5 -208t-246.5 -77q-79 0 -156.5 28.5t-141 80.5t-103 134t-39.5 179q0 99 40 183.5t104 138t141.5 83t154.5 29.5q237 0 467 -276q105 140 207 208t227 68q179 0 297.5 -116t118.5 -314q0 -94 -34 -174.5
t-91.5 -134.5t-133 -84.5t-157.5 -30.5zM588 178q46 0 92 19.5t80.5 45.5t75.5 71.5t64.5 77t60.5 83.5q-192 277 -365 277q-107 0 -189.5 -78.5t-82.5 -206.5t78.5 -208.5t185.5 -80.5zM1499 752q-92 0 -182 -82.5t-152 -186.5q80 -132 162.5 -207t157.5 -75
q104 0 181 77.5t77 196.5q0 121 -69.5 199t-174.5 78z" />
    <glyph glyph-name="integral" unicode="&#x222b;" horiz-adv-x="956" 
d="M350 1038q0 157 83 246.5t265 89.5h125v-129h-137q-170 0 -170 -172v-1081q0 -155 -89 -245.5t-271 -90.5h-115v129h139q170 0 170 172v1081z" />
    <glyph glyph-name="approxequal" unicode="&#x2248;" horiz-adv-x="1273" 
d="M1030 885h139v-86q0 -126 -62.5 -198.5t-162.5 -72.5q-36 0 -74.5 12t-60 23t-65.5 38.5t-58 35.5q-17 9 -59 35.5t-67 40t-65 26.5t-77 13q-68 0 -109 -44t-41 -118v-62h-131v74q0 93 42.5 159t104.5 95t134 29q69 0 134.5 -27t145.5 -76q12 -7 37.5 -23.5t37.5 -24.5
t33.5 -20.5t35 -19t30.5 -13.5t31 -10t27 -3q100 0 100 159v58zM1030 420h139v-86q0 -126 -62.5 -198.5t-162.5 -72.5q-36 0 -74.5 12t-60 23t-65.5 38.5t-58 35.5q-17 9 -59 35.5t-67 40t-65 26.5t-77 13q-68 0 -109 -43.5t-41 -118.5v-62h-131v74q0 93 42.5 159t104.5 95
t134 29q69 0 134.5 -27t145.5 -76q12 -7 37.5 -23.5t37.5 -24.5t33.5 -20.5t35 -19t30.5 -13.5t31 -10t27 -3q100 0 100 159v58z" />
    <glyph glyph-name="notequal" unicode="&#x2260;" horiz-adv-x="1214" 
d="M1087 156h-548l-111 -199h-186l110 199h-180v161h272l195 347h-467v161h559l98 174h183l-99 -174h174v-161h-264l-194 -347h458v-161z" />
    <glyph glyph-name="lessequal" unicode="&#x2264;" horiz-adv-x="1144" 
d="M1020 1073v-166l-637 -229l637 -234v-159l-848 307v178zM1018 0h-846v162h846v-162z" />
    <glyph glyph-name="greaterequal" unicode="&#x2265;" horiz-adv-x="1144" 
d="M195 909v166l847 -303v-178l-847 -307v159l636 234zM1042 2h-845v162h845v-162z" />
    <glyph glyph-name="lozenge" unicode="&#x25ca;" horiz-adv-x="1570" 
d="M803 -37l-701 717l711 721l698 -721zM813 1178l-500 -500l492 -500l500 502z" />
    <glyph glyph-name="exclamdown.cap" horiz-adv-x="602" 
d="M373 934h-142l-12 -934h166zM211 1192v182h180v-182h-180z" />
    <glyph glyph-name="questiondown.cap" horiz-adv-x="1191" 
d="M594 -25q217 0 337 95t120 243q0 29 -8.5 59t-16 49.5t-31.5 54t-32 45t-42 50.5t-38 45l-144 177q-45 55 -45 118v78h-166v-80q0 -63 19.5 -105.5t60.5 -90.5l129 -152q7 -8 24.5 -28.5t24 -28t21 -25t20 -25l16.5 -22.5t15 -23.5t11 -22t9.5 -23.5t4.5 -22t2 -24
q0 -97 -73 -156t-218 -59q-134 0 -223 85t-90 225h-162q1 -122 57 -220.5t165 -157.5t253 -59zM520 1192v182h180v-182h-180z" />
    <glyph glyph-name="emdash.cap" horiz-adv-x="1693" 
d="M1663 444h-1597v148h1597v-148z" />
    <glyph glyph-name="grave.cap" 
d="M713 1464l-183 185h201l158 -185h-176z" />
    <glyph glyph-name="acute.cap" 
d="M946 1649l-182 -185h-176l157 185h201z" />
    <glyph glyph-name="circumflex.cap" 
d="M883 1649l161 -193h-176l-106 109l-105 -109h-176l162 193h240z" />
    <glyph glyph-name="caron.cap" 
d="M659 1649l103 -107l104 107h176l-161 -193h-236l-162 193h176z" />
    <glyph glyph-name="tilde.cap" 
d="M1004 1653h133v-35q0 -84 -41 -129t-109 -45q-72 0 -205 65q-63 31 -97.5 42.5t-66.5 11.5q-36 0 -56.5 -21.5t-20.5 -56.5v-27h-127v29q0 83 57.5 131.5t142.5 48.5q36 0 70.5 -8.5t55 -17.5t61.5 -29q108 -51 145 -51q58 0 58 61v31z" />
    <glyph glyph-name="dieresis.cap" 
d="M461 1475v174h190v-174h-190zM868 1475v174h191v-174h-191z" />
    <glyph glyph-name="macron.cap" 
d="M1108 1518h-705v131h705v-131z" />
    <glyph glyph-name="breve.cap" 
d="M764 1448q-138 0 -214.5 56t-86.5 145h141q13 -101 160 -101q141 0 156 101h139q-6 -89 -81 -145t-214 -56z" />
    <glyph glyph-name="dotaccent.cap" 
d="M666 1475v174h190v-174h-190z" />
    <glyph glyph-name="ring.cap" 
d="M922 1507q0 -71 -45 -114t-113 -43q-70 0 -117 43t-47 114q0 66 47.5 111t116.5 45q66 0 112 -45t46 -111zM836 1507q0 32 -20.5 52t-51.5 20q-33 0 -54.5 -19.5t-21.5 -52.5q0 -34 21.5 -53.5t54.5 -19.5q31 0 51.5 20t20.5 53z" />
    <glyph glyph-name="caronSlovak" 
d="M778 938h-133l121 436h145z" />
    <glyph glyph-name="commaaccent.alt" 
d="M813 1374h164l-154 -221h-168z" />
    <glyph glyph-name="hungarumlaut.cap" 
d="M1016 1458h-164l154 191h168zM666 1458h-164l153 191h168z" />
    <glyph glyph-name="emboxsolid" horiz-adv-x="1810" 
d="M295 0v1257h1266v-1257h-1266z" />
    <glyph glyph-name="embulletsolid" horiz-adv-x="1789" 
d="M1622 612q0 -188 -95 -346t-257.5 -249t-354.5 -91q-141 0 -270 54t-224 145t-151.5 218.5t-56.5 268.5q0 139 56 266t151 218t224.5 144.5t270.5 53.5q115 0 222.5 -34t194.5 -97t152.5 -147t101.5 -188t36 -216z" />
    <glyph glyph-name="dcroat.sc" horiz-adv-x="1175" 
 />
    </font>
</defs>
</svg>
