<?xml version="1.0" standalone="no"?>
<!DOCTYPE svg PUBLIC "-//W3C//DTD SVG 1.1//EN" "http://www.w3.org/Graphics/SVG/1.1/DTD/svg11.dtd" >
<svg xmlns="http://www.w3.org/2000/svg" xmlns:xlink="http://www.w3.org/1999/xlink" version="1.1">
<metadata>
Created by FontForge 20170731 at Mon Aug 11 19:10:00 2014
 By Aleksey,,,
Copyright (c) 2014 by Olivier Nineuil. All rights reserved.
</metadata>
<defs>
<font id="HappinessV" horiz-adv-x="734" >
  <font-face 
    font-family="HappinessV"
    font-weight="400"
    font-stretch="normal"
    units-per-em="1000"
    panose-1="2 0 5 3 4 0 0 2 0 4"
    ascent="800"
    descent="-200"
    x-height="503"
    cap-height="671"
    bbox="-71 -225 1237 951"
    underline-thickness="50"
    underline-position="-200"
    unicode-range="U+0020-FB04"
  />
<missing-glyph horiz-adv-x="426" 
d="M-5 7v628h450v-628h-450zM246 321l158 -238v474zM36 557v-473q27 40 79 119t79 118zM220 360l158 236h-315q29 -44 82 -123.5zM63 46h315l-158 236q-26 -40 -78.5 -118t-78.5 -118z" />
    <glyph glyph-name="f_f" unicode="ff" horiz-adv-x="660" 
d="M93 0v411h-78v92h78v11q0 72 43.5 114.5t116.5 42.5h123v-88h-97q-27 0 -42.5 -16t-15.5 -43v-21h86v1h68v11q0 72 43.5 114.5t116.5 42.5h121v-88h-95q-57 0 -57 -55v-25h146v-92h-130v-1h-16v-410h-129v410h-154v-411h-128z" />
    <glyph glyph-name="fi" unicode="fi" horiz-adv-x="619" 
d="M431 503v1h128v-503h-128v410h-210v-411h-128v411h-78v92h78v11q0 72 43.5 114.5t116.5 42.5h111v-88h-85q-27 0 -42.5 -16t-15.5 -43v-21h210zM430 563v109h128v-109h-128z" />
    <glyph glyph-name="fl" unicode="fl" horiz-adv-x="692" 
d="M93 411v-411h128v411h131v92h-131v21q0 27 15.5 43t42.5 16h73v88h-99q-73 0 -116.5 -42.5t-43.5 -114.5v-11h-78v-92h78zM552 153q0 -32 15 -44.5t46 -12.5h68v-95h-95q-83 0 -122.5 37.5t-39.5 119.5v514h128v-519z" />
    <glyph glyph-name="f_f_i" unicode="ffi" horiz-adv-x="921" 
d="M733 503v1h128v-503h-128v410h-192v-411h-129v411h-191v-411h-128v411h-78v92h78v11q0 72 43.5 114.5t116.5 42.5h101v-88h-75q-27 0 -42.5 -16t-15.5 -43v-21h191v11q0 72 43.5 114.5t116.5 42.5h100v-88h-74q-27 0 -42 -16t-15 -43v-21h192zM732 563v109h128v-109h-128
z" />
    <glyph glyph-name="f_f_l" unicode="ffl" horiz-adv-x="1002" 
d="M93 411v-411h128v411h191v-411h129v411h123v92h-123v21q0 27 15 43t42 16h74v88h-100q-73 0 -116.5 -42.5t-43.5 -114.5v-11h-191v21q0 27 15.5 43t42.5 16h75v88h-101q-73 0 -116.5 -42.5t-43.5 -114.5v-11h-78v-92h78zM862 153q0 -32 15 -44.5t46 -12.5h68v-95h-95
q-83 0 -122.5 37.5t-39.5 119.5v514h128v-519z" />
    <glyph glyph-name=".notdef" horiz-adv-x="426" 
d="M-5 7v628h450v-628h-450zM246 321l158 -238v474zM36 557v-473q27 40 79 119t79 118zM220 360l158 236h-315q29 -44 82 -123.5zM63 46h315l-158 236q-26 -40 -78.5 -118t-78.5 -118z" />
    <glyph glyph-name=".null" horiz-adv-x="0" 
 />
    <glyph glyph-name="nonmarkingreturn" horiz-adv-x="333" 
 />
    <glyph glyph-name="space" unicode=" " horiz-adv-x="255" 
 />
    <glyph glyph-name="exclam" unicode="!" horiz-adv-x="306" 
d="M214 215h-104l-16 456h138zM93 134v-132h134v132h-134z" />
    <glyph glyph-name="quotedbl" unicode="&#x22;" horiz-adv-x="524" 
d="M47 395l125 277h136l-140 -277h-121zM265 395l125 277h136l-140 -277h-121z" />
    <glyph glyph-name="numbersign" unicode="#" horiz-adv-x="862" 
d="M452 0l41 190h-176l-41 -190h-123l41 190h-108v103h131l25 115h-121v98h142l36 165h123l-36 -165h177l36 165h123l-36 -165h104v-98h-125l-25 -115h112v-103h-135l-41 -190h-124zM365 408l-25 -115h176l25 115h-176z" />
    <glyph glyph-name="dollar" unicode="$" horiz-adv-x="685" 
d="M407 -109h-97v100q-77 5 -146 31t-114 67l94 85q66 -68 166 -80v198l-31 5q-83 12 -142 61t-59 129q0 87 62 137t170 58v70h97v-70q126 -9 216 -74l-91 -82q-59 40 -125 51v-185l52 -7q89 -13 138 -62.5t49 -128.5q0 -80 -64 -135t-175 -67v-101zM415 278l-8 1v-182
q97 18 97 98q0 72 -89 83zM220 495q0 -72 90 -89v171q-44 -7 -67 -29t-23 -53z" />
    <glyph glyph-name="percent" unicode="%" horiz-adv-x="929" 
d="M857 151q0 -69 -49 -115.5t-119 -46.5q-69 0 -118 47t-49 115q0 66 49 112.5t118 46.5q70 0 119 -46t49 -113zM756 151q0 26 -19.5 46t-47.5 20q-27 0 -46.5 -20t-19.5 -46q0 -28 19.5 -48.5t46.5 -20.5q28 0 47.5 20.5t19.5 48.5zM144 1l507 671h145l-505 -671h-147z
M431 525q0 -69 -49 -115.5t-119 -46.5q-69 0 -118 47t-49 115q0 66 49 112.5t118 46.5q70 0 119 -46t49 -113zM330 525q0 26 -19.5 46t-47.5 20q-27 0 -46.5 -20t-19.5 -46q0 -28 19.5 -48.5t46.5 -20.5q28 0 47.5 20.5t19.5 48.5z" />
    <glyph glyph-name="ampersand" unicode="&#x26;" horiz-adv-x="812" 
d="M221 322l40 23q-57 50 -85.5 91.5t-28.5 84.5q0 72 58.5 117t168.5 45q113 0 173.5 -45.5t60.5 -116.5q0 -85 -108 -149l-56 -34l163 -144q43 55 48 124h113q-11 -109 -81 -194l134 -118v-6h-157l-59 50q-98 -62 -234 -62q-140 0 -210 46.5t-70 128.5q0 24 9 46t19 36
t32.5 31t33 24t36.5 22zM373 86q81 0 148 36l-180 154l-17 -10q-49 -28 -70.5 -49.5t-21.5 -51.5q0 -37 35.5 -58t105.5 -21zM279 522q0 -19 12 -38.5t23.5 -31t40.5 -36.5l10 -9l43 25q67 39 67 91q0 32 -26.5 51.5t-71.5 19.5q-46 0 -72 -19t-26 -53z" />
    <glyph glyph-name="quotesingle" unicode="'" horiz-adv-x="291" 
d="M25 394l125 277h136l-140 -277h-121z" />
    <glyph glyph-name="parenleft" unicode="(" horiz-adv-x="367" 
d="M329 -85h-131q-118 185 -118 398q0 203 109 370h131q-118 -185 -118 -372q0 -195 127 -396z" />
    <glyph glyph-name="parenright" unicode=")" horiz-adv-x="370" 
d="M196 -84h-131q127 201 127 396q0 187 -118 372h131q109 -167 109 -370q0 -213 -118 -398z" />
    <glyph glyph-name="asterisk" unicode="*" horiz-adv-x="422" 
d="M87 626l86 -35l-4 92h93l-3 -91q8 3 39.5 16t47.5 19l33 -87l-91 -32l55 -75l-75 -54l-54 76l-51 -72l-74 52l56 73l-90 32z" />
    <glyph glyph-name="plus" unicode="+" horiz-adv-x="632" 
d="M382 0h-118v190h-178v102h178v178h118v-178h179v-102h-179v-190z" />
    <glyph glyph-name="comma" unicode="," horiz-adv-x="270" 
d="M8 -151l125 277h136l-140 -277h-121z" />
    <glyph glyph-name="hyphen" unicode="-" horiz-adv-x="521" 
d="M436 202h-335v102h335v-102z" />
    <glyph glyph-name="period" unicode="." horiz-adv-x="282" 
d="M79 0v136h138v-136h-138z" />
    <glyph glyph-name="slash" unicode="/" horiz-adv-x="723" 
d="M55 -65l505 771h135l-502 -771h-138z" />
    <glyph glyph-name="zero" unicode="0" horiz-adv-x="687" 
d="M343 683q289 0 289 -293v-111q0 -144 -74 -217.5t-215 -73.5q-140 0 -214 73.5t-74 217.5v111q0 293 288 293zM343 84q79 0 114.5 48t35.5 157v90q0 109 -35.5 159t-114.5 50t-114 -50t-35 -159v-90q0 -109 34.5 -157t114.5 -48z" />
    <glyph glyph-name="one" unicode="1" horiz-adv-x="532" 
d="M51 470l227 201h150v-671h-135v537l-166 -152z" />
    <glyph glyph-name="two" unicode="2" horiz-adv-x="603" 
d="M563 494q0 -52 -34.5 -100.5t-103.5 -112.5l-188 -175h324v-106h-496v99l265 245q98 90 98 148q0 42 -27.5 69t-85.5 27q-55 0 -88 -32t-37 -87h-133q5 97 73.5 155.5t184.5 58.5q124 0 186 -52t62 -137z" />
    <glyph glyph-name="three" unicode="3" horiz-adv-x="627" 
d="M581 499q0 -98 -109 -150q55 -19 90 -58.5t35 -95.5q0 -96 -72 -151.5t-204 -55.5q-108 0 -179.5 49t-87.5 143h138q20 -95 129 -95q64 0 101.5 28t37.5 81q0 48 -37 74t-95 26h-81v104h71q62 0 94 27t32 71q0 42 -30 66t-91 24q-46 0 -78.5 -26t-39.5 -71h-137
q13 88 80 141t175 53q125 0 191.5 -50t66.5 -134z" />
    <glyph glyph-name="four" unicode="4" horiz-adv-x="700" 
d="M529 406v-166h137v-102h-137v-138h-132v138h-333v102l282 431h144l-279 -431h186v166h132z" />
    <glyph glyph-name="five" unicode="5" horiz-adv-x="663" 
d="M560 576h-293l-34 -154q50 31 123 31q120 0 193 -60t73 -174q0 -101 -77 -165t-204 -64q-111 0 -185 51.5t-82 141.5h139q8 -47 40.5 -73t87.5 -26q67 0 105 35t38 100q0 66 -38.5 104t-104.5 38q-44 0 -80 -20t-53 -48l-121 35l78 355h395v-107z" />
    <glyph glyph-name="six" unicode="6" horiz-adv-x="648" 
d="M114 397l183 274h153l-151 -222q13 3 30 3q119 0 194.5 -61t75.5 -172q0 -105 -76 -168t-198 -63t-196 62.5t-74 167.5q0 90 59 179zM465 218q0 62 -39.5 99t-100.5 37q-62 0 -99 -36t-37 -100q0 -63 37.5 -98t98.5 -35t100.5 35t39.5 98z" />
    <glyph glyph-name="seven" unicode="7" horiz-adv-x="572" 
d="M51 565v106h494v-109l-311 -562h-143l318 565h-358z" />
    <glyph glyph-name="eight" unicode="8" horiz-adv-x="648" 
d="M330 683q124 0 191 -49.5t67 -136.5q0 -96 -107 -148q56 -19 91.5 -60.5t35.5 -98.5q0 -97 -74 -149.5t-205 -52.5q-128 0 -201.5 53t-73.5 149q0 57 35 98.5t91 60.5q-107 50 -107 148q0 87 67 136.5t190 49.5zM330 81q67 0 104 29.5t37 80.5t-39 81t-102 30t-101 -30
t-38 -81t36.5 -80.5t102.5 -29.5zM330 397q57 0 88 27.5t31 70.5q0 42 -31.5 68.5t-87.5 26.5t-88 -26.5t-32 -68.5q0 -43 32.5 -70.5t87.5 -27.5z" />
    <glyph glyph-name="nine" unicode="9" horiz-adv-x="608" 
d="M519 274l-183 -274h-153l151 222q-14 -3 -30 -3q-119 0 -194.5 61t-75.5 172q0 105 76 168t198 63t196 -62.5t74 -167.5q0 -91 -59 -179zM168 453q0 -62 39.5 -99t100.5 -37q62 0 99 36t37 100q0 63 -37.5 98t-98.5 35t-100.5 -35t-39.5 -98z" />
    <glyph glyph-name="colon" unicode=":" horiz-adv-x="287" 
d="M79 1v136h138v-136h-138zM79 368v136h138v-136h-138z" />
    <glyph glyph-name="semicolon" unicode=";" horiz-adv-x="293" 
d="M110 380v136h138v-136h-138zM8 -151l125 277h136l-140 -277h-121z" />
    <glyph glyph-name="less" unicode="&#x3c;" horiz-adv-x="604" 
d="M373 597h189l-361 -297l361 -300h-189l-313 262v77z" />
    <glyph glyph-name="equal" unicode="=" horiz-adv-x="605" 
d="M533 63h-447v102h447v-102zM533 311h-447v102h447v-102z" />
    <glyph glyph-name="greater" unicode="&#x3e;" horiz-adv-x="570" 
d="M50 598h189l313 -258v-77l-313 -262h-189l361 300z" />
    <glyph glyph-name="question" unicode="?" horiz-adv-x="594" 
d="M304 683q107 0 168.5 -47.5t61.5 -120.5q0 -67 -59 -135l-77 -89q-22 -25 -22 -57v-46h-128v63q0 33 6.5 50t25.5 38l73 79q45 50 45 97q0 32 -25 54.5t-69 22.5q-49 0 -78.5 -30.5t-29.5 -91.5h-129q0 98 63.5 155.5t173.5 57.5zM243 134v-132h135v132h-135z" />
    <glyph glyph-name="at" unicode="@" horiz-adv-x="1169" 
d="M698 228v32h-125q-42 0 -67 -19t-25 -50q0 -33 23.5 -51t67.5 -18q49 0 87.5 29t38.5 77zM353 189q0 69 58 110t150 41h137v41q0 34 -30.5 54.5t-84.5 20.5q-78 0 -155 -44l-52 85q95 53 215 53q116 0 175.5 -45t59.5 -131v-175q2 -30 20 -44.5t43 -14.5q37 0 62 42.5
t25 141.5q0 148 -107.5 247.5t-280.5 99.5q-168 0 -279 -111.5t-111 -284.5q0 -175 123 -277.5t308 -102.5q159 0 279 83l46 -94q-59 -41 -146 -65.5t-177 -24.5q-147 0 -269 56.5t-197 167t-75 255.5q0 213 143.5 354t355.5 141q213 0 354 -128.5t141 -315.5
q0 -141 -58 -211t-138 -70q-85 0 -125 55q-47 -38 -95 -54.5t-119 -16.5q-85 0 -140.5 43t-55.5 119z" />
    <glyph glyph-name="A" unicode="A" horiz-adv-x="797" 
d="M146 0h-139l312 671h147l321 -671h-150l-72 163h-347zM520 263l-128 289l-129 -289h257z" />
    <glyph glyph-name="B" unicode="B" horiz-adv-x="658" 
d="M617 486q0 -91 -103 -138q55 -17 86 -59t31 -94q0 -85 -69 -140t-176 -55h-321v671h303q117 0 183 -49.5t66 -135.5zM362 570h-165v-173h165q57 0 88 22t31 61t-31.5 64.5t-87.5 25.5zM197 295v-194h178q60 0 90 30.5t30 69.5t-29.5 66.5t-90.5 27.5h-178z" />
    <glyph glyph-name="C" unicode="C" horiz-adv-x="705" 
d="M369 -12q-155 0 -236 78t-81 216v92q0 144 83 226.5t234 82.5q135 0 216 -58t97 -156h-147q-30 119 -164 119q-89 0 -134.5 -56.5t-45.5 -161.5v-76q0 -103 42.5 -156.5t137.5 -53.5q65 0 108 30.5t56 89.5h146q-14 -100 -95.5 -158t-216.5 -58z" />
    <glyph glyph-name="D" unicode="D" horiz-adv-x="715" 
d="M65 671h263q166 0 254 -77t88 -221v-82q0 -127 -91 -209t-251 -82h-263v671zM197 568v-465h131q94 0 149 50t55 151v68q0 96 -55 146t-149 50h-131z" />
    <glyph glyph-name="E" unicode="E" horiz-adv-x="599" 
d="M65 0v671h509v-103h-377v-170h342v-103h-342v-192h377v-103h-509z" />
    <glyph glyph-name="F" unicode="F" horiz-adv-x="559" 
d="M65 0v671h474v-103h-342v-213h320v-102h-320v-253h-132z" />
    <glyph glyph-name="G" unicode="G" horiz-adv-x="723" 
d="M366 348h312v-85q0 -127 -82 -201t-239 -74q-148 0 -230 77.5t-82 219.5v100q0 57 16 107.5t50.5 95t97 70t147.5 25.5q134 0 212.5 -55.5t100.5 -144.5h-146q-35 105 -167 105q-84 0 -128 -57t-44 -152v-79q0 -216 177 -216q168 0 176 162h-171v102z" />
    <glyph glyph-name="H" unicode="H" horiz-adv-x="770" 
d="M573 393v278h132v-671h-132v282h-376v-282h-132v671h132v-278h376z" />
    <glyph glyph-name="I" unicode="I" horiz-adv-x="296" 
d="M80 0v671h136v-671h-136z" />
    <glyph glyph-name="J" unicode="J" horiz-adv-x="566" 
d="M379 205v466h132v-465q0 -103 -66 -159.5t-187 -56.5q-143 0 -238 86l89 83q58 -68 148 -68q52 0 87 29.5t35 84.5z" />
    <glyph glyph-name="K" unicode="K" horiz-adv-x="724" 
d="M691 671l-310 -285l334 -386h-172l-256 300l-90 -83v-217h-132v671h132v-294l317 294h177z" />
    <glyph glyph-name="L" unicode="L" horiz-adv-x="578" 
d="M197 671v-568h362v-103h-494v671h132z" />
    <glyph glyph-name="M" unicode="M" horiz-adv-x="892" 
d="M641 671h186v-671h-131v426q0 67 3 93h-2l-211 -519h-96l-207 512q4 -54 4 -91v-421h-122v671h185l197 -488z" />
    <glyph glyph-name="N" unicode="N" horiz-adv-x="757" 
d="M571 201v470h121v-671h-129l-376 482v-482h-122v671h129z" />
    <glyph glyph-name="O" unicode="O" horiz-adv-x="726" 
d="M363 683q161 0 239.5 -81t78.5 -215v-97q0 -139 -78.5 -220.5t-239.5 -81.5t-239.5 81.5t-78.5 220.5v97q0 134 78.5 215t239.5 81zM363 84q178 0 178 218v71q0 100 -43 157.5t-135 57.5t-135.5 -57.5t-43.5 -157.5v-71q0 -218 179 -218z" />
    <glyph glyph-name="P" unicode="P" horiz-adv-x="634" 
d="M65 671h287q119 0 191 -57t72 -168q0 -103 -73.5 -163.5t-189.5 -60.5h-155v-222h-132v671zM479 448q0 52 -35 86t-97 34h-150v-242h150q61 0 96.5 36.5t35.5 85.5z" />
    <glyph glyph-name="Q" unicode="Q" horiz-adv-x="726" 
d="M363 684q161 0 239.5 -81t78.5 -215v-97q0 -131 -67 -208l146 -142l-118 -55l-130 127q-67 -24 -149 -24q-161 0 -239.5 81.5t-78.5 220.5v97q0 134 78.5 215t239.5 81zM363 85q178 0 178 218v71q0 100 -43 157.5t-135 57.5t-135.5 -57.5t-43.5 -157.5v-71
q0 -218 179 -218z" />
    <glyph glyph-name="R" unicode="R" horiz-adv-x="694" 
d="M529 0l-189 257h-143v-257h-132v671h322q110 0 180.5 -52t70.5 -154q0 -69 -43.5 -120.5t-113.5 -74.5l205 -270h-157zM197 568v-206h171q63 0 98 28.5t35 74.5q0 103 -126 103h-178z" />
    <glyph glyph-name="S" unicode="S" horiz-adv-x="666" 
d="M301 404l138 -20q89 -13 138 -62.5t49 -128.5q0 -90 -79.5 -147.5t-215.5 -57.5q-87 0 -168.5 26.5t-132.5 73.5l94 85q82 -82 205 -82q77 0 116 27.5t39 75.5q0 72 -89 83l-136 19q-83 12 -142 61t-59 129q0 95 73.5 146t198.5 51q169 0 273 -76l-91 -82q-79 55 -176 55
q-65 0 -100.5 -23.5t-35.5 -62.5q0 -75 101 -90z" />
    <glyph glyph-name="T" unicode="T" horiz-adv-x="622" 
d="M17 568v103h589v-103h-228v-568h-133v568h-228z" />
    <glyph glyph-name="U" unicode="U" horiz-adv-x="718" 
d="M529 243v428h134v-429q0 -113 -80 -183.5t-223 -70.5q-146 0 -225.5 70t-79.5 184v429h132v-428q0 -73 44.5 -115t128.5 -42q82 0 125.5 41.5t43.5 115.5z" />
    <glyph glyph-name="V" unicode="V" horiz-adv-x="702" 
d="M154 671l201 -541l199 541h138l-265 -671h-149l-266 671h142z" />
    <glyph glyph-name="W" unicode="W" horiz-adv-x="1051" 
d="M910 671h128l-218 -671h-119l-178 475l-178 -475h-115l-217 671h140l148 -479l177 479h105l172 -479z" />
    <glyph glyph-name="X" unicode="X" horiz-adv-x="725" 
d="M359 437l178 234h149l-247 -318l278 -353h-166l-192 251l-194 -251h-154l265 342l-254 329h160z" />
    <glyph glyph-name="Y" unicode="Y" horiz-adv-x="686" 
d="M533 671h144l-269 -422v-249h-132v249l-267 422h152l184 -304z" />
    <glyph glyph-name="Z" unicode="Z" horiz-adv-x="626" 
d="M587 586l-365 -477h358v-109h-535v93l367 469h-357v109h532v-85z" />
    <glyph glyph-name="bracketleft" unicode="[" horiz-adv-x="392" 
d="M110 -85v768h253v-106h-127v-556h127v-106h-253z" />
    <glyph glyph-name="backslash" unicode="\" horiz-adv-x="723" 
d="M189 707l505 -771h-138l-502 771h135z" />
    <glyph glyph-name="bracketright" unicode="]" horiz-adv-x="388" 
d="M316 692v-768h-253v106h127v556h-127v106h253z" />
    <glyph glyph-name="asciicircum" unicode="^" horiz-adv-x="520" 
d="M468 337h-112l-86 198q-64 -151 -83 -198h-112l135 311h120z" />
    <glyph glyph-name="underscore" unicode="_" horiz-adv-x="547" 
d="M522 -127h-491v90h491v-90z" />
    <glyph glyph-name="grave" unicode="`" 
d="M370 554l-124 117h153l103 -117h-132z" />
    <glyph glyph-name="a" unicode="a" horiz-adv-x="571" 
d="M42 151q0 67 57 109t165 42h136v41q0 36 -25.5 56t-92.5 20q-88 0 -135 -47l-87 65q85 76 225 76q120 0 181.5 -45.5t61.5 -131.5v-280q0 -15 -18 -23q-90 -43 -208 -43q-123 0 -191.5 47t-68.5 114zM400 103v119h-129q-51 0 -77.5 -19t-26.5 -50q0 -34 33.5 -53.5
t98.5 -19.5q62 0 101 23z" />
    <glyph glyph-name="b" unicode="b" horiz-adv-x="613" 
d="M576 294v-81q0 -223 -262 -223q-259 0 -259 215v466h129v-189q59 31 140 31q129 0 190.5 -58.5t61.5 -160.5zM184 308v-98q0 -64 36 -95.5t94 -31.5q62 0 97 31.5t35 95.5v82q0 66 -33 97.5t-102 31.5q-59 0 -93 -30t-34 -83z" />
    <glyph glyph-name="c" unicode="c" horiz-adv-x="565" 
d="M416 172h132q-11 -89 -79 -135.5t-168 -46.5q-264 0 -264 227v75q0 109 68 165t192 56q103 0 168.5 -41t76.5 -123h-130q-17 72 -116 72q-59 0 -93.5 -31t-34.5 -92v-87q0 -71 33 -99.5t98 -28.5q48 0 79 23.5t38 65.5z" />
    <glyph glyph-name="d" unicode="d" horiz-adv-x="613" 
d="M37 213v81q0 102 61.5 160.5t190.5 58.5q81 0 140 -31v189h129v-466q0 -215 -259 -215q-262 0 -262 223zM429 210v98q0 53 -34 83t-93 30q-69 0 -102 -31.5t-33 -97.5v-82q0 -64 35 -95.5t97 -31.5q58 0 94 31.5t36 95.5z" />
    <glyph glyph-name="e" unicode="e" horiz-adv-x="582" 
d="M460 142l82 -70q-89 -82 -237 -82q-126 0 -201.5 64t-75.5 183v24q0 115 70.5 183.5t192.5 68.5q129 0 196 -67.5t67 -187.5v-44h-395v-4q0 -60 41.5 -92.5t106.5 -32.5q88 0 153 57zM159 297h264q-2 61 -38 93.5t-94 32.5q-55 0 -92.5 -34.5t-39.5 -91.5z" />
    <glyph glyph-name="f" unicode="f" horiz-adv-x="368" 
d="M83 0v411h-68v92h68v11q0 72 43.5 114.5t116.5 42.5h121v-88h-95q-57 0 -57 -55v-25h146v-92h-146v-411h-129z" />
    <glyph glyph-name="g" unicode="g" horiz-adv-x="606" 
d="M37 229v60q0 107 70 165.5t191 58.5t190 -58t69 -174v-264q0 -102 -69 -162.5t-202 -60.5q-143 0 -232 77l84 77q57 -57 148 -57q69 0 105 28.5t36 82.5v37q-61 -34 -140 -34q-121 0 -185.5 60t-64.5 164zM428 217v81q0 62 -36.5 92.5t-93.5 30.5q-58 0 -94.5 -30.5
t-36.5 -92.5v-77q0 -123 132 -123q129 0 129 119z" />
    <glyph glyph-name="h" unicode="h" horiz-adv-x="601" 
d="M325 513q229 0 229 -211v-302h-131v304q0 115 -116 115q-55 0 -89 -29t-34 -85v-305h-129v671h129v-191q61 33 141 33z" />
    <glyph glyph-name="i" unicode="i" horiz-adv-x="248" 
d="M60 0v503h128v-503h-128zM60 562v109h128v-109h-128z" />
    <glyph glyph-name="j" unicode="j" horiz-adv-x="304" 
d="M110 -39v542h129v-547q0 -70 -49 -111t-126 -41h-62v95h42q66 0 66 62zM111 562v109h128v-109h-128z" />
    <glyph glyph-name="k" unicode="k" horiz-adv-x="584" 
d="M322 288l255 -288h-162l-180 208l-52 -48v-160h-128v671h128v-363l212 195h160z" />
    <glyph glyph-name="l" unicode="l" horiz-adv-x="323" 
d="M183 152q0 -32 15 -44.5t46 -12.5h68v-95h-95q-83 0 -122.5 37.5t-39.5 119.5v514h128v-519z" />
    <glyph glyph-name="m" unicode="m" horiz-adv-x="959" 
d="M670 513q109 0 174 -52.5t65 -164.5v-296h-129v295q0 63 -33.5 93.5t-82.5 30.5q-51 0 -84 -26.5t-33 -79.5v-313h-130v301q0 59 -34 88.5t-83 29.5q-52 0 -84 -28t-32 -82v-309h-129v503h109l7 -39q60 49 148 49q124 0 178 -73q32 33 78.5 53t94.5 20z" />
    <glyph glyph-name="n" unicode="n" horiz-adv-x="606" 
d="M334 513q225 0 225 -211v-302h-130v304q0 115 -121 115q-58 0 -91 -29t-33 -80v-310h-129v503h109l7 -40q72 50 163 50z" />
    <glyph glyph-name="o" unicode="o" horiz-adv-x="583" 
d="M417 201v100q0 120 -125 120q-57 0 -91.5 -29t-34.5 -91v-100q0 -61 34.5 -89.5t91.5 -28.5q125 0 125 118zM548 292v-75q0 -227 -256 -227q-257 0 -257 229v73q0 106 66 163.5t191 57.5t190.5 -57.5t65.5 -163.5z" />
    <glyph glyph-name="p" unicode="p" horiz-adv-x="613" 
d="M576 290v-81q0 -102 -61.5 -160.5t-190.5 -58.5q-81 0 -140 31v-217h-129v494q0 215 259 215q262 0 262 -223zM184 293v-98q0 -53 34 -83t93 -30q69 0 102 31.5t33 97.5v82q0 64 -35 95.5t-97 31.5q-58 0 -94 -31.5t-36 -95.5z" />
    <glyph glyph-name="q" unicode="q" horiz-adv-x="613" 
d="M37 209v81q0 223 262 223q259 0 259 -215v-494h-129v217q-59 -31 -140 -31q-129 0 -190.5 58.5t-61.5 160.5zM429 195v98q0 64 -36 95.5t-94 31.5q-62 0 -97 -31.5t-35 -95.5v-82q0 -66 33 -97.5t102 -31.5q59 0 93 30t34 83z" />
    <glyph glyph-name="r" unicode="r" horiz-adv-x="368" 
d="M353 503v-92h-91q-83 0 -83 -83v-328h-129v324q0 81 49 130t135 49h119z" />
    <glyph glyph-name="s" unicode="s" horiz-adv-x="518" 
d="M334 295q163 -22 163 -143q0 -76 -65 -119t-177 -43q-147 0 -235 77l80 72q60 -55 157 -55q110 0 110 61q0 50 -63 57l-101 12q-72 9 -117 46.5t-45 102.5q0 70 59.5 110t161.5 40q130 0 209 -67l-77 -67q-58 43 -129 43q-44 0 -69 -14.5t-25 -40.5q0 -50 60 -58z" />
    <glyph glyph-name="t" unicode="t" horiz-adv-x="397" 
d="M220 162q0 -35 16.5 -51t54.5 -16h91v-95h-128q-163 0 -163 166v245h-73v92h73v168h129v-168h162v-92h-162v-249z" />
    <glyph glyph-name="u" unicode="u" horiz-adv-x="588" 
d="M294 -10q-244 0 -244 218v295h129v-302q0 -117 115 -117t115 117v302h129v-295q0 -218 -244 -218z" />
    <glyph glyph-name="v" unicode="v" horiz-adv-x="571" 
d="M432 503h128l-215 -503h-128l-208 503h131l146 -377z" />
    <glyph glyph-name="w" unicode="w" horiz-adv-x="866" 
d="M728 503h129l-177 -503h-120l-128 330l-127 -330h-123l-170 503h135l107 -341q13 34 59.5 155t72.5 186h99l133 -341z" />
    <glyph glyph-name="x" unicode="x" horiz-adv-x="591" 
d="M217 259l-194 244h157l116 -157l117 157h151l-193 -242l211 -261h-158l-132 172l-132 -172h-153z" />
    <glyph glyph-name="y" unicode="y" horiz-adv-x="578" 
d="M145 503l146 -321l142 321h134l-264 -571q-31 -68 -82.5 -98t-134.5 -30h-48v94h47q42 0 68 15.5t46 61.5l31 69l-220 459h135z" />
    <glyph glyph-name="z" unicode="z" horiz-adv-x="525" 
d="M495 415l-299 -318h299v-97h-460v88l298 318h-280v97h442v-88z" />
    <glyph glyph-name="braceleft" unicode="{" horiz-adv-x="422" 
d="M76 246h-19v106h19q63 0 63 64v109q0 73 40.5 115.5t118.5 42.5h79v-107h-39q-76 0 -76 -90v-83q0 -82 -75 -104q37 -9 56 -36.5t19 -63.5v-83q0 -51 17.5 -73t58.5 -22h39v-106h-79q-159 0 -159 162v109q0 26 -17.5 43t-45.5 17z" />
    <glyph glyph-name="bar" unicode="|" horiz-adv-x="279" 
d="M200 -126h-107v797h107v-797z" />
    <glyph glyph-name="braceright" unicode="}" horiz-adv-x="410" 
d="M370 366h19v-106h-19q-63 0 -63 -64v-109q0 -73 -40.5 -115.5t-118.5 -42.5h-79v107h39q76 0 76 90v83q0 82 75 104q-37 9 -56 36.5t-19 63.5v83q0 51 -17.5 73t-58.5 22h-39v106h79q159 0 159 -162v-109q0 -26 17.5 -43t45.5 -17z" />
    <glyph glyph-name="asciitilde" unicode="~" horiz-adv-x="636" 
d="M477 351h99q0 -94 -34.5 -135.5t-102.5 -41.5q-42 0 -122 40q-62 32 -87 32q-24 0 -41 -17.5t-17 -51.5h-100q0 86 42.5 130t104.5 44q43 0 123 -40q66 -32 89 -32q27 0 36.5 16.5t9.5 55.5z" />
    <glyph glyph-name="uni00A0" unicode="&#xa0;" horiz-adv-x="164" 
 />
    <glyph glyph-name="exclamdown" unicode="&#xa1;" horiz-adv-x="306" 
d="M214 287h-104l-16 -456h138zM93 368v132h134v-132h-134z" />
    <glyph glyph-name="cent" unicode="&#xa2;" horiz-adv-x="621" 
d="M393 -109h-97v103q-211 21 -211 224v75q0 97 55 152t156 66v79h97v-79q83 -9 135.5 -49t61.5 -112h-130q-12 51 -67 66v-326q59 19 71 83h132q-9 -79 -64 -125t-139 -55v-102zM216 212q0 -104 80 -123v327q-80 -23 -80 -117v-87z" />
    <glyph glyph-name="sterling" unicode="&#xa3;" horiz-adv-x="629" 
d="M570 0h-487v103h27q27 0 45 14.5t18 42.5v135h-90v101h90v92q0 89 68 142t185 53q76 0 141 -25v-100q-61 23 -128 23q-61 0 -98 -27t-37 -75v-83h229v-101h-229v-130q0 -44 -21 -62h287v-103z" />
    <glyph glyph-name="currency" unicode="&#xa4;" horiz-adv-x="733" 
d="M645 323q0 -78 -41 -142l81 -79l-91 -86l-83 79q-65 -36 -138 -36q-74 0 -135 33l-80 -79l-90 85l77 79q-44 67 -44 146q0 73 39 138l-73 72l90 86l72 -72q67 39 144 39q81 0 148 -43l74 73l89 -86l-76 -75q37 -61 37 -132zM525 323q0 62 -44.5 107.5t-107.5 45.5
t-108 -45.5t-45 -107.5q0 -63 45 -108.5t108 -45.5t107.5 45.5t44.5 108.5z" />
    <glyph glyph-name="yen" unicode="&#xa5;" horiz-adv-x="771" 
d="M661 176h-207v-175h-132v175h-224v83h218l-42 67h-176v83h123l-166 263h152l184 -304l188 304h144l-168 -263h106v-83h-159l-43 -67h202v-83z" />
    <glyph glyph-name="brokenbar" unicode="&#xa6;" horiz-adv-x="279" 
d="M200 354h-107v317h107v-317zM200 -126h-107v316h107v-316z" />
    <glyph glyph-name="section" unicode="&#xa7;" horiz-adv-x="673" 
d="M369 164q48 0 84 22.5t36 67.5t-43 72.5t-112 27.5q-52 0 -85.5 -22t-33.5 -66q0 -49 43.5 -75.5t110.5 -26.5zM623 275q0 -53 -36 -94.5t-92 -64.5q117 -40 117 -125q0 -78 -77.5 -123.5t-186.5 -45.5t-188 46.5t-83 127.5h144q2 -34 37.5 -58.5t87.5 -24.5
q55 0 90.5 19.5t35.5 53.5q0 27 -23.5 44.5t-76.5 30.5l-102 22q-95 20 -141.5 63.5t-46.5 114.5q0 51 35.5 87t90.5 53q-53 20 -81.5 48t-28.5 73q0 70 67 115t183 45q122 0 191 -45.5t77 -119.5h-138q-7 75 -122 75q-54 0 -86.5 -17t-32.5 -48q0 -49 106 -72l92 -20
q188 -39 188 -160z" />
    <glyph glyph-name="dieresis" unicode="&#xa8;" 
d="M216 564v107h122v-107h-122zM413 564v107h122v-107h-122z" />
    <glyph glyph-name="copyright" unicode="&#xa9;" horiz-adv-x="777" 
d="M464 280l65 -55q-47 -70 -133 -70q-71 0 -119 43.5t-48 111.5q0 65 47.5 108.5t115.5 43.5q79 0 131 -64l-64 -62q-26 40 -66 40q-28 0 -50 -19t-22 -47q0 -30 22 -50t50 -20q45 0 71 40zM392 622q140 0 236 -92t96 -224q0 -134 -96 -226t-236 -92q-142 0 -240 92
t-98 226q0 132 98 224t240 92zM391 528q-101 0 -169.5 -63.5t-68.5 -161.5q0 -95 68 -158t170 -63q99 0 166 63.5t67 160.5q0 95 -67 158.5t-166 63.5z" />
    <glyph glyph-name="ordfeminine" unicode="&#xaa;" horiz-adv-x="515" 
d="M447 187h-363v88h363v-88zM96 449q0 47 40.5 77.5t117.5 30.5h97v29q0 54 -84 54q-63 0 -96 -33l-62 46q59 54 160 54q173 0 173 -126v-199q0 -10 -13 -17q-62 -30 -148 -30q-87 0 -136 33.5t-49 80.5zM351 415v85h-92q-37 0 -55.5 -13.5t-18.5 -35.5q0 -24 24 -38
t70 -14q45 0 72 16z" />
    <glyph glyph-name="guillemotleft" unicode="&#xab;" horiz-adv-x="550" 
d="M168 463h131l-125 -204l125 -201h-131l-129 201zM399 463h131l-125 -204l125 -201h-131l-129 201z" />
    <glyph glyph-name="logicalnot" unicode="&#xac;" horiz-adv-x="593" 
d="M521 84h-107v139h-328v93h435v-232z" />
    <glyph glyph-name="registered" unicode="&#xae;" horiz-adv-x="591" 
d="M535 463q0 -99 -66 -162t-165 -63q-97 0 -165.5 64t-68.5 161q0 92 68.5 155.5t165.5 63.5q99 0 165 -63t66 -156zM304 298q74 0 120 46t46 117q0 69 -46.5 114.5t-119.5 45.5q-70 0 -119 -45.5t-49 -112.5q0 -71 48.5 -118t119.5 -47zM392 505q0 -44 -41 -61l69 -84h-61
l-59 75h-28v-75h-51v214h86q39 0 62 -19t23 -50zM306 531h-34v-54h34q14 0 23 8t9 19q0 12 -8.5 19.5t-23.5 7.5z" />
    <glyph glyph-name="macron" unicode="&#xaf;" 
d="M199 577v94h344v-94h-344z" />
    <glyph glyph-name="degree" unicode="&#xb0;" horiz-adv-x="486" 
d="M415 524q0 -69 -49 -115.5t-119 -46.5q-69 0 -118 47t-49 115q0 66 49 112.5t118 46.5q70 0 119 -46t49 -113zM314 524q0 26 -19.5 46t-47.5 20q-27 0 -46.5 -20t-19.5 -46q0 -28 19.5 -48.5t46.5 -20.5q28 0 47.5 20.5t19.5 48.5z" />
    <glyph glyph-name="plusminus" unicode="&#xb1;" horiz-adv-x="571" 
d="M351 154h-118v152h-147v102h147v145h118v-145h148v-102h-148v-152zM499 0h-413v102h413v-102z" />
    <glyph glyph-name="acute" unicode="&#xb4;" 
d="M537 671l-124 -117h-132l103 117h153z" />
    <glyph glyph-name="mu" unicode="&#xb5;" horiz-adv-x="611" 
d="M306 -9q-68 0 -119 18v-177h-129v635h4v37h129v-302q0 -117 115 -117t115 117v302h129v-295q0 -218 -244 -218z" />
    <glyph glyph-name="mu" unicode="&#x3bc;" horiz-adv-x="611" 
d="M306 -9q-68 0 -119 18v-177h-129v635h4v37h129v-302q0 -117 115 -117t115 117v302h129v-295q0 -218 -244 -218z" />
    <glyph glyph-name="paragraph" unicode="&#xb6;" horiz-adv-x="675" 
d="M337 258h-24q-109 0 -177.5 58t-68.5 152q0 92 68 147.5t178 55.5h109v-778h-85v365zM504 -107v778h86v-778h-86z" />
    <glyph glyph-name="periodcentered" unicode="&#xb7;" 
d="M314 251v108h122v-108h-122z" />
    <glyph glyph-name="cedilla" unicode="&#xb8;" 
d="M445 -37l-84 -131h-141l108 131h117z" />
    <glyph glyph-name="ordmasculine" unicode="&#xba;" horiz-adv-x="457" 
d="M447 187h-363v88h363v-88zM360 485v71q0 85 -89 85q-41 0 -65.5 -20.5t-24.5 -64.5v-71q0 -43 24.5 -63.5t65.5 -20.5q89 0 89 84zM453 550v-54q0 -161 -182 -161q-183 0 -183 163v52q0 76 47 116.5t136 40.5q88 0 135 -41t47 -116z" />
    <glyph glyph-name="guillemotright" unicode="&#xbb;" horiz-adv-x="541" 
d="M44 463h131l129 -204l-129 -201h-131l125 201zM270 463h131l129 -204l-129 -201h-131l125 201z" />
    <glyph glyph-name="questiondown" unicode="&#xbf;" horiz-adv-x="594" 
d="M289 -181q107 0 168.5 47.5t61.5 120.5q0 67 -59 135l-77 89q-22 25 -22 57v46h-128v-63q0 -33 6.5 -50t25.5 -38l73 -79q45 -50 45 -97q0 -32 -25 -54.5t-69 -22.5q-49 0 -78.5 30.5t-29.5 91.5h-129q0 -98 63.5 -155.5t173.5 -57.5zM228 368v132h135v-132h-135z" />
    <glyph glyph-name="Agrave" unicode="&#xc0;" horiz-adv-x="797" 
d="M7 0h139l72 163h347l72 -163h150l-321 671h-147zM392 552l128 -289h-257zM329 710l-101 95h148l82 -95h-129z" />
    <glyph glyph-name="Aacute" unicode="&#xc1;" horiz-adv-x="797" 
d="M7 0h139l72 163h347l72 -163h150l-321 671h-147zM392 552l128 -289h-257zM559 805l-101 -95h-129l82 95h148z" />
    <glyph glyph-name="Acircumflex" unicode="&#xc2;" horiz-adv-x="797" 
d="M7 0h139l72 163h347l72 -163h150l-321 671h-147zM392 552l128 -289h-257zM429 710l-38 48l-38 -48h-125l76 95h174l76 -95h-125z" />
    <glyph glyph-name="Atilde" unicode="&#xc3;" horiz-adv-x="797" 
d="M7 0h139l72 163h347l72 -163h150l-321 671h-147zM392 552l128 -289h-257zM303 710h-87q-2 48 25 75t77 26q33 -1 82 -19q49 -17 55 -17q35 0 35 30h79q2 -52 -22.5 -77t-73.5 -24q-30 1 -88 22q-45 15 -49 15q-33 0 -33 -31z" />
    <glyph glyph-name="Adieresis" unicode="&#xc4;" horiz-adv-x="797" 
d="M146 0h-139l312 671h147l321 -671h-150l-72 163h-347zM520 263l-128 289l-129 -289h257zM240 710v95h115v-95h-115zM429 710v95h115v-95h-115z" />
    <glyph glyph-name="Aring" unicode="&#xc5;" horiz-adv-x="797" 
d="M470 737q0 -46 -35 -66h31l321 -671h-150l-72 163h-347l-72 -163h-139l312 671h30q-36 20 -36 66q0 33 23 54.5t57 21.5q33 0 55 -21.5t22 -54.5zM520 263l-128 289l-129 -289h257zM419 737q0 11 -7.5 19t-18.5 8t-20 -8t-9 -19q0 -12 8.5 -19.5t20.5 -7.5q26 0 26 27z
" />
    <glyph glyph-name="AE" unicode="&#xc6;" horiz-adv-x="1054" 
d="M-2 0l438 671h593v-103h-377v-170h343v-103h-343v-192h377v-103h-509v190h-256l-123 -190h-143zM328 289h192v297z" />
    <glyph glyph-name="Ccedilla" unicode="&#xc7;" horiz-adv-x="705" 
d="M369 -12q-155 0 -236 78t-81 216v92q0 144 83 226.5t234 82.5q135 0 216 -58t97 -156h-147q-30 119 -164 119q-89 0 -134.5 -56.5t-45.5 -161.5v-76q0 -103 42.5 -156.5t137.5 -53.5q65 0 108 30.5t56 89.5h146q-14 -100 -95.5 -158t-216.5 -58zM431 -36l-84 -131h-141
l108 131h117z" />
    <glyph glyph-name="Egrave" unicode="&#xc8;" horiz-adv-x="599" 
d="M269 710l-101 95h148l82 -95h-129zM65 671v-671h509v103h-377v192h342v103h-342v170h377v103h-509z" />
    <glyph glyph-name="Eacute" unicode="&#xc9;" horiz-adv-x="599" 
d="M475 805l-101 -95h-129l82 95h148zM65 671v-671h509v103h-377v192h342v103h-342v170h377v103h-509z" />
    <glyph glyph-name="Ecircumflex" unicode="&#xca;" horiz-adv-x="599" 
d="M65 671v-671h509v103h-377v192h342v103h-342v170h377v103h-509zM363 710l-38 48l-38 -48h-125l76 95h174l76 -95h-125z" />
    <glyph glyph-name="Edieresis" unicode="&#xcb;" horiz-adv-x="599" 
d="M65 0v671h509v-103h-377v-170h342v-103h-342v-192h377v-103h-509zM173 710v95h115v-95h-115zM362 710v95h115v-95h-115z" />
    <glyph glyph-name="Igrave" unicode="&#xcc;" horiz-adv-x="296" 
d="M80 671v-671h136v671h-136zM84 710l-101 95h148l82 -95h-129z" />
    <glyph glyph-name="Iacute" unicode="&#xcd;" horiz-adv-x="296" 
d="M80 671v-671h136v671h-136zM311 805l-101 -95h-129l82 95h148z" />
    <glyph glyph-name="Icircumflex" unicode="&#xce;" horiz-adv-x="296" 
d="M80 671v-671h136v671h-136zM186 710l-38 48l-38 -48h-125l76 95h174l76 -95h-125z" />
    <glyph glyph-name="Idieresis" unicode="&#xcf;" horiz-adv-x="296" 
d="M80 0v671h136v-671h-136zM-5 710v95h115v-95h-115zM184 710v95h115v-95h-115z" />
    <glyph glyph-name="Eth" unicode="&#xd0;" horiz-adv-x="793" 
d="M55 290v94h109v288h263q166 0 254 -77t88 -221v-82q0 -127 -91 -209t-251 -82h-263v289h-109zM296 569v-185h103v-94h-103v-186h131q94 0 149 50t55 151v68q0 96 -55 146t-149 50h-131z" />
    <glyph glyph-name="Ntilde" unicode="&#xd1;" horiz-adv-x="747" 
d="M571 671v-470l-377 470h-129v-671h122v482l376 -482h129v671h-121zM293 710h-87q-2 48 25 75t77 26q33 -1 82 -19q49 -17 55 -17q35 0 35 30h79q2 -52 -22.5 -77t-73.5 -24q-30 1 -88 22q-45 15 -49 15q-33 0 -33 -31z" />
    <glyph glyph-name="Ograve" unicode="&#xd2;" horiz-adv-x="726" 
d="M302 710l-101 95h148l82 -95h-129zM363 683q-161 0 -239.5 -81t-78.5 -215v-97q0 -139 78.5 -220.5t239.5 -81.5t239.5 81.5t78.5 220.5v97q0 134 -78.5 215t-239.5 81zM363 84q-179 0 -179 218v71q0 100 43.5 157.5t135.5 57.5t135 -57.5t43 -157.5v-71
q0 -218 -178 -218z" />
    <glyph glyph-name="Oacute" unicode="&#xd3;" horiz-adv-x="726" 
d="M517 805l-101 -95h-129l82 95h148zM363 683q-161 0 -239.5 -81t-78.5 -215v-97q0 -139 78.5 -220.5t239.5 -81.5t239.5 81.5t78.5 220.5v97q0 134 -78.5 215t-239.5 81zM363 84q-179 0 -179 218v71q0 100 43.5 157.5t135.5 57.5t135 -57.5t43 -157.5v-71
q0 -218 -178 -218z" />
    <glyph glyph-name="Ocircumflex" unicode="&#xd4;" horiz-adv-x="726" 
d="M363 683q-161 0 -239.5 -81t-78.5 -215v-97q0 -139 78.5 -220.5t239.5 -81.5t239.5 81.5t78.5 220.5v97q0 134 -78.5 215t-239.5 81zM363 84q-179 0 -179 218v71q0 100 43.5 157.5t135.5 57.5t135 -57.5t43 -157.5v-71q0 -218 -178 -218zM401 710l-38 48l-38 -48h-125
l76 95h174l76 -95h-125z" />
    <glyph glyph-name="Otilde" unicode="&#xd5;" horiz-adv-x="726" 
d="M363 683q-161 0 -239.5 -81t-78.5 -215v-97q0 -139 78.5 -220.5t239.5 -81.5t239.5 81.5t78.5 220.5v97q0 134 -78.5 215t-239.5 81zM363 84q-179 0 -179 218v71q0 100 43.5 157.5t135.5 57.5t135 -57.5t43 -157.5v-71q0 -218 -178 -218zM272 710h-87q-2 48 25 75t77 26
q33 -1 82 -19q49 -17 55 -17q35 0 35 30h79q2 -52 -22.5 -77t-73.5 -24q-30 1 -88 22q-45 15 -49 15q-33 0 -33 -31z" />
    <glyph glyph-name="Odieresis" unicode="&#xd6;" horiz-adv-x="726" 
d="M363 683q161 0 239.5 -81t78.5 -215v-97q0 -139 -78.5 -220.5t-239.5 -81.5t-239.5 81.5t-78.5 220.5v97q0 134 78.5 215t239.5 81zM363 84q178 0 178 218v71q0 100 -43 157.5t-135 57.5t-135.5 -57.5t-43.5 -157.5v-71q0 -218 179 -218zM212 710v95h115v-95h-115z
M401 710v95h115v-95h-115z" />
    <glyph glyph-name="multiply" unicode="&#xd7;" horiz-adv-x="557" 
d="M436 448l80 -78l-144 -147l153 -155l-81 -79l-151 154l-151 -154l-80 79l152 155l-143 147l80 78l142 -145z" />
    <glyph glyph-name="Oslash" unicode="&#xd8;" horiz-adv-x="726" 
d="M500 663l29 44h135l-66 -101q83 -79 83 -219v-97q0 -139 -78.5 -220.5t-239.5 -81.5q-87 0 -151 25l-50 -77h-138l92 141q-71 77 -71 213v97q0 134 78.5 215t239.5 81q77 0 137 -20zM363 84q178 0 178 218v71q0 68 -19 115l-251 -385q38 -19 92 -19zM363 588
q-92 0 -135.5 -57.5t-43.5 -157.5v-71q0 -60 13 -103l244 374q-33 15 -78 15z" />
    <glyph glyph-name="Ugrave" unicode="&#xd9;" horiz-adv-x="718" 
d="M302 710l-101 95h148l82 -95h-129zM529 671v-428q0 -74 -43.5 -115.5t-125.5 -41.5q-84 0 -128.5 42t-44.5 115v428h-132v-429q0 -114 79.5 -184t225.5 -70q143 0 223 70.5t80 183.5v429h-134z" />
    <glyph glyph-name="Uacute" unicode="&#xda;" horiz-adv-x="718" 
d="M529 671v-428q0 -74 -43.5 -115.5t-125.5 -41.5q-84 0 -128.5 42t-44.5 115v428h-132v-429q0 -114 79.5 -184t225.5 -70q143 0 223 70.5t80 183.5v429h-134zM518 805l-101 -95h-129l82 95h148z" />
    <glyph glyph-name="Ucircumflex" unicode="&#xdb;" horiz-adv-x="718" 
d="M529 671v-428q0 -74 -43.5 -115.5t-125.5 -41.5q-84 0 -128.5 42t-44.5 115v428h-132v-429q0 -114 79.5 -184t225.5 -70q143 0 223 70.5t80 183.5v429h-134zM398 710l-38 48l-38 -48h-125l76 95h174l76 -95h-125z" />
    <glyph glyph-name="Udieresis" unicode="&#xdc;" horiz-adv-x="718" 
d="M529 243v428h134v-429q0 -113 -80 -183.5t-223 -70.5q-146 0 -225.5 70t-79.5 184v429h132v-428q0 -73 44.5 -115t128.5 -42q82 0 125.5 41.5t43.5 115.5zM208 710v95h115v-95h-115zM397 710v95h115v-95h-115z" />
    <glyph glyph-name="Yacute" unicode="&#xdd;" horiz-adv-x="686" 
d="M533 671h144l-269 -422v-249h-132v249l-267 422h152l184 -304zM503 805l-101 -95h-129l82 95h148z" />
    <glyph glyph-name="Thorn" unicode="&#xde;" horiz-adv-x="645" 
d="M76 805h132v-133h155q119 0 191 -57t72 -168q0 -103 -73.5 -163.5t-189.5 -60.5h-155v-222h-132v804zM490 449q0 52 -35 86t-97 34h-150v-242h150q61 0 96.5 36.5t35.5 85.5z" />
    <glyph glyph-name="germandbls" unicode="&#xdf;" horiz-adv-x="690" 
d="M509 277q71 -9 112 -43.5t41 -94.5q0 -70 -61.5 -110.5t-153.5 -40.5q-53 0 -109.5 18t-96.5 57l79 74q56 -53 131 -53q40 0 63.5 13.5t23.5 37.5q0 38 -57 45l-80 11q-70 10 -109 44.5t-39 88.5q0 86 102 121l81 28q59 19 59 63q0 25 -32.5 39.5t-88.5 14.5
q-85 0 -132.5 -49.5t-47.5 -135.5v-405h-128v408q0 129 82 202t227 73q115 0 181.5 -43t66.5 -102q0 -54 -26 -86t-80 -51l-82 -28q-32 -10 -45.5 -19.5t-13.5 -24.5q0 -32 58 -40z" />
    <glyph glyph-name="agrave" unicode="&#xe0;" horiz-adv-x="571" 
d="M237 554l-124 117h153l103 -117h-132zM42 151q0 -67 68.5 -114t191.5 -47q118 0 208 43q18 8 18 23v280q0 86 -61.5 131.5t-181.5 45.5q-140 0 -225 -76l87 -65q47 47 135 47q67 0 92.5 -20t25.5 -56v-41h-136q-108 0 -165 -42t-57 -109zM400 222v-119q-39 -23 -101 -23
q-65 0 -98.5 19.5t-33.5 53.5q0 31 26.5 50t77.5 19h129z" />
    <glyph glyph-name="aacute" unicode="&#xe1;" horiz-adv-x="571" 
d="M42 151q0 -67 68.5 -114t191.5 -47q118 0 208 43q18 8 18 23v280q0 86 -61.5 131.5t-181.5 45.5q-140 0 -225 -76l87 -65q47 47 135 47q67 0 92.5 -20t25.5 -56v-41h-136q-108 0 -165 -42t-57 -109zM400 222v-119q-39 -23 -101 -23q-65 0 -98.5 19.5t-33.5 53.5
q0 31 26.5 50t77.5 19h129zM486 671l-124 -117h-132l103 117h153z" />
    <glyph glyph-name="acircumflex" unicode="&#xe2;" horiz-adv-x="571" 
d="M42 151q0 -67 68.5 -114t191.5 -47q118 0 208 43q18 8 18 23v280q0 86 -61.5 131.5t-181.5 45.5q-140 0 -225 -76l87 -65q47 47 135 47q67 0 92.5 -20t25.5 -56v-41h-136q-108 0 -165 -42t-57 -109zM400 222v-119q-39 -23 -101 -23q-65 0 -98.5 19.5t-33.5 53.5
q0 31 26.5 50t77.5 19h129zM355 554l-54 55l-53 -55h-132l103 117h165l103 -117h-132z" />
    <glyph glyph-name="atilde" unicode="&#xe3;" horiz-adv-x="571" 
d="M42 151q0 -67 68.5 -114t191.5 -47q118 0 208 43q18 8 18 23v280q0 86 -61.5 131.5t-181.5 45.5q-140 0 -225 -76l87 -65q47 47 135 47q67 0 92.5 -20t25.5 -56v-41h-136q-108 0 -165 -42t-57 -109zM400 222v-119q-39 -23 -101 -23q-65 0 -98.5 19.5t-33.5 53.5
q0 31 26.5 50t77.5 19h129zM212 554h-82q-2 56 26 87.5t76 30.5q21 -1 75 -23q36 -16 50 -16q33 0 33 38h75q2 -60 -24 -90.5t-74 -29.5q-28 1 -80 25q-34 15 -43 15q-17 0 -24.5 -8t-7.5 -29z" />
    <glyph glyph-name="adieresis" unicode="&#xe4;" horiz-adv-x="571" 
d="M42 151q0 67 57 109t165 42h136v41q0 36 -25.5 56t-92.5 20q-88 0 -135 -47l-87 65q85 76 225 76q120 0 181.5 -45.5t61.5 -131.5v-280q0 -15 -18 -23q-90 -43 -208 -43q-123 0 -191.5 47t-68.5 114zM400 103v119h-129q-51 0 -77.5 -19t-26.5 -50q0 -34 33.5 -53.5
t98.5 -19.5q62 0 101 23zM140 564v107h122v-107h-122zM337 564v107h122v-107h-122z" />
    <glyph glyph-name="aring" unicode="&#xe5;" horiz-adv-x="571" 
d="M42 151q0 67 57 109t165 42h136v41q0 36 -25.5 56t-92.5 20q-88 0 -135 -47l-87 65q85 76 225 76q120 0 181.5 -45.5t61.5 -131.5v-280q0 -15 -18 -23q-90 -43 -208 -43q-123 0 -191.5 47t-68.5 114zM400 103v119h-129q-51 0 -77.5 -19t-26.5 -50q0 -34 33.5 -53.5
t98.5 -19.5q62 0 101 23zM371 617q0 -35 -22 -56t-55 -21q-34 0 -57 21t-23 56q0 32 23 54t57 22q32 0 54.5 -22t22.5 -54zM320 617q0 11 -7.5 19t-18.5 8t-20 -8t-9 -19q0 -12 8.5 -19.5t20.5 -7.5q26 0 26 27z" />
    <glyph glyph-name="ae" unicode="&#xe6;" horiz-adv-x="951" 
d="M39 150q0 68 55.5 109.5t140.5 41.5h165v42q0 36 -24 55.5t-91 19.5q-85 0 -131 -46l-87 65q85 76 221 76q133 0 186 -64q70 64 189 64q126 0 194 -68t68 -187v-44h-395v-5q0 -59 41.5 -91.5t105.5 -32.5q89 0 152 57l83 -70q-96 -82 -237 -82q-150 0 -222 84
q-83 -84 -207 -84q-88 0 -147.5 42.5t-59.5 117.5zM400 177v43h-141q-42 0 -65 -17.5t-23 -48.5q0 -71 97 -71q58 0 95 25.5t37 68.5zM530 297h265q-2 59 -40.5 92.5t-91.5 33.5q-54 0 -92.5 -34.5t-40.5 -91.5z" />
    <glyph glyph-name="ccedilla" unicode="&#xe7;" horiz-adv-x="567" 
d="M424 172h132q-11 -89 -79 -135.5t-168 -46.5q-264 0 -264 227v75q0 109 68 165t192 56q103 0 168.5 -41t76.5 -123h-130q-17 72 -116 72q-59 0 -93.5 -31t-34.5 -92v-87q0 -71 33 -99.5t98 -28.5q48 0 79 23.5t38 65.5zM369 -36l-84 -131h-141l108 131h117z" />
    <glyph glyph-name="egrave" unicode="&#xe8;" horiz-adv-x="582" 
d="M542 72l-82 70q-65 -57 -153 -57q-65 0 -106.5 32.5t-41.5 92.5v4h395v44q0 120 -67 187.5t-196 67.5q-122 0 -192.5 -68.5t-70.5 -183.5v-24q0 -119 75.5 -183t201.5 -64q148 0 237 82zM423 297h-264q2 57 39.5 91.5t92.5 34.5q58 0 94 -32.5t38 -93.5zM237 554
l-124 117h153l103 -117h-132z" />
    <glyph glyph-name="eacute" unicode="&#xe9;" horiz-adv-x="582" 
d="M542 72l-82 70q-65 -57 -153 -57q-65 0 -106.5 32.5t-41.5 92.5v4h395v44q0 120 -67 187.5t-196 67.5q-122 0 -192.5 -68.5t-70.5 -183.5v-24q0 -119 75.5 -183t201.5 -64q148 0 237 82zM423 297h-264q2 57 39.5 91.5t92.5 34.5q58 0 94 -32.5t38 -93.5zM478 671
l-124 -117h-132l103 117h153z" />
    <glyph glyph-name="ecircumflex" unicode="&#xea;" horiz-adv-x="582" 
d="M542 72l-82 70q-65 -57 -153 -57q-65 0 -106.5 32.5t-41.5 92.5v4h395v44q0 120 -67 187.5t-196 67.5q-122 0 -192.5 -68.5t-70.5 -183.5v-24q0 -119 75.5 -183t201.5 -64q148 0 237 82zM423 297h-264q2 57 39.5 91.5t92.5 34.5q58 0 94 -32.5t38 -93.5zM350 554l-54 55
l-53 -55h-132l103 117h165l103 -117h-132z" />
    <glyph glyph-name="edieresis" unicode="&#xeb;" horiz-adv-x="582" 
d="M460 142l82 -70q-89 -82 -237 -82q-126 0 -201.5 64t-75.5 183v24q0 115 70.5 183.5t192.5 68.5q129 0 196 -67.5t67 -187.5v-44h-395v-4q0 -60 41.5 -92.5t106.5 -32.5q88 0 153 57zM159 297h264q-2 61 -38 93.5t-94 32.5q-55 0 -92.5 -34.5t-39.5 -91.5zM140 564v107
h122v-107h-122zM337 564v107h122v-107h-122z" />
    <glyph glyph-name="igrave" unicode="&#xec;" horiz-adv-x="248" 
d="M60 503v-503h128v503h-128zM53 554l-124 117h153l103 -117h-132z" />
    <glyph glyph-name="iacute" unicode="&#xed;" horiz-adv-x="248" 
d="M60 503v-503h128v503h-128zM312 671l-124 -117h-132l103 117h153z" />
    <glyph glyph-name="icircumflex" unicode="&#xee;" horiz-adv-x="293" 
d="M80 503v-503h128v503h-128zM197 554l-54 55l-53 -55h-132l103 117h165l103 -117h-132z" />
    <glyph glyph-name="idieresis" unicode="&#xef;" horiz-adv-x="248" 
d="M60 0v503h128v-503h-128zM-35 564v107h122v-107h-122zM162 564v107h122v-107h-122z" />
    <glyph glyph-name="eth" unicode="&#xf0;" horiz-adv-x="625" 
d="M358 672l25 -38l66 28l39 -79l-55 -24l108 -161q59 -88 59 -179q0 -105 -74 -167.5t-196 -62.5t-198 63t-76 168q0 111 75.5 172t194.5 61q16 0 30 -3l-41 59l-94 -40l-38 80l82 35l-60 88h153zM190 219q0 -63 39.5 -98t100.5 -35t98.5 35t37.5 98q0 64 -37 100t-99 36
q-61 0 -100.5 -37t-39.5 -99z" />
    <glyph glyph-name="ntilde" unicode="&#xf1;" horiz-adv-x="603" 
d="M331 513q-91 0 -163 -50l-7 40h-109v-503h129v310q0 51 33 80t91 29q121 0 121 -115v-304h130v302q0 211 -225 211zM220 554h-82q-2 56 26 87.5t76 30.5q21 -1 75 -23q36 -16 50 -16q33 0 33 38h75q2 -60 -24 -90.5t-74 -29.5q-28 1 -80 25q-34 15 -43 15q-17 0 -24.5 -8
t-7.5 -29z" />
    <glyph glyph-name="ograve" unicode="&#xf2;" horiz-adv-x="583" 
d="M232 554l-124 117h153l103 -117h-132zM417 301v-100q0 -118 -125 -118q-57 0 -91.5 28.5t-34.5 89.5v100q0 62 34.5 91t91.5 29q125 0 125 -120zM548 217v75q0 106 -65.5 163.5t-190.5 57.5t-191 -57.5t-66 -163.5v-73q0 -229 257 -229q256 0 256 227z" />
    <glyph glyph-name="oacute" unicode="&#xf3;" horiz-adv-x="583" 
d="M417 301v-100q0 -118 -125 -118q-57 0 -91.5 28.5t-34.5 89.5v100q0 62 34.5 91t91.5 29q125 0 125 -120zM548 217v75q0 106 -65.5 163.5t-190.5 57.5t-191 -57.5t-66 -163.5v-73q0 -229 257 -229q256 0 256 227zM477 671l-124 -117h-132l103 117h153z" />
    <glyph glyph-name="ocircumflex" unicode="&#xf4;" horiz-adv-x="583" 
d="M417 301v-100q0 -118 -125 -118q-57 0 -91.5 28.5t-34.5 89.5v100q0 62 34.5 91t91.5 29q125 0 125 -120zM548 217v75q0 106 -65.5 163.5t-190.5 57.5t-191 -57.5t-66 -163.5v-73q0 -229 257 -229q256 0 256 227zM346 554l-54 55l-53 -55h-132l103 117h165l103 -117h-132
z" />
    <glyph glyph-name="otilde" unicode="&#xf5;" horiz-adv-x="583" 
d="M205 554h-82q-2 56 26 87.5t76 30.5q21 -1 75 -23q36 -16 50 -16q33 0 33 38h75q2 -60 -24 -90.5t-74 -29.5q-28 1 -80 25q-34 15 -43 15q-17 0 -24.5 -8t-7.5 -29zM417 301v-100q0 -118 -125 -118q-57 0 -91.5 28.5t-34.5 89.5v100q0 62 34.5 91t91.5 29q125 0 125 -120
zM548 217v75q0 106 -65.5 163.5t-190.5 57.5t-191 -57.5t-66 -163.5v-73q0 -229 257 -229q256 0 256 227z" />
    <glyph glyph-name="odieresis" unicode="&#xf6;" horiz-adv-x="583" 
d="M417 201v100q0 120 -125 120q-57 0 -91.5 -29t-34.5 -91v-100q0 -61 34.5 -89.5t91.5 -28.5q125 0 125 118zM548 292v-75q0 -227 -256 -227q-257 0 -257 229v73q0 106 66 163.5t191 57.5t190.5 -57.5t65.5 -163.5zM133 564v107h122v-107h-122zM330 564v107h122v-107h-122
z" />
    <glyph glyph-name="divide" unicode="&#xf7;" horiz-adv-x="584" 
d="M233 381v109h128v-109h-128zM233 1v109h128v-109h-128zM512 205h-426v102h426v-102z" />
    <glyph glyph-name="oslash" unicode="&#xf8;" horiz-adv-x="583" 
d="M548 292v-75q0 -227 -256 -227q-55 0 -102 11l-39 -62h-123l70 109q-63 57 -63 171v73q0 106 66 163.5t191 57.5q56 0 99 -12l26 40h120l-55 -86q66 -57 66 -163zM417 201v100q0 25 -6 44l-165 -257q23 -5 46 -5q125 0 125 118zM292 421q-57 0 -91.5 -29t-34.5 -91v-100
q0 -21 5 -41l165 256q-23 5 -44 5z" />
    <glyph glyph-name="ugrave" unicode="&#xf9;" horiz-adv-x="588" 
d="M231 554l-124 117h153l103 -117h-132zM294 -10q244 0 244 218v295h-129v-302q0 -117 -115 -117t-115 117v302h-129v-295q0 -218 244 -218z" />
    <glyph glyph-name="uacute" unicode="&#xfa;" horiz-adv-x="588" 
d="M478 671l-124 -117h-132l103 117h153zM294 -10q244 0 244 218v295h-129v-302q0 -117 -115 -117t-115 117v302h-129v-295q0 -218 244 -218z" />
    <glyph glyph-name="ucircumflex" unicode="&#xfb;" horiz-adv-x="588" 
d="M350 554l-54 55l-53 -55h-132l103 117h165l103 -117h-132zM294 -10q244 0 244 218v295h-129v-302q0 -117 -115 -117t-115 117v302h-129v-295q0 -218 244 -218z" />
    <glyph glyph-name="udieresis" unicode="&#xfc;" horiz-adv-x="588" 
d="M134 564v107h122v-107h-122zM331 564v107h122v-107h-122zM294 -10q-244 0 -244 218v295h129v-302q0 -117 115 -117t115 117v302h129v-295q0 -218 -244 -218z" />
    <glyph glyph-name="yacute" unicode="&#xfd;" horiz-adv-x="572" 
d="M145 503l146 -321l142 321h134l-264 -571q-31 -68 -82.5 -98t-134.5 -30h-48v94h47q42 0 68 15.5t46 61.5l31 69l-220 459h135zM482 671l-124 -117h-132l103 117h153z" />
    <glyph glyph-name="thorn" unicode="&#xfe;" horiz-adv-x="612" 
d="M194 -166h-129v838h129v-189q59 31 140 31q129 0 190.5 -58.5t61.5 -160.5v-81q0 -223 -262 -223q-71 0 -130 19v-176zM194 309v-98q0 -64 36 -95.5t94 -31.5q62 0 97 31.5t35 95.5v82q0 66 -33 97.5t-102 31.5q-59 0 -93 -30t-34 -83z" />
    <glyph glyph-name="ydieresis" unicode="&#xff;" horiz-adv-x="572" 
d="M145 503l146 -321l142 321h134l-264 -571q-31 -68 -82.5 -98t-134.5 -30h-48v94h47q42 0 68 15.5t46 61.5l31 69l-220 459h135zM328 564v107h122v-107h-122zM131 564v107h122v-107h-122z" />
    <glyph glyph-name="Amacron" unicode="&#x100;" horiz-adv-x="797" 
d="M7 0h139l72 163h347l72 -163h150l-321 671h-147zM392 552l128 -289h-257zM220 719v86h344v-86h-344z" />
    <glyph glyph-name="amacron" unicode="&#x101;" horiz-adv-x="573" 
d="M42 151q0 -67 68.5 -114t191.5 -47q118 0 208 43q18 8 18 23v280q0 86 -61.5 131.5t-181.5 45.5q-140 0 -225 -76l87 -65q47 47 135 47q67 0 92.5 -20t25.5 -56v-41h-136q-108 0 -165 -42t-57 -109zM400 222v-119q-39 -23 -101 -23q-65 0 -98.5 19.5t-33.5 53.5
q0 31 26.5 50t77.5 19h129zM128 577v94h344v-94h-344z" />
    <glyph glyph-name="Abreve" unicode="&#x102;" horiz-adv-x="797" 
d="M7 0h139l72 163h347l72 -163h150l-321 671h-147zM392 552l128 -289h-257zM394 704q-137 0 -147 101h85q0 -22 18 -34t44 -12q25 0 42.5 12t17.5 34h84q-7 -101 -144 -101z" />
    <glyph glyph-name="abreve" unicode="&#x103;" horiz-adv-x="573" 
d="M42 151q0 -67 68.5 -114t191.5 -47q118 0 208 43q18 8 18 23v280q0 86 -61.5 131.5t-181.5 45.5q-140 0 -225 -76l87 -65q47 47 135 47q67 0 92.5 -20t25.5 -56v-41h-136q-108 0 -165 -42t-57 -109zM400 222v-119q-39 -23 -101 -23q-65 0 -98.5 19.5t-33.5 53.5
q0 31 26.5 50t77.5 19h129zM298 551q-70 0 -106 34t-41 86h85q1 -27 18 -41.5t44 -14.5q25 0 42 14.5t18 41.5h84q-3 -52 -38 -86t-106 -34z" />
    <glyph glyph-name="Aogonek" unicode="&#x104;" horiz-adv-x="797" 
d="M802 -167h-82q-53 0 -81.5 24t-28.5 65q0 43 26 80l-71 161h-347l-72 -163h-139l312 671h147l321 -671h-65q-18 -23 -18 -55q0 -39 47 -39h51v-73zM520 263l-128 289l-129 -289h257z" />
    <glyph glyph-name="aogonek" unicode="&#x105;" horiz-adv-x="571" 
d="M595 -133h-82q-53 0 -81.5 24t-28.5 65q0 26 8 45q-53 -11 -109 -11q-123 0 -191.5 47t-68.5 114t57 109t165 42h136v41q0 36 -25.5 56t-92.5 20q-88 0 -135 -47l-87 65q85 76 225 76q120 0 181.5 -45.5t61.5 -131.5v-280q0 -13 -11 -19q-20 -27 -20 -58q0 -39 47 -39h51
v-73zM400 103v119h-129q-51 0 -77.5 -19t-26.5 -50q0 -34 33.5 -53.5t98.5 -19.5q62 0 101 23z" />
    <glyph glyph-name="Cacute" unicode="&#x106;" horiz-adv-x="705" 
d="M525 805l-101 -95h-129l82 95h148zM369 -12q135 0 216.5 58t95.5 158h-146q-13 -59 -56 -89.5t-108 -30.5q-95 0 -137.5 53.5t-42.5 156.5v76q0 105 45.5 161.5t134.5 56.5q134 0 164 -119h147q-16 98 -97 156t-216 58q-151 0 -234 -82.5t-83 -226.5v-92q0 -138 81 -216
t236 -78z" />
    <glyph glyph-name="cacute" unicode="&#x107;" horiz-adv-x="573" 
d="M424 172h132q-11 -89 -79 -135.5t-168 -46.5q-264 0 -264 227v75q0 109 68 165t192 56q103 0 168.5 -41t76.5 -123h-130q-17 72 -116 72q-59 0 -93.5 -31t-34.5 -92v-87q0 -71 33 -99.5t98 -28.5q48 0 79 23.5t38 65.5zM488 671l-124 -117h-132l103 117h153z" />
    <glyph glyph-name="Ccircumflex" unicode="&#x108;" horiz-adv-x="705" 
d="M369 -12q135 0 216.5 58t95.5 158h-146q-13 -59 -56 -89.5t-108 -30.5q-95 0 -137.5 53.5t-42.5 156.5v76q0 105 45.5 161.5t134.5 56.5q134 0 164 -119h147q-16 98 -97 156t-216 58q-151 0 -234 -82.5t-83 -226.5v-92q0 -138 81 -216t236 -78zM411 710l-38 48l-38 -48
h-125l76 95h174l76 -95h-125z" />
    <glyph glyph-name="ccircumflex" unicode="&#x109;" horiz-adv-x="570" 
d="M358 554l-54 55l-53 -55h-132l103 117h165l103 -117h-132zM424 172h132q-11 -89 -79 -135.5t-168 -46.5q-264 0 -264 227v75q0 109 68 165t192 56q103 0 168.5 -41t76.5 -123h-130q-17 72 -116 72q-59 0 -93.5 -31t-34.5 -92v-87q0 -71 33 -99.5t98 -28.5q48 0 79 23.5
t38 65.5z" />
    <glyph glyph-name="Cdotaccent" unicode="&#x10a;" horiz-adv-x="705" 
d="M369 -12q-155 0 -236 78t-81 216v92q0 144 83 226.5t234 82.5q135 0 216 -58t97 -156h-147q-30 119 -164 119q-89 0 -134.5 -56.5t-45.5 -161.5v-76q0 -103 42.5 -156.5t137.5 -53.5q65 0 108 30.5t56 89.5h146q-14 -100 -95.5 -158t-216.5 -58zM314 710v95h115v-95h-115
z" />
    <glyph glyph-name="cdotaccent" unicode="&#x10b;" horiz-adv-x="543" 
d="M424 172h132q-11 -89 -79 -135.5t-168 -46.5q-264 0 -264 227v75q0 109 68 165t192 56q103 0 168.5 -41t76.5 -123h-130q-17 72 -116 72q-59 0 -93.5 -31t-34.5 -92v-87q0 -71 33 -99.5t98 -28.5q48 0 79 23.5t38 65.5zM240 562v109h128v-109h-128z" />
    <glyph glyph-name="Ccaron" unicode="&#x10c;" horiz-adv-x="705" 
d="M369 -12q135 0 216.5 58t95.5 158h-146q-13 -59 -56 -89.5t-108 -30.5q-95 0 -137.5 53.5t-42.5 156.5v76q0 105 45.5 161.5t134.5 56.5q134 0 164 -119h147q-16 98 -97 156t-216 58q-151 0 -234 -82.5t-83 -226.5v-92q0 -138 81 -216t236 -78zM372 757l38 48h125
l-76 -95h-174l-76 95h125z" />
    <glyph glyph-name="ccaron" unicode="&#x10d;" horiz-adv-x="543" 
d="M424 172h132q-11 -89 -79 -135.5t-168 -46.5q-264 0 -264 227v75q0 109 68 165t192 56q103 0 168.5 -41t76.5 -123h-130q-17 72 -116 72q-59 0 -93.5 -31t-34.5 -92v-87q0 -71 33 -99.5t98 -28.5q48 0 79 23.5t38 65.5zM306 616l54 55h132l-103 -117h-165l-103 117h132z
" />
    <glyph glyph-name="Dcaron" unicode="&#x10e;" horiz-adv-x="688" 
d="M69 671h263q166 0 254 -77t88 -221v-82q0 -127 -91 -209t-251 -82h-263v671zM201 568v-465h131q94 0 149 50t55 151v68q0 96 -55 146t-149 50h-131zM334 757l38 48h125l-76 -95h-174l-76 95h125z" />
    <glyph glyph-name="dcaron" unicode="&#x10f;" horiz-adv-x="730" 
d="M683 458h-89l56 213h100zM23 213v81q0 102 61.5 160.5t190.5 58.5q81 0 140 -31v189h129v-466q0 -215 -259 -215q-262 0 -262 223zM415 210v98q0 53 -34 83t-93 30q-69 0 -102 -31.5t-33 -97.5v-82q0 -64 35 -95.5t97 -31.5q58 0 94 31.5t36 95.5z" />
    <glyph glyph-name="Dcroat" unicode="&#x110;" horiz-adv-x="791" 
d="M55 290v94h109v288h263q166 0 254 -77t88 -221v-82q0 -127 -91 -209t-251 -82h-263v289h-109zM296 569v-185h103v-94h-103v-186h131q94 0 149 50t55 151v68q0 96 -55 146t-149 50h-131z" />
    <glyph glyph-name="dcroat" unicode="&#x111;" horiz-adv-x="601" 
d="M316 551v83h89v38h129v-38h107v-83h-107v-345q0 -215 -259 -215q-262 0 -262 223v81q0 102 61.5 160.5t190.5 58.5q81 0 140 -31v68h-89zM405 211v98q0 53 -34 83t-93 30q-69 0 -102 -31.5t-33 -97.5v-82q0 -64 35 -95.5t97 -31.5q58 0 94 31.5t36 95.5z" />
    <glyph glyph-name="Emacron" unicode="&#x112;" horiz-adv-x="599" 
d="M65 671v-671h509v103h-377v192h342v103h-342v170h377v103h-509zM149 719v86h344v-86h-344z" />
    <glyph glyph-name="emacron" unicode="&#x113;" horiz-adv-x="582" 
d="M542 72l-82 70q-65 -57 -153 -57q-65 0 -106.5 32.5t-41.5 92.5v4h395v44q0 120 -67 187.5t-196 67.5q-122 0 -192.5 -68.5t-70.5 -183.5v-24q0 -119 75.5 -183t201.5 -64q148 0 237 82zM423 297h-264q2 57 39.5 91.5t92.5 34.5q58 0 94 -32.5t38 -93.5zM126 577v94h344
v-94h-344z" />
    <glyph glyph-name="Ebreve" unicode="&#x114;" horiz-adv-x="599" 
d="M65 671v-671h509v103h-377v192h342v103h-342v170h377v103h-509zM320 704q-137 0 -147 101h85q0 -22 18 -34t44 -12q25 0 42.5 12t17.5 34h84q-7 -101 -144 -101z" />
    <glyph glyph-name="ebreve" unicode="&#x115;" horiz-adv-x="582" 
d="M542 72l-82 70q-65 -57 -153 -57q-65 0 -106.5 32.5t-41.5 92.5v4h395v44q0 120 -67 187.5t-196 67.5q-122 0 -192.5 -68.5t-70.5 -183.5v-24q0 -119 75.5 -183t201.5 -64q148 0 237 82zM423 297h-264q2 57 39.5 91.5t92.5 34.5q58 0 94 -32.5t38 -93.5zM297 551
q-70 0 -106 34t-41 86h85q1 -27 18 -41.5t44 -14.5q25 0 42 14.5t18 41.5h84q-3 -52 -38 -86t-106 -34z" />
    <glyph glyph-name="Edotaccent" unicode="&#x116;" horiz-adv-x="599" 
d="M65 0v671h509v-103h-377v-170h342v-103h-342v-192h377v-103h-509zM268 710v95h115v-95h-115z" />
    <glyph glyph-name="edotaccent" unicode="&#x117;" horiz-adv-x="582" 
d="M460 142l82 -70q-89 -82 -237 -82q-126 0 -201.5 64t-75.5 183v24q0 115 70.5 183.5t192.5 68.5q129 0 196 -67.5t67 -187.5v-44h-395v-4q0 -60 41.5 -92.5t106.5 -32.5q88 0 153 57zM159 297h264q-2 61 -38 93.5t-94 32.5q-55 0 -92.5 -34.5t-39.5 -91.5zM230 562v109
h128v-109h-128z" />
    <glyph glyph-name="Eogonek" unicode="&#x118;" horiz-adv-x="599" 
d="M580 -167h-82q-53 0 -81.5 24t-28.5 65q0 40 25 78h-348v671h509v-103h-377v-170h342v-103h-342v-192h377v-103h-74q-18 -23 -18 -55q0 -39 47 -39h51v-73z" />
    <glyph glyph-name="eogonek" unicode="&#x119;" horiz-adv-x="582" 
d="M496 -167h-82q-53 0 -81.5 24t-28.5 65q0 37 19 68h-18q-126 0 -201.5 64t-75.5 183v24q0 115 70.5 183.5t192.5 68.5q129 0 196 -67.5t67 -187.5v-44h-395v-4q0 -60 41.5 -92.5t106.5 -32.5q88 0 153 57l82 -70q-53 -48 -122 -68q-22 -26 -22 -59q0 -39 47 -39h51v-73z
M159 297h264q-2 61 -38 93.5t-94 32.5q-55 0 -92.5 -34.5t-39.5 -91.5z" />
    <glyph glyph-name="Ecaron" unicode="&#x11a;" horiz-adv-x="599" 
d="M65 671v-671h509v103h-377v192h342v103h-342v170h377v103h-509zM322 757l38 48h125l-76 -95h-174l-76 95h125z" />
    <glyph glyph-name="ecaron" unicode="&#x11b;" horiz-adv-x="582" 
d="M542 72l-82 70q-65 -57 -153 -57q-65 0 -106.5 32.5t-41.5 92.5v4h395v44q0 120 -67 187.5t-196 67.5q-122 0 -192.5 -68.5t-70.5 -183.5v-24q0 -119 75.5 -183t201.5 -64q148 0 237 82zM423 297h-264q2 57 39.5 91.5t92.5 34.5q58 0 94 -32.5t38 -93.5zM294 616l54 55
h132l-103 -117h-165l-103 117h132z" />
    <glyph glyph-name="Gcircumflex" unicode="&#x11c;" horiz-adv-x="715" 
d="M373 348h312v-85q0 -127 -82 -201t-239 -74q-148 0 -230 77.5t-82 219.5v100q0 57 16 107.5t50.5 95t97 70t147.5 25.5q134 0 212.5 -55.5t100.5 -144.5h-146q-35 105 -167 105q-84 0 -128 -57t-44 -152v-79q0 -216 177 -216q168 0 176 162h-171v102zM407 710l-38 48
l-38 -48h-125l76 95h174l76 -95h-125z" />
    <glyph glyph-name="gcircumflex" unicode="&#x11d;" horiz-adv-x="603" 
d="M351 554l-54 55l-53 -55h-132l103 117h165l103 -117h-132zM36 289v-60q0 -104 64.5 -164t185.5 -60q79 0 140 34v-37q0 -54 -36 -82.5t-105 -28.5q-91 0 -148 57l-84 -77q89 -77 232 -77q133 0 202 60.5t69 162.5v264q0 116 -69 174t-190 58t-191 -58.5t-70 -165.5z
M427 298v-81q0 -119 -129 -119q-132 0 -132 123v77q0 62 36.5 92.5t94.5 30.5q57 0 93.5 -30.5t36.5 -92.5z" />
    <glyph glyph-name="Gbreve" unicode="&#x11e;" horiz-adv-x="718" 
d="M373 348h312v-85q0 -127 -82 -201t-239 -74q-148 0 -230 77.5t-82 219.5v100q0 57 16 107.5t50.5 95t97 70t147.5 25.5q134 0 212.5 -55.5t100.5 -144.5h-146q-35 105 -167 105q-84 0 -128 -57t-44 -152v-79q0 -216 177 -216q168 0 176 162h-171v102zM371 704
q-137 0 -147 101h85q0 -22 18 -34t44 -12q25 0 42.5 12t17.5 34h84q-7 -101 -144 -101z" />
    <glyph glyph-name="gbreve" unicode="&#x11f;" horiz-adv-x="603" 
d="M36 289v-60q0 -104 64.5 -164t185.5 -60q79 0 140 34v-37q0 -54 -36 -82.5t-105 -28.5q-91 0 -148 57l-84 -77q89 -77 232 -77q133 0 202 60.5t69 162.5v264q0 116 -69 174t-190 58t-191 -58.5t-70 -165.5zM427 298v-81q0 -119 -129 -119q-132 0 -132 123v77
q0 62 36.5 92.5t94.5 30.5q57 0 93.5 -30.5t36.5 -92.5zM300 551q-70 0 -106 34t-41 86h85q1 -27 18 -41.5t44 -14.5q25 0 42 14.5t18 41.5h84q-3 -52 -38 -86t-106 -34z" />
    <glyph glyph-name="Gdotaccent" unicode="&#x120;" horiz-adv-x="716" 
d="M373 348h312v-85q0 -127 -82 -201t-239 -74q-148 0 -230 77.5t-82 219.5v100q0 57 16 107.5t50.5 95t97 70t147.5 25.5q134 0 212.5 -55.5t100.5 -144.5h-146q-35 105 -167 105q-84 0 -128 -57t-44 -152v-79q0 -216 177 -216q168 0 176 162h-171v102zM312 710v95h115v-95
h-115z" />
    <glyph glyph-name="gdotaccent" unicode="&#x121;" horiz-adv-x="603" 
d="M36 229v60q0 107 70 165.5t191 58.5t190 -58t69 -174v-264q0 -102 -69 -162.5t-202 -60.5q-143 0 -232 77l84 77q57 -57 148 -57q69 0 105 28.5t36 82.5v37q-61 -34 -140 -34q-121 0 -185.5 60t-64.5 164zM427 217v81q0 62 -36.5 92.5t-93.5 30.5q-58 0 -94.5 -30.5
t-36.5 -92.5v-77q0 -123 132 -123q129 0 129 119zM235 562v109h128v-109h-128z" />
    <glyph glyph-name="Gcommaaccent" unicode="&#x122;" horiz-adv-x="716" 
d="M373 348h312v-85q0 -127 -82 -201t-239 -74q-148 0 -230 77.5t-82 219.5v100q0 57 16 107.5t50.5 95t97 70t147.5 25.5q134 0 212.5 -55.5t100.5 -144.5h-146q-35 105 -167 105q-84 0 -128 -57t-44 -152v-79q0 -216 177 -216q168 0 176 162h-171v102zM335 -168h-126
l100 129h134z" />
    <glyph glyph-name="gcommaaccent" unicode="&#x123;" horiz-adv-x="603" 
d="M36 289v-60q0 -104 64.5 -164t185.5 -60q79 0 140 34v-37q0 -54 -36 -82.5t-105 -28.5q-91 0 -148 57l-84 -77q89 -77 232 -77q133 0 202 60.5t69 162.5v264q0 116 -69 174t-190 58t-191 -58.5t-70 -165.5zM427 298v-81q0 -119 -129 -119q-132 0 -132 123v77
q0 62 36.5 92.5t94.5 30.5q57 0 93.5 -30.5t36.5 -92.5zM315 671h120l-79 -113h-127z" />
    <glyph glyph-name="Hcircumflex" unicode="&#x124;" horiz-adv-x="778" 
d="M584 393v278h132v-671h-132v282h-376v-282h-132v671h132v-278h376zM433 710l-38 48l-38 -48h-125l76 95h174l76 -95h-125z" />
    <glyph glyph-name="hcircumflex" unicode="&#x125;" horiz-adv-x="601" 
d="M325 513q229 0 229 -211v-302h-131v304q0 115 -116 115q-55 0 -89 -29t-34 -85v-305h-129v671h129v-191q61 33 141 33zM343 710l-38 48l-38 -48h-125l76 95h174l76 -95h-125z" />
    <glyph glyph-name="Hbar" unicode="&#x126;" horiz-adv-x="932" 
d="M50 473v94h105v105h132v-105h376v105h132v-105h100v-94h-100v-472h-132v282h-376v-282h-132v472h-105zM663 394v79h-376v-79h376z" />
    <glyph glyph-name="hbar" unicode="&#x127;" horiz-adv-x="646" 
d="M23 547v83h77v42h129v-42h119v-83h-119v-66q61 33 141 33q229 0 229 -211v-302h-131v304q0 115 -116 115q-55 0 -89 -29t-34 -85v-305h-129v546h-77z" />
    <glyph glyph-name="Itilde" unicode="&#x128;" horiz-adv-x="296" 
d="M80 671v-671h136v671h-136zM58 710h-87q-2 48 25 75t77 26q33 -1 82 -19q49 -17 55 -17q35 0 35 30h79q2 -52 -22.5 -77t-73.5 -24q-30 1 -88 22q-45 15 -49 15q-33 0 -33 -31z" />
    <glyph glyph-name="itilde" unicode="&#x129;" horiz-adv-x="248" 
d="M60 503v-503h128v503h-128zM37 554h-82q-2 56 26 87.5t76 30.5q21 -1 75 -23q36 -16 50 -16q33 0 33 38h75q2 -60 -24 -90.5t-74 -29.5q-28 1 -80 25q-34 15 -43 15q-17 0 -24.5 -8t-7.5 -29z" />
    <glyph glyph-name="Imacron" unicode="&#x12a;" horiz-adv-x="296" 
d="M80 671v-671h136v671h-136zM-26 719v86h344v-86h-344z" />
    <glyph glyph-name="imacron" unicode="&#x12b;" horiz-adv-x="248" 
d="M60 503v-503h128v503h-128zM-47 577v94h344v-94h-344z" />
    <glyph glyph-name="Ibreve" unicode="&#x12c;" horiz-adv-x="296" 
d="M80 671v-671h136v671h-136zM150 704q-137 0 -147 101h85q0 -22 18 -34t44 -12q25 0 42.5 12t17.5 34h84q-7 -101 -144 -101z" />
    <glyph glyph-name="ibreve" unicode="&#x12d;" horiz-adv-x="248" 
d="M60 503v-503h128v503h-128zM126 551q-70 0 -106 34t-41 86h85q1 -27 18 -41.5t44 -14.5q25 0 42 14.5t18 41.5h84q-3 -52 -38 -86t-106 -34z" />
    <glyph glyph-name="Iogonek" unicode="&#x12e;" horiz-adv-x="296" 
d="M244 -167h-82q-53 0 -81.5 24t-28.5 65q0 45 28 82v667h136v-671h-52q-18 -23 -18 -55q0 -39 47 -39h51v-73z" />
    <glyph glyph-name="iogonek" unicode="&#x12f;" horiz-adv-x="248" 
d="M225 -167h-82q-53 0 -81.5 24t-28.5 65q0 44 27 81v500h128v-503h-43q-18 -23 -18 -55q0 -39 47 -39h51v-73zM61 562v109h128v-109h-128z" />
    <glyph glyph-name="Idotaccent" unicode="&#x130;" horiz-adv-x="296" 
d="M80 0v671h136v-671h-136zM91 710v95h115v-95h-115z" />
    <glyph glyph-name="dotlessi" unicode="&#x131;" horiz-adv-x="248" 
d="M60 0v503h128v-503h-128z" />
    <glyph glyph-name="IJ" unicode="&#x132;" horiz-adv-x="790" 
d="M81 1v671h136v-671h-136zM608 206v466h132v-465q0 -103 -66 -159.5t-187 -56.5q-143 0 -238 86l89 83q58 -68 148 -68q52 0 87 29.5t35 84.5z" />
    <glyph glyph-name="ij" unicode="&#x133;" horiz-adv-x="533" 
d="M91 1v503h128v-503h-128zM91 563v109h128v-109h-128zM342 -30v542h129v-547q0 -70 -49 -111t-126 -41h-62v95h42q66 0 66 62zM342 563v109h128v-109h-128z" />
    <glyph glyph-name="Jcircumflex" unicode="&#x134;" horiz-adv-x="531" 
d="M372 205v466h132v-465q0 -103 -66 -159.5t-187 -56.5q-143 0 -238 86l89 83q58 -68 148 -68q52 0 87 29.5t35 84.5zM463 710l-38 48l-38 -48h-125l76 95h174l76 -95h-125z" />
    <glyph glyph-name="jcircumflex" unicode="&#x135;" horiz-adv-x="294" 
d="M110 511v-542q0 -62 -66 -62h-42v-95h62q77 0 126 41t49 111v547h-129zM225 554l-54 55l-53 -55h-132l103 117h165l103 -117h-132z" />
    <glyph glyph-name="Kcommaaccent" unicode="&#x136;" horiz-adv-x="722" 
d="M702 671l-310 -285l334 -386h-172l-256 300l-90 -83v-217h-132v671h132v-294l317 294h177zM338 -168h-126l100 129h134z" />
    <glyph glyph-name="kcommaaccent" unicode="&#x137;" horiz-adv-x="584" 
d="M322 288l255 -288h-162l-180 208l-52 -48v-160h-128v671h128v-363l212 195h160zM268 -168h-126l100 129h134z" />
    <glyph glyph-name="kgreenlandic" unicode="&#x138;" horiz-adv-x="588" 
d="M322 284l260 -284h-161l-182 204l-49 -46v-158h-128v513h128v-205l209 195h152z" />
    <glyph glyph-name="Lacute" unicode="&#x139;" horiz-adv-x="578" 
d="M197 671v-568h362v-103h-494v671h132zM454 805l-101 -95h-129l82 95h148z" />
    <glyph glyph-name="lacute" unicode="&#x13a;" horiz-adv-x="330" 
d="M205 152q0 -32 15 -44.5t46 -12.5h68v-95h-95q-83 0 -122.5 37.5t-39.5 119.5v514h128v-519zM301 805l-101 -95h-129l82 95h148z" />
    <glyph glyph-name="Lcommaaccent" unicode="&#x13b;" horiz-adv-x="578" 
d="M197 671v-568h362v-103h-494v671h132zM274 -168h-126l100 129h134z" />
    <glyph glyph-name="lcommaaccent" unicode="&#x13c;" horiz-adv-x="344" 
d="M202 152q0 -32 15 -44.5t46 -12.5h68v-95h-95q-83 0 -122.5 37.5t-39.5 119.5v514h128v-519zM182 -168h-126l100 129h134z" />
    <glyph glyph-name="Lcaron" unicode="&#x13d;" horiz-adv-x="578" 
d="M197 671v-568h362v-103h-494v671h132zM361 458h-89l56 213h100z" />
    <glyph glyph-name="lcaron" unicode="&#x13e;" horiz-adv-x="377" 
d="M203 152q0 -32 15 -44.5t46 -12.5h68v-95h-95q-83 0 -122.5 37.5t-39.5 119.5v514h128v-519zM335 458h-89l56 213h100z" />
    <glyph glyph-name="Ldot" unicode="&#x13f;" horiz-adv-x="578" 
d="M197 671v-568h362v-103h-494v671h132zM291 359v-108h122v108h-122z" />
    <glyph glyph-name="ldot" unicode="&#x140;" horiz-adv-x="429" 
d="M86 0v671h136v-671h-136zM286 251v108h122v-108h-122z" />
    <glyph glyph-name="Lslash" unicode="&#x141;" horiz-adv-x="615" 
d="M248 672v-231l80 35l37 -81l-117 -52v-239h362v-103h-494v284l-55 -24l-38 81l93 41v289h132z" />
    <glyph glyph-name="lslash" unicode="&#x142;" horiz-adv-x="364" 
d="M250 153q0 -32 15 -44.5t46 -12.5h68v-95h-95q-83 0 -122.5 37.5t-39.5 119.5v130l-61 -27l-38 81l99 43v287h128v-231l78 35l37 -81l-115 -51v-191z" />
    <glyph glyph-name="Nacute" unicode="&#x143;" horiz-adv-x="747" 
d="M571 671v-470l-377 470h-129v-671h122v482l376 -482h129v671h-121zM517 805l-101 -95h-129l82 95h148z" />
    <glyph glyph-name="nacute" unicode="&#x144;" horiz-adv-x="603" 
d="M331 513q-91 0 -163 -50l-7 40h-109v-503h129v310q0 51 33 80t91 29q121 0 121 -115v-304h130v302q0 211 -225 211zM497 671l-124 -117h-132l103 117h153z" />
    <glyph glyph-name="Ncommaaccent" unicode="&#x145;" horiz-adv-x="747" 
d="M571 201v470h121v-671h-129l-376 482v-482h-122v671h129zM341 -168h-126l100 129h134z" />
    <glyph glyph-name="ncommaaccent" unicode="&#x146;" horiz-adv-x="603" 
d="M331 513q225 0 225 -211v-302h-130v304q0 115 -121 115q-58 0 -91 -29t-33 -80v-310h-129v503h109l7 -40q72 50 163 50zM277 -168h-126l100 129h134z" />
    <glyph glyph-name="Ncaron" unicode="&#x147;" horiz-adv-x="747" 
d="M571 671v-470l-377 470h-129v-671h122v482l376 -482h129v671h-121zM373 757l38 48h125l-76 -95h-174l-76 95h125z" />
    <glyph glyph-name="ncaron" unicode="&#x148;" horiz-adv-x="603" 
d="M331 513q-91 0 -163 -50l-7 40h-109v-503h129v310q0 51 33 80t91 29q121 0 121 -115v-304h130v302q0 211 -225 211zM310 616l54 55h132l-103 -117h-165l-103 117h132z" />
    <glyph glyph-name="Eng" unicode="&#x14a;" horiz-adv-x="747" 
d="M571 202v470h121v-677q0 -105 -57 -162.5t-156 -57.5q-88 0 -152 41l43 102q43 -28 92 -28q101 0 102 111h-1l-376 482v-482h-122v671h129z" />
    <glyph glyph-name="eng" unicode="&#x14b;" horiz-adv-x="603" 
d="M331 514q225 0 225 -211v-308q0 -104 -58 -162t-157 -58q-88 0 -152 41l43 102q43 -28 92 -28q101 0 102 111v304q0 115 -121 115q-58 0 -91 -29t-33 -80v-310h-129v503h109l7 -40q72 50 163 50z" />
    <glyph glyph-name="Omacron" unicode="&#x14c;" horiz-adv-x="726" 
d="M363 683q-161 0 -239.5 -81t-78.5 -215v-97q0 -139 78.5 -220.5t239.5 -81.5t239.5 81.5t78.5 220.5v97q0 134 -78.5 215t-239.5 81zM363 84q-179 0 -179 218v71q0 100 43.5 157.5t135.5 57.5t135 -57.5t43 -157.5v-71q0 -218 -178 -218zM190 719v86h344v-86h-344z" />
    <glyph glyph-name="omacron" unicode="&#x14d;" horiz-adv-x="583" 
d="M121 577v94h344v-94h-344zM417 301v-100q0 -118 -125 -118q-57 0 -91.5 28.5t-34.5 89.5v100q0 62 34.5 91t91.5 29q125 0 125 -120zM548 217v75q0 106 -65.5 163.5t-190.5 57.5t-191 -57.5t-66 -163.5v-73q0 -229 257 -229q256 0 256 227z" />
    <glyph glyph-name="Obreve" unicode="&#x14e;" horiz-adv-x="726" 
d="M363 683q-161 0 -239.5 -81t-78.5 -215v-97q0 -139 78.5 -220.5t239.5 -81.5t239.5 81.5t78.5 220.5v97q0 134 -78.5 215t-239.5 81zM363 84q-179 0 -179 218v71q0 100 43.5 157.5t135.5 57.5t135 -57.5t43 -157.5v-71q0 -218 -178 -218zM365 704q-137 0 -147 101h85
q0 -22 18 -34t44 -12q25 0 42.5 12t17.5 34h84q-7 -101 -144 -101z" />
    <glyph glyph-name="obreve" unicode="&#x14f;" horiz-adv-x="583" 
d="M417 301v-100q0 -118 -125 -118q-57 0 -91.5 28.5t-34.5 89.5v100q0 62 34.5 91t91.5 29q125 0 125 -120zM548 217v75q0 106 -65.5 163.5t-190.5 57.5t-191 -57.5t-66 -163.5v-73q0 -229 257 -229q256 0 256 227zM294 551q-70 0 -106 34t-41 86h85q1 -27 18 -41.5
t44 -14.5q25 0 42 14.5t18 41.5h84q-3 -52 -38 -86t-106 -34z" />
    <glyph glyph-name="Ohungarumlaut" unicode="&#x150;" horiz-adv-x="726" 
d="M363 683q-161 0 -239.5 -81t-78.5 -215v-97q0 -139 78.5 -220.5t239.5 -81.5t239.5 81.5t78.5 220.5v97q0 134 -78.5 215t-239.5 81zM363 84q-179 0 -179 218v71q0 100 43.5 157.5t135.5 57.5t135 -57.5t43 -157.5v-71q0 -218 -178 -218zM417 805l-96 -93h-111l77 93h130
zM600 805l-96 -93h-111l77 93h130z" />
    <glyph glyph-name="ohungarumlaut" unicode="&#x151;" horiz-adv-x="583" 
d="M417 301v-100q0 -118 -125 -118q-57 0 -91.5 28.5t-34.5 89.5v100q0 62 34.5 91t91.5 29q125 0 125 -120zM548 217v75q0 106 -65.5 163.5t-190.5 57.5t-191 -57.5t-66 -163.5v-73q0 -229 257 -229q256 0 256 227zM363 671l-116 -125h-105l97 125h124zM540 671l-116 -125
h-105l97 125h124z" />
    <glyph glyph-name="OE" unicode="&#x152;" horiz-adv-x="1093" 
d="M370 683q111 0 193 -58v46h509v-103h-377v-170h342v-103h-342v-192h377v-103h-509v42q-83 -54 -193 -54q-156 0 -240.5 78t-84.5 219v89q0 59 17 111t52.5 98t101.5 73t154 27zM370 83q94 0 140.5 60t46.5 161v68q0 95 -47.5 155.5t-139.5 60.5q-93 0 -140 -60t-47 -156
v-68q0 -102 46.5 -161.5t140.5 -59.5z" />
    <glyph glyph-name="oe" unicode="&#x153;" horiz-adv-x="982" 
d="M863 142l83 -70q-95 -82 -237 -82q-124 0 -204 80q-77 -80 -204 -80t-195.5 59t-68.5 175v63q0 105 69.5 165.5t194.5 60.5q123 0 202 -84q79 84 194 84q127 0 194.5 -67.5t67.5 -187.5v-44h-394v-1v-4q0 -59 41 -91.5t105 -32.5q89 0 152 57zM434 208v86q0 60 -39 93.5
t-94 33.5t-94 -33.5t-39 -93.5v-86q0 -59 39 -92t94 -33t94 32.5t39 92.5zM565 297h264q-2 60 -40 93t-92 33t-92 -34.5t-40 -91.5z" />
    <glyph glyph-name="Racute" unicode="&#x154;" horiz-adv-x="694" 
d="M529 0l-189 257h-143v-257h-132v671h322q110 0 180.5 -52t70.5 -154q0 -69 -43.5 -120.5t-113.5 -74.5l205 -270h-157zM197 568v-206h171q63 0 98 28.5t35 74.5q0 103 -126 103h-178zM476 805l-101 -95h-129l82 95h148z" />
    <glyph glyph-name="racute" unicode="&#x155;" horiz-adv-x="368" 
d="M353 503v-92h-91q-83 0 -83 -83v-328h-129v324q0 81 49 130t135 49h119zM395 671l-124 -117h-132l103 117h153z" />
    <glyph glyph-name="Rcommaaccent" unicode="&#x156;" horiz-adv-x="694" 
d="M529 0l-189 257h-143v-257h-132v671h322q110 0 180.5 -52t70.5 -154q0 -69 -43.5 -120.5t-113.5 -74.5l205 -270h-157zM197 568v-206h171q63 0 98 28.5t35 74.5q0 103 -126 103h-178zM320 -168h-126l100 129h134z" />
    <glyph glyph-name="rcommaaccent" unicode="&#x157;" horiz-adv-x="374" 
d="M361 503v-92h-91q-83 0 -83 -83v-328h-129v324q0 81 49 130t135 49h119zM170 -168h-126l100 129h134z" />
    <glyph glyph-name="Rcaron" unicode="&#x158;" horiz-adv-x="694" 
d="M529 0l-189 257h-143v-257h-132v671h322q110 0 180.5 -52t70.5 -154q0 -69 -43.5 -120.5t-113.5 -74.5l205 -270h-157zM197 568v-206h171q63 0 98 28.5t35 74.5q0 103 -126 103h-178zM334 757l38 48h125l-76 -95h-174l-76 95h125z" />
    <glyph glyph-name="rcaron" unicode="&#x159;" horiz-adv-x="368" 
d="M353 503v-92h-91q-83 0 -83 -83v-328h-129v324q0 81 49 130t135 49h119zM210 616l54 55h132l-103 -117h-165l-103 117h132z" />
    <glyph glyph-name="Sacute" unicode="&#x15a;" horiz-adv-x="666" 
d="M492 805l-101 -95h-129l82 95h148zM301 404l138 -20q89 -13 138 -62.5t49 -128.5q0 -90 -79.5 -147.5t-215.5 -57.5q-87 0 -168.5 26.5t-132.5 73.5l94 85q82 -82 205 -82q77 0 116 27.5t39 75.5q0 72 -89 83l-136 19q-83 12 -142 61t-59 129q0 95 73.5 146t198.5 51
q169 0 273 -76l-91 -82q-79 55 -176 55q-65 0 -100.5 -23.5t-35.5 -62.5q0 -75 101 -90z" />
    <glyph glyph-name="sacute" unicode="&#x15b;" horiz-adv-x="518" 
d="M334 295q163 -22 163 -143q0 -76 -65 -119t-177 -43q-147 0 -235 77l80 72q60 -55 157 -55q110 0 110 61q0 50 -63 57l-101 12q-72 9 -117 46.5t-45 102.5q0 70 59.5 110t161.5 40q130 0 209 -67l-77 -67q-58 43 -129 43q-44 0 -69 -14.5t-25 -40.5q0 -50 60 -58z
M443 671l-124 -117h-132l103 117h153z" />
    <glyph glyph-name="Scircumflex" unicode="&#x15c;" horiz-adv-x="666" 
d="M301 404l138 -20q89 -13 138 -62.5t49 -128.5q0 -90 -79.5 -147.5t-215.5 -57.5q-87 0 -168.5 26.5t-132.5 73.5l94 85q82 -82 205 -82q77 0 116 27.5t39 75.5q0 72 -89 83l-136 19q-83 12 -142 61t-59 129q0 95 73.5 146t198.5 51q169 0 273 -76l-91 -82q-79 55 -176 55
q-65 0 -100.5 -23.5t-35.5 -62.5q0 -75 101 -90zM383 710l-38 48l-38 -48h-125l76 95h174l76 -95h-125z" />
    <glyph glyph-name="scircumflex" unicode="&#x15d;" horiz-adv-x="518" 
d="M322 554l-54 55l-53 -55h-132l103 117h165l103 -117h-132zM334 295q163 -22 163 -143q0 -76 -65 -119t-177 -43q-147 0 -235 77l80 72q60 -55 157 -55q110 0 110 61q0 50 -63 57l-101 12q-72 9 -117 46.5t-45 102.5q0 70 59.5 110t161.5 40q130 0 209 -67l-77 -67
q-58 43 -129 43q-44 0 -69 -14.5t-25 -40.5q0 -50 60 -58z" />
    <glyph glyph-name="Scedilla" unicode="&#x15e;" horiz-adv-x="650" 
d="M293 404l138 -20q89 -13 138 -62.5t49 -128.5q0 -90 -79.5 -147.5t-215.5 -57.5q-87 0 -168.5 26.5t-132.5 73.5l94 85q82 -82 205 -82q77 0 116 27.5t39 75.5q0 72 -89 83l-136 19q-83 12 -142 61t-59 129q0 95 73.5 146t198.5 51q169 0 273 -76l-91 -82q-79 55 -176 55
q-65 0 -100.5 -23.5t-35.5 -62.5q0 -75 101 -90zM386 -36l-84 -131h-141l108 131h117z" />
    <glyph glyph-name="scedilla" unicode="&#x15f;" horiz-adv-x="518" 
d="M334 295q163 -22 163 -143q0 -76 -65 -119t-177 -43q-147 0 -235 77l80 72q60 -55 157 -55q110 0 110 61q0 50 -63 57l-101 12q-72 9 -117 46.5t-45 102.5q0 70 59.5 110t161.5 40q130 0 209 -67l-77 -67q-58 43 -129 43q-44 0 -69 -14.5t-25 -40.5q0 -50 60 -58z
M322 -36l-84 -131h-141l108 131h117z" />
    <glyph glyph-name="Scaron" unicode="&#x160;" horiz-adv-x="666" 
d="M301 404l138 -20q89 -13 138 -62.5t49 -128.5q0 -90 -79.5 -147.5t-215.5 -57.5q-87 0 -168.5 26.5t-132.5 73.5l94 85q82 -82 205 -82q77 0 116 27.5t39 75.5q0 72 -89 83l-136 19q-83 12 -142 61t-59 129q0 95 73.5 146t198.5 51q169 0 273 -76l-91 -82q-79 55 -176 55
q-65 0 -100.5 -23.5t-35.5 -62.5q0 -75 101 -90zM340 757l38 48h125l-76 -95h-174l-76 95h125z" />
    <glyph glyph-name="scaron" unicode="&#x161;" horiz-adv-x="518" 
d="M334 295q163 -22 163 -143q0 -76 -65 -119t-177 -43q-147 0 -235 77l80 72q60 -55 157 -55q110 0 110 61q0 50 -63 57l-101 12q-72 9 -117 46.5t-45 102.5q0 70 59.5 110t161.5 40q130 0 209 -67l-77 -67q-58 43 -129 43q-44 0 -69 -14.5t-25 -40.5q0 -50 60 -58z
M262 616l54 55h132l-103 -117h-165l-103 117h132z" />
    <glyph glyph-name="Tcommaaccent" unicode="&#x162;" horiz-adv-x="646" 
d="M17 568v103h589v-103h-228v-568h-133v568h-228zM277 -168h-126l100 129h134z" />
    <glyph glyph-name="tcommaaccent" unicode="&#x163;" horiz-adv-x="407" 
d="M217 162q0 -35 16.5 -51t54.5 -16h91v-95h-128q-163 0 -163 166v245h-73v92h73v168h129v-168h162v-92h-162v-249zM224 -168h-126l100 129h134z" />
    <glyph glyph-name="Tcaron" unicode="&#x164;" horiz-adv-x="650" 
d="M17 568v103h589v-103h-228v-568h-133v568h-228zM313 757l38 48h125l-76 -95h-174l-76 95h125z" />
    <glyph glyph-name="tcaron" unicode="&#x165;" horiz-adv-x="448" 
d="M220 162q0 -35 16.5 -51t54.5 -16h91v-95h-128q-163 0 -163 166v245h-73v92h73v168h129v-168h83l44 168h100l-65 -207v-53h-162v-249z" />
    <glyph glyph-name="Tbar" unicode="&#x166;" horiz-adv-x="645" 
d="M161 270v94h84v205h-228v103h589v-103h-228v-205h127v-94h-127v-269h-133v269h-84z" />
    <glyph glyph-name="tbar" unicode="&#x167;" horiz-adv-x="405" 
d="M35 227v94h56v91h-73v92h73v168h129v-168h162v-92h-162v-91h159v-94h-159v-64q0 -35 16.5 -51t54.5 -16h91v-95h-128q-163 0 -163 166v60h-56z" />
    <glyph glyph-name="Utilde" unicode="&#x168;" horiz-adv-x="718" 
d="M529 671v-428q0 -74 -43.5 -115.5t-125.5 -41.5q-84 0 -128.5 42t-44.5 115v428h-132v-429q0 -114 79.5 -184t225.5 -70q143 0 223 70.5t80 183.5v429h-134zM271 710h-87q-2 48 25 75t77 26q33 -1 82 -19q49 -17 55 -17q35 0 35 30h79q2 -52 -22.5 -77t-73.5 -24
q-30 1 -88 22q-45 15 -49 15q-33 0 -33 -31z" />
    <glyph glyph-name="utilde" unicode="&#x169;" horiz-adv-x="588" 
d="M210 554h-82q-2 56 26 87.5t76 30.5q21 -1 75 -23q36 -16 50 -16q33 0 33 38h75q2 -60 -24 -90.5t-74 -29.5q-28 1 -80 25q-34 15 -43 15q-17 0 -24.5 -8t-7.5 -29zM294 -10q244 0 244 218v295h-129v-302q0 -117 -115 -117t-115 117v302h-129v-295q0 -218 244 -218z" />
    <glyph glyph-name="Umacron" unicode="&#x16a;" horiz-adv-x="718" 
d="M529 671v-428q0 -74 -43.5 -115.5t-125.5 -41.5q-84 0 -128.5 42t-44.5 115v428h-132v-429q0 -114 79.5 -184t225.5 -70q143 0 223 70.5t80 183.5v429h-134zM189 719v86h344v-86h-344z" />
    <glyph glyph-name="umacron" unicode="&#x16b;" horiz-adv-x="588" 
d="M122 577v94h344v-94h-344zM294 -10q244 0 244 218v295h-129v-302q0 -117 -115 -117t-115 117v302h-129v-295q0 -218 244 -218z" />
    <glyph glyph-name="Ubreve" unicode="&#x16c;" horiz-adv-x="718" 
d="M529 671v-428q0 -74 -43.5 -115.5t-125.5 -41.5q-84 0 -128.5 42t-44.5 115v428h-132v-429q0 -114 79.5 -184t225.5 -70q143 0 223 70.5t80 183.5v429h-134zM361 704q-137 0 -147 101h85q0 -22 18 -34t44 -12q25 0 42.5 12t17.5 34h84q-7 -101 -144 -101z" />
    <glyph glyph-name="ubreve" unicode="&#x16d;" horiz-adv-x="588" 
d="M298 551q-70 0 -106 34t-41 86h85q1 -27 18 -41.5t44 -14.5q25 0 42 14.5t18 41.5h84q-3 -52 -38 -86t-106 -34zM294 -10q244 0 244 218v295h-129v-302q0 -117 -115 -117t-115 117v302h-129v-295q0 -218 244 -218z" />
    <glyph glyph-name="Uring" unicode="&#x16e;" horiz-adv-x="718" 
d="M529 243v428h134v-429q0 -113 -80 -183.5t-223 -70.5q-146 0 -225.5 70t-79.5 184v429h132v-428q0 -73 44.5 -115t128.5 -42q82 0 125.5 41.5t43.5 115.5zM447 736q0 -35 -22 -56t-55 -21q-34 0 -57 21t-23 56q0 33 23 54.5t57 21.5q33 0 55 -21.5t22 -54.5zM396 736
q0 11 -7.5 19t-18.5 8t-20 -8t-9 -19q0 -12 8.5 -19.5t20.5 -7.5q26 0 26 27z" />
    <glyph glyph-name="uring" unicode="&#x16f;" horiz-adv-x="588" 
d="M376 617q0 -35 -22 -56t-55 -21q-34 0 -57 21t-23 56q0 32 23 54t57 22q32 0 54.5 -22t22.5 -54zM325 617q0 11 -7.5 19t-18.5 8t-20 -8t-9 -19q0 -12 8.5 -19.5t20.5 -7.5q26 0 26 27zM294 -10q-244 0 -244 218v295h129v-302q0 -117 115 -117t115 117v302h129v-295
q0 -218 -244 -218z" />
    <glyph glyph-name="Uhungarumlaut" unicode="&#x170;" horiz-adv-x="718" 
d="M529 671v-428q0 -74 -43.5 -115.5t-125.5 -41.5q-84 0 -128.5 42t-44.5 115v428h-132v-429q0 -114 79.5 -184t225.5 -70q143 0 223 70.5t80 183.5v429h-134zM416 805l-96 -93h-111l77 93h130zM599 805l-96 -93h-111l77 93h130z" />
    <glyph glyph-name="uhungarumlaut" unicode="&#x171;" horiz-adv-x="588" 
d="M368 671l-116 -125h-105l97 125h124zM545 671l-116 -125h-105l97 125h124zM294 -10q244 0 244 218v295h-129v-302q0 -117 -115 -117t-115 117v302h-129v-295q0 -218 244 -218z" />
    <glyph glyph-name="Uogonek" unicode="&#x172;" horiz-adv-x="718" 
d="M500 -167h-82q-53 0 -81.5 24t-28.5 65q0 35 18 68q-130 8 -200.5 76.5t-70.5 175.5v429h132v-428q0 -73 44.5 -115t128.5 -42q82 0 125.5 41.5t43.5 115.5v428h134v-429q0 -102 -65 -170t-184 -81q-12 -21 -12 -46q0 -39 47 -39h51v-73z" />
    <glyph glyph-name="uogonek" unicode="&#x173;" horiz-adv-x="588" 
d="M311 -10h-17q-244 0 -244 218v295h129v-302q0 -117 115 -117t115 117v302h129v-295q0 -159 -128 -202q-24 -27 -24 -61q0 -39 47 -39h51v-73h-82q-53 0 -81.5 24t-28.5 65q0 37 19 68z" />
    <glyph glyph-name="Wcircumflex" unicode="&#x174;" horiz-adv-x="1037" 
d="M910 671h128l-218 -671h-119l-178 475l-178 -475h-115l-217 671h140l148 -479l177 479h105l172 -479zM561 710l-38 48l-38 -48h-125l76 95h174l76 -95h-125z" />
    <glyph glyph-name="wcircumflex" unicode="&#x175;" horiz-adv-x="853" 
d="M486 554l-54 55l-53 -55h-132l103 117h165l103 -117h-132zM728 503h129l-177 -503h-120l-128 330l-127 -330h-123l-170 503h135l107 -341q13 34 59.5 155t72.5 186h99l133 -341z" />
    <glyph glyph-name="Ycircumflex" unicode="&#x176;" horiz-adv-x="686" 
d="M533 671h144l-269 -422v-249h-132v249l-267 422h152l184 -304zM383 710l-38 48l-38 -48h-125l76 95h174l76 -95h-125z" />
    <glyph glyph-name="ycircumflex" unicode="&#x177;" horiz-adv-x="578" 
d="M145 503l146 -321l142 321h134l-264 -571q-31 -68 -82.5 -98t-134.5 -30h-48v94h47q42 0 68 15.5t46 61.5l31 69l-220 459h135zM345 554l-54 55l-53 -55h-132l103 117h165l103 -117h-132z" />
    <glyph glyph-name="Ydieresis" unicode="&#x178;" horiz-adv-x="686" 
d="M533 671h144l-269 -422v-249h-132v249l-267 422h152l184 -304zM194 710v95h115v-95h-115zM383 710v95h115v-95h-115z" />
    <glyph glyph-name="Zacute" unicode="&#x179;" horiz-adv-x="626" 
d="M587 586l-365 -477h358v-109h-535v93l367 469h-357v109h532v-85zM469 805l-101 -95h-129l82 95h148z" />
    <glyph glyph-name="zacute" unicode="&#x17a;" horiz-adv-x="525" 
d="M495 415l-299 -318h299v-97h-460v88l298 318h-280v97h442v-88zM455 671l-124 -117h-132l103 117h153z" />
    <glyph glyph-name="Zdotaccent" unicode="&#x17b;" horiz-adv-x="624" 
d="M587 586l-365 -477h358v-109h-535v93l367 469h-357v109h532v-85zM255 710v95h115v-95h-115z" />
    <glyph glyph-name="zdotaccent" unicode="&#x17c;" horiz-adv-x="525" 
d="M495 415l-299 -318h299v-97h-460v88l298 318h-280v97h442v-88zM216 562v109h128v-109h-128z" />
    <glyph glyph-name="Zcaron" unicode="&#x17d;" horiz-adv-x="626" 
d="M587 586l-365 -477h358v-109h-535v93l367 469h-357v109h532v-85zM331 757l38 48h125l-76 -95h-174l-76 95h125z" />
    <glyph glyph-name="zcaron" unicode="&#x17e;" horiz-adv-x="516" 
d="M495 415l-299 -318h299v-97h-460v88l298 318h-280v97h442v-88zM276 616l54 55h132l-103 -117h-165l-103 117h132z" />
    <glyph glyph-name="florin" unicode="&#x192;" horiz-adv-x="566" 
d="M138 41l30 278h-91l10 96h91l5 40q12 111 82 169.5t181 58.5q46 0 92 -16l-6 -93q-38 14 -85 14q-48 0 -85.5 -37.5t-46.5 -98.5l-4 -37h138l-9 -96h-140l-32 -293q-9 -81 -73.5 -132t-164.5 -51q-46 0 -88 17l15 92q28 -14 68 -14q41 0 73 28t40 75z" />
    <glyph glyph-name="Icaron" unicode="&#x1cf;" horiz-adv-x="374" 
d="M80 0v671h136v-671h-136zM341 458h-89l56 213h100z" />
    <glyph glyph-name="Aringacute" unicode="&#x1fa;" horiz-adv-x="797" 
d="M470 737q0 33 -22 54.5t-55 21.5q-34 0 -57 -21.5t-23 -54.5q0 -46 36 -66h-30l-312 -671h139l72 163h347l72 -163h150l-321 671h-31q35 20 35 66zM392 552l128 -289h-257zM586 951l-124 -117h-132l103 117h153zM419 737q0 -27 -26 -27q-12 0 -20.5 7.5t-8.5 19.5
q0 11 9 19t20 8t18.5 -8t7.5 -19z" />
    <glyph glyph-name="aringacute" unicode="&#x1fb;" horiz-adv-x="573" 
d="M375 576q0 32 -22.5 54t-54.5 22q-34 0 -57 -22t-23 -54q0 -43 33 -64q-119 -10 -191 -75l87 -65q47 47 135 47q67 0 92.5 -20t25.5 -56v-41h-136q-108 0 -165 -42t-57 -109t68.5 -114t191.5 -47q118 0 208 43q18 8 18 23v280q0 154 -188 174q35 20 35 66zM400 222v-119
q-39 -23 -101 -23q-65 0 -98.5 19.5t-33.5 53.5q0 31 26.5 50t77.5 19h129zM493 805l-124 -117h-132l103 117h153zM324 576q0 -27 -26 -27q-12 0 -20.5 7.5t-8.5 19.5q0 11 9 19t20 8t18.5 -8t7.5 -19z" />
    <glyph glyph-name="AEacute" unicode="&#x1fc;" horiz-adv-x="1054" 
d="M141 0l123 190h256v-190h509v103h-377v192h343v103h-343v170h377v103h-593l-438 -671h143zM520 289h-192l192 297v-297zM858 805l-101 -95h-129l82 95h148z" />
    <glyph glyph-name="aeacute" unicode="&#x1fd;" horiz-adv-x="951" 
d="M39 150q0 -75 59.5 -117.5t147.5 -42.5q124 0 207 84q72 -84 222 -84q141 0 237 82l-83 70q-63 -57 -152 -57q-64 0 -105.5 32.5t-41.5 91.5v5h395v44q0 119 -68 187t-194 68q-119 0 -189 -64q-53 64 -186 64q-136 0 -221 -76l87 -65q46 46 131 46q67 0 91 -19.5
t24 -55.5v-42h-165q-85 0 -140.5 -41.5t-55.5 -109.5zM400 220v-43q0 -43 -37 -68.5t-95 -25.5q-97 0 -97 71q0 31 23 48.5t65 17.5h141zM795 297h-265q2 57 40.5 91.5t92.5 34.5q53 0 91.5 -33.5t40.5 -92.5zM662 671l-124 -117h-132l103 117h153z" />
    <glyph glyph-name="Oslashacute" unicode="&#x1fe;" horiz-adv-x="726" 
d="M529 707l-29 -44q-60 20 -137 20q-161 0 -239.5 -81t-78.5 -215v-97q0 -136 71 -213l-92 -141h138l50 77q64 -25 151 -25q161 0 239.5 81.5t78.5 220.5v97q0 140 -83 219l66 101h-135zM363 84q-54 0 -92 19l251 385q19 -47 19 -115v-71q0 -218 -178 -218zM363 588
q45 0 78 -15l-244 -374q-13 43 -13 103v71q0 100 43.5 157.5t135.5 57.5zM531 806l-101 -95h-129l82 95h148z" />
    <glyph glyph-name="oslashacute" unicode="&#x1ff;" horiz-adv-x="583" 
d="M548 217v75q0 106 -66 163l55 86h-120l-26 -40q-43 12 -99 12q-125 0 -191 -57.5t-66 -163.5v-73q0 -114 63 -171l-70 -109h123l39 62q47 -11 102 -11q256 0 256 227zM417 301v-100q0 -118 -125 -118q-23 0 -46 5l165 257q6 -19 6 -44zM292 421q21 0 44 -5l-165 -256
q-5 20 -5 41v100q0 62 34.5 91t91.5 29zM479 671l-124 -117h-132l103 117h153z" />
    <glyph glyph-name="Scommaaccent" unicode="&#x218;" horiz-adv-x="666" 
d="M301 404l138 -20q89 -13 138 -62.5t49 -128.5q0 -90 -79.5 -147.5t-215.5 -57.5q-87 0 -168.5 26.5t-132.5 73.5l94 85q82 -82 205 -82q77 0 116 27.5t39 75.5q0 72 -89 83l-136 19q-83 12 -142 61t-59 129q0 95 73.5 146t198.5 51q169 0 273 -76l-91 -82q-79 55 -176 55
q-65 0 -100.5 -23.5t-35.5 -62.5q0 -75 101 -90zM307 -168h-126l100 129h134z" />
    <glyph glyph-name="scommaaccent" unicode="&#x219;" horiz-adv-x="507" 
d="M334 295q163 -22 163 -143q0 -76 -65 -119t-177 -43q-147 0 -235 77l80 72q60 -55 157 -55q110 0 110 61q0 50 -63 57l-101 12q-72 9 -117 46.5t-45 102.5q0 70 59.5 110t161.5 40q130 0 209 -67l-77 -67q-58 43 -129 43q-44 0 -69 -14.5t-25 -40.5q0 -50 60 -58z
M225 -168h-126l100 129h134z" />
    <glyph glyph-name="dotlessj" unicode="&#x237;" horiz-adv-x="294" 
d="M110 -39v542h129v-547q0 -70 -49 -111t-126 -41h-62v95h42q66 0 66 62z" />
    <glyph glyph-name="schwa" unicode="&#x259;" horiz-adv-x="586" 
d="M158 360l-82 70q89 82 237 82q126 0 201.5 -64t75.5 -183v-24q0 -115 -70.5 -183.5t-192.5 -68.5q-129 0 -196 67.5t-67 187.5v44h395v4q0 60 -41.5 92.5t-106.5 32.5q-88 0 -153 -57zM459 205h-264q2 -61 38 -93.5t94 -32.5q55 0 92.5 34.5t39.5 91.5z" />
    <glyph glyph-name="circumflex" unicode="&#x2c6;" 
d="M428 554l-54 55l-53 -55h-132l103 117h165l103 -117h-132z" />
    <glyph glyph-name="caron" unicode="&#x2c7;" 
d="M374 616l54 55h132l-103 -117h-165l-103 117h132z" />
    <glyph glyph-name="breve" unicode="&#x2d8;" 
d="M375 551q-70 0 -106 34t-41 86h85q1 -27 18 -41.5t44 -14.5q25 0 42 14.5t18 41.5h84q-3 -52 -38 -86t-106 -34z" />
    <glyph glyph-name="dotaccent" unicode="&#x2d9;" 
d="M314 562v109h128v-109h-128z" />
    <glyph glyph-name="ring" unicode="&#x2da;" 
d="M452 617q0 -35 -22 -56t-55 -21q-34 0 -57 21t-23 56q0 32 23 54t57 22q32 0 54.5 -22t22.5 -54zM401 617q0 11 -7.5 19t-18.5 8t-20 -8t-9 -19q0 -12 8.5 -19.5t20.5 -7.5q26 0 26 27z" />
    <glyph glyph-name="ogonek" unicode="&#x2db;" 
d="M487 -168h-82q-53 0 -81.5 24t-28.5 65q0 48 34 90h89q-29 -29 -29 -67q0 -39 47 -39h51v-73z" />
    <glyph glyph-name="tilde" unicode="&#x2dc;" 
d="M286 554h-82q-2 56 26 87.5t76 30.5q21 -1 75 -23q36 -16 50 -16q33 0 33 38h75q2 -60 -24 -90.5t-74 -29.5q-28 1 -80 25q-34 15 -43 15q-17 0 -24.5 -8t-7.5 -29z" />
    <glyph glyph-name="hungarumlaut" unicode="&#x2dd;" 
d="M421 671l-116 -125h-105l97 125h124zM598 671l-116 -125h-105l97 125h124z" />
    <glyph glyph-name="uni0326" unicode="&#x326;" 
d="M339 -168h-126l100 129h134z" />
    <glyph glyph-name="Delta" unicode="&#x394;" horiz-adv-x="818" 
d="M784 1h-734l366 683h11zM420 463l-188 -358h372q-18 35 -83.5 162.5t-100.5 195.5z" />
    <glyph glyph-name="Delta" unicode="&#x2206;" horiz-adv-x="818" 
d="M784 1h-734l366 683h11zM420 463l-188 -358h372q-18 35 -83.5 162.5t-100.5 195.5z" />
    <glyph glyph-name="Omega" unicode="&#x3a9;" horiz-adv-x="985" 
d="M913 105v-105h-376l-1 111q89 13 150 78t61 161q0 100 -71 165t-174 65q-107 0 -177.5 -64.5t-70.5 -165.5q0 -95 62 -160.5t143 -78.5v-111h-373v105h174q-56 43 -90.5 109.5t-34.5 134.5q0 152 104 243.5t262 91.5q156 0 260 -92t104 -243q0 -72 -34 -136t-91 -108h173
z" />
    <glyph glyph-name="Omega" unicode="&#x2126;" horiz-adv-x="985" 
d="M913 105v-105h-376l-1 111q89 13 150 78t61 161q0 100 -71 165t-174 65q-107 0 -177.5 -64.5t-70.5 -165.5q0 -95 62 -160.5t143 -78.5v-111h-373v105h174q-56 43 -90.5 109.5t-34.5 134.5q0 152 104 243.5t262 91.5q156 0 260 -92t104 -243q0 -72 -34 -136t-91 -108h173
z" />
    <glyph glyph-name="pi" unicode="&#x3c0;" horiz-adv-x="727" 
d="M288 0h-119v337h-83v106h569v-106h-83v-337h-120v337h-164v-337z" />
    <glyph glyph-name="Wgrave" unicode="&#x1e80;" horiz-adv-x="1051" 
d="M910 671h128l-218 -671h-119l-178 475l-178 -475h-115l-217 671h140l148 -479l177 479h105l172 -479zM459 710l-101 95h148l82 -95h-129z" />
    <glyph glyph-name="wgrave" unicode="&#x1e81;" horiz-adv-x="890" 
d="M376 554l-124 117h153l103 -117h-132zM727 503h129l-177 -503h-120l-128 330l-127 -330h-123l-170 503h135l107 -341q13 34 59.5 155t72.5 186h99l133 -341z" />
    <glyph glyph-name="Wacute" unicode="&#x1e82;" horiz-adv-x="1051" 
d="M910 671h128l-218 -671h-119l-178 475l-178 -475h-115l-217 671h140l148 -479l177 479h105l172 -479zM692 805l-101 -95h-129l82 95h148z" />
    <glyph glyph-name="wacute" unicode="&#x1e83;" horiz-adv-x="884" 
d="M727 503h129l-177 -503h-120l-128 330l-127 -330h-123l-170 503h135l107 -341q13 34 59.5 155t72.5 186h99l133 -341zM624 671l-124 -117h-132l103 117h153z" />
    <glyph glyph-name="Wdieresis" unicode="&#x1e84;" horiz-adv-x="1037" 
d="M910 671h128l-218 -671h-119l-178 475l-178 -475h-115l-217 671h140l148 -479l177 479h105l172 -479zM370 710v95h115v-95h-115zM559 710v95h115v-95h-115z" />
    <glyph glyph-name="wdieresis" unicode="&#x1e85;" horiz-adv-x="853" 
d="M272 564v107h122v-107h-122zM469 564v107h122v-107h-122zM728 503h129l-177 -503h-120l-128 330l-127 -330h-123l-170 503h135l107 -341q13 34 59.5 155t72.5 186h99l133 -341z" />
    <glyph glyph-name="Ygrave" unicode="&#x1ef2;" horiz-adv-x="686" 
d="M533 671h144l-269 -422v-249h-132v249l-267 422h152l184 -304zM282 710l-101 95h148l82 -95h-129z" />
    <glyph glyph-name="ygrave" unicode="&#x1ef3;" horiz-adv-x="589" 
d="M146 503l146 -321l142 321h134l-264 -571q-31 -68 -82.5 -98t-134.5 -30h-48v94h47q42 0 68 15.5t46 61.5l31 69l-220 459h135zM234 554l-124 117h153l103 -117h-132z" />
    <glyph glyph-name="enspace" unicode="&#x2002;" horiz-adv-x="487" 
 />
    <glyph glyph-name="emspace" unicode="&#x2003;" horiz-adv-x="992" 
 />
    <glyph glyph-name="threeperemspace" unicode="&#x2004;" horiz-adv-x="318" 
 />
    <glyph glyph-name="fourperemspace" unicode="&#x2005;" horiz-adv-x="233" 
 />
    <glyph glyph-name="thinspace" unicode="&#x2009;" horiz-adv-x="113" 
 />
    <glyph glyph-name="hairspace" unicode="&#x200a;" horiz-adv-x="58" 
 />
    <glyph glyph-name="endash" unicode="&#x2013;" horiz-adv-x="507" 
d="M490 205h-456v98h456v-98z" />
    <glyph glyph-name="emdash" unicode="&#x2014;" horiz-adv-x="868" 
d="M832 205h-781v98h781v-98z" />
    <glyph glyph-name="quoteleft" unicode="&#x2018;" horiz-adv-x="258" 
d="M121 672l125 -277h-121l-140 277h136z" />
    <glyph glyph-name="quoteright" unicode="&#x2019;" horiz-adv-x="291" 
d="M25 395l125 277h136l-140 -277h-121z" />
    <glyph glyph-name="quotesinglbase" unicode="&#x201a;" horiz-adv-x="282" 
d="M22 -150l125 277h136l-140 -277h-121z" />
    <glyph glyph-name="quotedblleft" unicode="&#x201c;" horiz-adv-x="547" 
d="M171 672l125 -277h-121l-140 277h136zM390 672l125 -277h-121l-140 277h136z" />
    <glyph glyph-name="quotedblright" unicode="&#x201d;" horiz-adv-x="477" 
d="M15 395l125 277h136l-140 -277h-121zM211 395l125 277h136l-140 -277h-121z" />
    <glyph glyph-name="quotedblbase" unicode="&#x201e;" horiz-adv-x="492" 
d="M24 -151l125 277h136l-140 -277h-121zM220 -151l125 277h136l-140 -277h-121z" />
    <glyph glyph-name="dagger" unicode="&#x2020;" horiz-adv-x="524" 
d="M57 394v103h144v158h132v-158h145v-103h-145v-394h-132v394h-144z" />
    <glyph glyph-name="daggerdbl" unicode="&#x2021;" horiz-adv-x="520" 
d="M57 394v103h144v158h132v-158h145v-103h-145v-115h145v-103h-145v-176h-132v176h-144v103h144v115h-144z" />
    <glyph glyph-name="bullet" unicode="&#x2022;" horiz-adv-x="494" 
d="M424 265q0 -69 -50 -117.5t-119 -48.5q-70 0 -120.5 48.5t-50.5 117.5q0 67 50.5 115.5t120.5 48.5q69 0 119 -48.5t50 -115.5z" />
    <glyph glyph-name="ellipsis" unicode="&#x2026;" horiz-adv-x="801" 
d="M598 1v136h138v-136h-138zM79 1v136h138v-136h-138zM339 1v136h138v-136h-138z" />
    <glyph glyph-name="perthousand" unicode="&#x2030;" horiz-adv-x="1303" 
d="M431 525q0 -69 -49 -115.5t-119 -46.5q-69 0 -118 47t-49 115q0 66 49 112.5t118 46.5q70 0 119 -46t49 -113zM330 525q0 26 -19.5 46t-47.5 20q-27 0 -46.5 -20t-19.5 -46q0 -28 19.5 -48.5t46.5 -20.5q28 0 47.5 20.5t19.5 48.5zM144 1l507 671h145l-505 -671h-147z
M857 151q0 -69 -49 -115.5t-119 -46.5q-69 0 -118 47t-49 115q0 66 49 112.5t118 46.5q70 0 119 -46t49 -113zM756 151q0 26 -19.5 46t-47.5 20q-27 0 -46.5 -20t-19.5 -46q0 -28 19.5 -48.5t46.5 -20.5q28 0 47.5 20.5t19.5 48.5zM1237 151q0 -69 -49 -115.5t-119 -46.5
q-69 0 -118 47t-49 115q0 66 49 112.5t118 46.5q70 0 119 -46t49 -113zM1136 151q0 26 -19.5 46t-47.5 20q-27 0 -46.5 -20t-19.5 -46q0 -28 19.5 -48.5t46.5 -20.5q28 0 47.5 20.5t19.5 48.5z" />
    <glyph glyph-name="guilsinglleft" unicode="&#x2039;" horiz-adv-x="361" 
d="M184 462h131l-125 -204l125 -201h-131l-129 201z" />
    <glyph glyph-name="guilsinglright" unicode="&#x203a;" horiz-adv-x="353" 
d="M59 463h131l129 -204l-129 -201h-131l125 201z" />
    <glyph glyph-name="fraction" unicode="&#x2044;" horiz-adv-x="785" 
d="M81 0l507 671h145l-505 -671h-147z" />
    <glyph glyph-name="Euro" unicode="&#x20ac;" horiz-adv-x="768" 
d="M609 220h-307q28 -68 86 -100.5t133 -32.5q113 0 193 61v-118q-78 -42 -193 -42q-133 0 -230.5 57.5t-132.5 174.5h-99v86h84q-1 11 -1 36q0 11 2 35h-85v86h105q39 101 137 160.5t220 59.5q117 0 193 -45v-110q-82 56 -193 56q-70 0 -127.5 -31t-87.5 -90h303v-86h-327
q-2 -22 -2 -34q0 -13 2 -37h327v-86z" />
    <glyph glyph-name="afii61289" unicode="&#x2113;" horiz-adv-x="578" 
d="M251 528v-241q123 126 123 246q0 36 -18 53t-43 17q-27 0 -44.5 -19t-17.5 -56zM482 152l56 -50q-89 -115 -203 -115q-142 0 -160 142q-11 -7 -33 -22t-33 -22l-41 65q5 4 27 19q63 43 74 51v302q0 76 39 118.5t105 42.5q68 0 102.5 -41.5t34.5 -117.5q0 -167 -199 -344
v-21q0 -45 24 -69.5t65 -24.5q70 0 142 87z" />
    <glyph glyph-name="afii61352" unicode="&#x2116;" horiz-adv-x="1155" 
d="M1092 239h-311v88h311v-88zM1112 525q0 -69 -49 -115.5t-119 -46.5q-69 0 -118 47t-49 115q0 66 49 112.5t118 46.5q70 0 119 -46t49 -113zM1011 525q0 26 -19.5 46t-47.5 20q-27 0 -46.5 -20t-19.5 -46q0 -28 19.5 -48.5t46.5 -20.5q28 0 47.5 20.5t19.5 48.5zM587 672
v-470l-377 470h-129v-671h122v482l376 -482h129v671h-121z" />
    <glyph glyph-name="published" unicode="&#x2117;" horiz-adv-x="777" 
d="M409 231h-31v-81h-94v310h125q57 0 93.5 -30.5t36.5 -84.5q0 -51 -37 -82.5t-93 -31.5zM407 383h-29v-75h28q19 0 30.5 11t11.5 28q0 36 -41 36zM392 622q140 0 236 -92t96 -224q0 -134 -96 -226t-236 -92q-142 0 -240 92t-98 226q0 132 98 224t240 92zM391 528
q-101 0 -169.5 -63.5t-68.5 -161.5q0 -95 68 -158t170 -63q99 0 166 63.5t67 160.5q0 95 -67 158.5t-166 63.5z" />
    <glyph glyph-name="trademark" unicode="&#x2122;" horiz-adv-x="799" 
d="M247 362h-84v234h-104v75h293v-75h-105v-234zM747 363h-85v174l-91 -110l-83 109v-173h-86v308h90l85 -117q10 14 40.5 55t46.5 62h83v-308z" />
    <glyph glyph-name="estimated" unicode="&#x212e;" horiz-adv-x="801" 
d="M748 302h-555v-174q38 -38 97.5 -64t115.5 -26q170 0 256 132l43 -24q-50 -79 -122 -118.5t-177 -39.5q-144 0 -245 96.5t-101 237.5q0 144 100 239.5t246 95.5q149 0 245.5 -99.5t96.5 -255.5zM616 349v173q-33 37 -90 61.5t-120 24.5q-61 0 -120 -24.5t-93 -61.5v-173
h423z" />
    <glyph glyph-name="partialdiff" unicode="&#x2202;" horiz-adv-x="622" 
d="M352 672l183 -274q59 -88 59 -179q0 -105 -74 -167.5t-196 -62.5t-198 63t-76 168q0 111 75.5 172t194.5 61q16 0 30 -3l-151 222h153zM184 219q0 -63 39.5 -98t100.5 -35t98.5 35t37.5 98q0 64 -37 100t-99 36q-61 0 -100.5 -37t-39.5 -99z" />
    <glyph glyph-name="product" unicode="&#x220f;" horiz-adv-x="763" 
d="M691 0h-123v568h-359v-568h-123v671h605v-671z" />
    <glyph glyph-name="summation" unicode="&#x2211;" horiz-adv-x="647" 
d="M597 0h-520v78l205 265q-21 32 -92 138t-108 162v28h515v-103h-324l154 -224l-190 -241h360v-103z" />
    <glyph glyph-name="minus" unicode="&#x2212;" horiz-adv-x="584" 
d="M512 188h-426v102h426v-102z" />
    <glyph glyph-name="radical" unicode="&#x221a;" horiz-adv-x="726" 
d="M67 351v101h194l112 -308q179 482 196 527h128l-262 -671h-124l-7 19q-21 55 -134 332h-103z" />
    <glyph glyph-name="infinity" unicode="&#x221e;" horiz-adv-x="1002" 
d="M726 23q-61 0 -111.5 32t-103.5 94q-106 -127 -209 -127q-83 0 -150 55.5t-67 150.5q0 98 67 155.5t150 57.5q59 0 106.5 -31.5t101.5 -95.5q53 66 104.5 96.5t111.5 30.5q87 0 146 -56.5t59 -154.5q0 -94 -59.5 -150.5t-145.5 -56.5zM305 124q59 0 143 105
q-47 61 -78 86.5t-65 25.5q-42 0 -76 -30.5t-34 -80.5t33.5 -78t76.5 -28zM717 341q-64 0 -145 -108q91 -110 146 -110q43 0 74 30t31 78q0 51 -30.5 80.5t-75.5 29.5z" />
    <glyph glyph-name="integral" unicode="&#x222b;" horiz-adv-x="479" 
d="M184 507q0 76 43.5 120t132.5 44h75v-94h-48q-83 0 -83 -84v-497q0 -76 -43.5 -120t-132.5 -44h-75v94h48q83 0 83 84v497z" />
    <glyph glyph-name="approxequal" unicode="&#x2248;" horiz-adv-x="634" 
d="M474 432h99q0 -94 -34.5 -135.5t-102.5 -41.5q-42 0 -122 40q-62 32 -87 32q-24 0 -41 -17.5t-17 -51.5h-100q0 86 42.5 130t104.5 44q43 0 123 -40q66 -32 89 -32q27 0 36.5 16.5t9.5 55.5zM474 205h99q0 -94 -34.5 -135.5t-102.5 -41.5q-42 0 -122 40q-62 32 -87 32
q-24 0 -41 -17.5t-17 -51.5h-100q0 86 42.5 130t104.5 44q43 0 123 -40q66 -32 89 -32q27 0 36.5 16.5t9.5 55.5z" />
    <glyph glyph-name="notequal" unicode="&#x2260;" horiz-adv-x="605" 
d="M533 64h-262l-47 -85h-122l48 85h-64v102h121l83 146h-204v102h261l42 74h120l-42 -74h66v-102h-123l-82 -146h205v-102z" />
    <glyph glyph-name="lessequal" unicode="&#x2264;" horiz-adv-x="571" 
d="M500 524v-105l-241 -87l241 -85v-108l-414 150v87zM499 0h-413v102h413v-102z" />
    <glyph glyph-name="greaterequal" unicode="&#x2265;" horiz-adv-x="571" 
d="M93 420v105l414 -148v-87l-414 -150v108l241 85zM507 1h-413v102h413v-102z" />
    <glyph glyph-name="lozenge" unicode="&#x25ca;" horiz-adv-x="779" 
d="M394 -18l-342 350l347 352l341 -352zM398 526l-195 -195l192 -195l195 196z" />
    <glyph glyph-name="exclamdown.cap" horiz-adv-x="306" 
d="M214 455h-104l-16 -456h138zM93 536v132h134v-132h-134z" />
    <glyph glyph-name="questiondown.cap" horiz-adv-x="594" 
d="M289 -13q107 0 168.5 47.5t61.5 120.5q0 67 -59 135l-77 89q-22 25 -22 57v46h-128v-63q0 -33 6.5 -50t25.5 -38l73 -79q45 -50 45 -97q0 -32 -25 -54.5t-69 -22.5q-49 0 -78.5 30.5t-29.5 91.5h-129q0 -98 63.5 -155.5t173.5 -57.5zM228 536v132h135v-132h-135z" />
    <glyph glyph-name="emdash.cap" horiz-adv-x="839" 
d="M814 205h-780v98h780v-98z" />
    <glyph glyph-name="grave.cap" 
d="M334 710l-101 95h148l82 -95h-129z" />
    <glyph glyph-name="acute.cap" 
d="M495 805l-101 -95h-129l82 95h148z" />
    <glyph glyph-name="circumflex.cap" 
d="M413 710l-38 48l-38 -48h-125l76 95h174l76 -95h-125z" />
    <glyph glyph-name="caron.cap" 
d="M375 757l38 48h125l-76 -95h-174l-76 95h125z" />
    <glyph glyph-name="tilde.cap" 
d="M291 710h-87q-2 48 25 75t77 26q33 -1 82 -19q49 -17 55 -17q35 0 35 30h79q2 -52 -22.5 -77t-73.5 -24q-30 1 -88 22q-45 15 -49 15q-33 0 -33 -31z" />
    <glyph glyph-name="dieresis.cap" 
d="M222 710v95h115v-95h-115zM411 710v95h115v-95h-115z" />
    <glyph glyph-name="macron.cap" 
d="M199 719v86h344v-86h-344z" />
    <glyph glyph-name="breve.cap" 
d="M375 704q-137 0 -147 101h85q0 -22 18 -34t44 -12q25 0 42.5 12t17.5 34h84q-7 -101 -144 -101z" />
    <glyph glyph-name="dotaccent.cap" 
d="M316 710v95h115v-95h-115z" />
    <glyph glyph-name="ring.cap" 
d="M452 736q0 -35 -22 -56t-55 -21q-34 0 -57 21t-23 56q0 33 23 54.5t57 21.5q33 0 55 -21.5t22 -54.5zM401 736q0 11 -7.5 19t-18.5 8t-20 -8t-9 -19q0 -12 8.5 -19.5t20.5 -7.5q26 0 26 27z" />
    <glyph glyph-name="caronSlovak" 
d="M399 458h-89l56 213h100z" />
    <glyph glyph-name="commaaccent.alt" 
d="M378 671h120l-79 -113h-127z" />
    <glyph glyph-name="hungarumlaut.cap" 
d="M428 805l-96 -93h-111l77 93h130zM611 805l-96 -93h-111l77 93h130z" />
    <glyph glyph-name="emboxsolid" horiz-adv-x="896" 
d="M146 0v614h618v-614h-618z" />
    <glyph glyph-name="embulletsolid" horiz-adv-x="886" 
d="M794 299q0 -140 -101 -237.5t-244 -97.5q-140 0 -241.5 98t-101.5 237q0 138 101 235.5t242 97.5q143 0 244 -97.5t101 -235.5z" />
    <glyph glyph-name="dcroat.sc" horiz-adv-x="574" 
 />
    </font>
</defs>
</svg>
